<?xml version="1.0"?>
<svg xmlns="http://www.w3.org/2000/svg" version="1.2" baseProfile="tiny" width="800" height="691" viewBox="0 0 800 691" stroke-linecap="round" stroke-linejoin="round">
<g id="ne_10m_admin_1_states_provinces">
<path d="M 559.03 223.35 560.9 224.27 566.38 224.12 568.64 224.67 564.43 226.34 559.1 225.4 549 221.99 549.43 220.76 551.67 220.63 554.49 221.07 557.17 221.99 559.03 223.35 Z M 791.85 341.77 793.4 341.88 797.52 342.9 799 343.65 798.3 345.23 797.34 345.9 794.6 346.09 793.4 346.88 791.43 350.23 789.86 351.04 785.23 352.37 784.11 353.14 782.4 355.23 781.08 355.69 777.47 355.18 775.69 355.68 774.8 356.8 774.16 358.33 773.16 360.1 770.08 363.5 769.23 364.89 768.58 366.76 767.73 370.94 767.15 372.92 766.46 374.27 763.22 378.97 764.93 379.91 763.52 380.39 761.04 380.28 758.49 379.71 755.22 377.91 753.15 378.32 749.38 379.71 736.95 380.61 734.31 382.17 731.75 384.9 728.49 386.47 719.12 388.42 717.24 389.2 715.72 390.64 715.08 393.01 715.64 395.98 717.23 396.56 719.29 396.4 721.3 397.18 720.24 398.72 719.07 399.48 714.41 400.16 714.06 400.89 713.94 401.98 713.13 403.41 710.32 405.33 707.33 405.62 701.32 403.98 703.86 407.93 704.6 409.74 704.24 411.94 703.14 413.14 701.43 413.78 693.33 415.48 689.15 415.47 685.28 414.14 681.85 411.17 681.58 409.55 681.8 407.45 681.36 405.67 679.04 405.02 677.63 404.96 676.84 404.81 676.22 404.8 675.28 405.19 674.45 406.01 673.23 408.26 672.41 408.75 671.39 409.7 670.23 411.86 669.32 414.38 668.98 416.39 669.81 418.74 671.6 420.47 673.62 421.98 675.2 423.6 670.17 425.6 652.43 422.2 642.96 423.44 639.85 425.39 636.01 424.91 626.76 422.04 625.69 421.24 624.51 419.94 623.89 418.52 623.38 416.63 622.47 415.01 620.86 414.36 618.14 414.65 601.13 419.7 584.1 428.67 565.44 443.13 554.09 458.06 535.92 474.74 528.36 484.64 513.37 509.9 501.72 532.96 499.77 540.03 499.14 548 500.83 557.44 501.12 561.25 500.97 564.68 500.47 568.51 497.4 582.17 496.1 585.65 492.83 588.83 491.46 596.36 490.1 598.71 488.15 598.06 485.23 595.86 482.57 593.3 481.39 591.57 480.07 588.54 477.13 585.25 473.91 582.41 454.22 569.93 428.87 561.61 402.3 546.71 391.5 543.43 369.02 527.87 361.62 520.42 354.76 512.47 341.71 510.82 331.53 504.34 324.63 496.34 322.57 495.2 319.94 494.51 311.11 489.62 299.83 486.78 288.76 487.1 278.04 489.62 263.02 495.85 242.63 512.01 239.19 513.62 236.77 516 235.31 516.53 233.81 516.7 232.39 517.19 231.03 517.89 221.48 524.84 219.21 527.29 212.21 537.5 210.25 539.38 208.86 539.95 207.31 540.25 205.74 540.11 204.22 539.38 203.4 538.48 202.31 536.88 201.64 535.38 202.19 534.72 207.08 535.75 208.16 535.33 208.49 533.53 206.98 532.4 203.55 531.29 201.01 529.29 199.95 528.06 199.23 526.72 197.9 519.98 177.19 495.98 171.35 493.45 168.46 493.33 160.35 494.65 151.49 493.11 148.4 493.34 143.05 495.79 138.01 500.13 133.5 505.63 126.54 517.66 123.83 524.29 121.86 531.44 120.92 539.01 122.13 546.58 125.81 550.9 138.49 557.96 142.49 561.19 151.63 571.5 153.93 572.55 156.81 572.18 161.58 570.57 169.54 569.86 171.93 569.18 174.47 567.97 181.93 573.22 183.87 577.85 189.81 586.37 191.88 588.45 196.62 591.75 198.7 593.86 206.92 604.76 209.15 606.7 211.57 608.11 214.34 608.94 217.57 609.21 220.53 609.96 223.5 611.77 233 620.69 235.15 623.84 233.9 625.27 228.1 626.14 225.35 627.22 223.15 628.72 215.55 636.5 210.92 638.46 205.11 636.82 194.38 630.75 188.09 628.65 181.97 628.69 176.31 632.08 173.56 632.82 172.38 630.43 173.41 628.04 175.38 626.5 176.76 624.79 176 621.83 173.72 619.64 170.7 618.71 167.65 619.16 165.29 621.16 163.99 624.13 162 631.24 160.55 634.32 153.08 638.24 151.83 639.46 150.39 640.55 143.69 642.43 141.53 643.44 139.03 649.51 140.19 663.05 138.79 668.54 134.79 671.49 118.91 676.49 116.99 678.09 114.66 680.66 112.7 683.86 111.87 687.33 110.52 690 107.51 689.52 101.55 686.6 100.21 686.66 98.04 687.58 96.86 687.79 95.36 687.23 92.19 684.76 90.83 684.2 89.1 682.85 87.87 679.69 86.16 672.74 82.46 663.06 82.02 659.51 82.62 655.93 85.09 650.69 87.23 640.3 93.81 629.8 95.37 623.04 95.93 622.31 98.67 622.63 99.71 622.46 100.86 620.88 101.25 619.34 101.5 615.62 101.41 614.62 100.64 613.18 100.59 612.19 101.09 611.39 101.99 610.67 103.26 609.94 103.55 607.98 103.67 605.27 104.15 604.24 103.37 601.57 102.71 598.38 102.59 595.23 103.43 592.71 99.34 587.91 93.13 576.32 89.01 572.01 76.61 566.28 74.39 563.3 74.26 562.59 73.63 561.78 71.28 556.84 70.13 556 66.31 554.5 60.77 549.85 59.44 548.02 58.27 543.93 57.12 537.25 57.76 534 59.31 530.62 64.61 522.13 65.97 518.49 67.67 510.92 67.73 503.42 65.86 490.91 67.26 484.56 71.48 478.52 76.49 476.27 88.44 475.69 91.39 474.98 93.38 473.64 98.59 467.07 99.79 466.2 101.07 465.71 102.57 465.57 103.6 464.89 104.65 463.26 107.85 456.79 109.55 454.4 111.65 453.74 114.4 455.93 117.18 460.71 119.01 462.72 121.56 463.37 124.26 461.31 125.11 457.39 125.37 453.58 126.29 451.87 128.55 450.57 130.38 447.43 133.52 440.63 135.5 438.19 143.93 429.82 149.11 426.31 151.33 423.61 152.08 420.41 150.83 417.98 149.02 415.33 148.12 411.51 147.26 409.14 141.42 400.52 137.39 396.11 132.75 392.25 129.13 387.64 128.12 380.91 131.97 368.49 138.01 368.61 140.99 368.01 143.32 366.28 143.98 364.76 144.36 362.99 144.84 361.41 145.85 360.49 147.54 360.7 149.06 361.92 150.34 363.29 151.29 363.94 153.38 364.83 163.81 372.69 165.99 374.76 169.63 379.55 172.12 381.56 180.94 385.75 182.14 387.08 183.97 389.58 185.18 390.44 186.86 390.95 199.43 389.02 208.69 385.2 211.5 384.87 212.86 385.74 211.62 387.96 210.67 390.88 212.82 393.9 214.11 394.35 218.68 394.92 223.7 397.03 226.72 397.66 229.3 399.23 230.84 399.59 233.07 399.47 234.73 399.12 238 397.29 247.33 390.11 255.48 381.14 258.71 376.27 261.84 369.88 263.85 362.54 263.76 354.83 262.19 350.36 255.29 339.93 253.94 335.52 254.24 332.21 255.69 329.33 257.73 326.22 255.43 319.68 254.37 318.14 254.71 314.99 251.88 307.67 251.07 303.88 251.81 300.76 253.56 296.69 256.79 290.73 258.85 288.67 261.59 286.82 264.4 285.48 269.55 284.64 271.9 283.75 274.09 282.29 280.9 276.52 284.61 271.93 287.58 266.02 289.73 258.34 290.67 251.42 290.98 244.47 288.92 209.32 290.1 203.32 299.73 184.59 304.79 155.65 305.23 148.16 303.52 127.49 299.78 107.45 295.9 95.82 279.55 60.96 278.14 53.86 279.13 46.44 279.83 45.26 282.19 42.29 283.12 40.69 283.66 38.91 283.9 37.32 284.24 35.82 286.74 31.35 286.84 28.62 285.48 23.34 285.23 20.75 285.49 17.96 286.47 15.26 288.54 13.04 289.91 14.05 290.67 15.4 291 17.18 291.08 19.39 291.73 21.06 293.18 21.08 295.91 19.92 301.37 19.2 307.15 17.53 311.17 14.51 312.44 14.05 313.24 13.17 313.44 11.16 313.41 8.88 313.57 7.17 315.33 4.39 318.31 1.8 321.3 1 323.14 2.68 325.22 7.58 326.42 9.62 328.11 10.45 330 11.72 334.7 20.64 339.47 25.55 349.8 33.15 354.36 37.49 392.83 83.88 402.11 102.87 404.13 106.2 408.35 108.97 414.32 118.96 437.98 145.01 441.89 147.04 447.07 154.99 454.53 160.09 463.84 169.56 474.36 177.59 476.83 178.33 478.76 179.3 483.44 184.22 485.69 186.08 490.91 187.29 492.3 188.17 494.49 193.07 494.6 193.93 497.99 197.73 499.08 198.62 517.09 208.95 544.41 218.65 544.45 219.8 534.62 218.88 532.87 220.19 533.46 221.24 536.44 224.17 537.15 225.24 539.01 231.52 540.21 230.72 540.68 230.22 542.5 231.95 544.06 232.98 545.71 233.44 563.38 233.11 564.37 233.5 567.64 229.42 569.65 227.7 571.55 226.95 586.05 227.24 590.2 229.06 592.52 230.85 592.52 231.4 590.98 231.81 588.82 233.17 587.27 235.38 585 243.61 589.04 245.27 590.79 245.35 592.47 244.36 593.68 242.66 594.93 240.09 595.89 237.22 596.22 234.65 597.71 229.73 601.02 228.31 603.56 230.12 602.84 234.9 604.54 239.86 605.83 241.93 607.72 242.72 608.8 243.93 611 249.35 612.16 250.55 613.25 251.09 618.58 254.86 620.55 255.72 624.85 256.93 641.89 259.19 662.55 259.98 668.25 258.52 673.31 254.86 686.64 238.83 696.84 225.54 698.1 223.51 706.36 217.68 711.76 211.37 713.91 210.43 715.84 208.59 721.12 197.26 725.62 192.48 727.88 189.43 728.74 186.03 729.22 185.09 730.29 184.31 731.43 184.35 732.56 187.56 734.9 191.32 735.7 193.06 735.94 200.34 733.63 206.69 726.99 216.62 725.79 220.13 725.02 228.35 724.1 231.04 713.85 245.67 711.07 251.23 708.71 257.37 707.06 263.54 708.4 266.54 707.83 270.01 706.61 273.27 705.67 277.02 704.04 279.57 703.74 281.5 703.94 283.68 704.3 284.97 709.86 295.91 711.71 298.38 720 306.49 721.66 308.72 723.14 311.53 724.25 314.81 724.77 318.43 725.24 319.76 727.09 321.26 727.88 323.93 729.58 327.97 733.52 341.91 736.41 348.23 740.86 353.71 746.95 357.98 743.08 358.83 735.1 352.58 731.5 351.9 730.4 353.27 730.23 355.2 731.08 356.9 733.04 357.55 735.25 357.93 737.38 358.88 738.14 360.01 736.14 360.83 738.41 363.3 742.1 364.92 746.14 365.79 756.56 366.25 759.52 367.5 762.73 369.94 763.22 367.87 762.1 366.65 760.55 365.37 759.85 363.12 760.58 361.92 764.98 357.63 769.73 351.65 771.2 350.38 774.32 349.35 775.86 348.39 776.59 347.24 776.94 346.03 777.54 344.84 779.01 343.74 780.73 343.29 786.51 343.32 787.53 342.9 788.99 341.17 789.7 340.74 790.53 340.86 791.09 341.22 791.48 341.6 791.85 341.77 Z M 29.73 548.13 31.65 550.1 30.32 553.45 26.07 559.58 25.13 563.96 24.93 568.05 24.4 571.87 22.46 575.51 17.57 579.98 16.37 579.42 15.12 578.04 14.41 576.21 14.81 574.33 14.2 572.84 13.95 571.37 14.02 567.98 13.75 566.55 12.56 564.44 12.34 562.76 12.83 559.67 14.08 556.5 15.76 553.92 17.67 552.6 19.11 552.47 21.84 551.7 23.31 551.55 24.79 550.98 28.46 548.55 29.73 548.13 Z M 734.42 310.34 738.57 313.04 740.61 314.81 741 316.45 739.5 317.4 734.93 318.89 734.04 320.19 733.31 322.25 731.67 323.13 730.37 322.45 730.68 319.79 731.94 318.15 735.6 316.24 737.16 314.88 720.98 307.59 731.37 309.21 734.42 310.34 Z M 627.01 256.9 627.83 256.87 627.09 256.93 627.01 256.9 Z M 248.85 59.8 249.87 62.23 249.02 63.93 247.6 65.56 246.86 67.79 246.2 68.53 241.94 71.75 239.9 72.06 238.02 71.52 231.67 67.5 227.9 64.08 225.65 60.23 227.35 56.94 226.8 55.9 226.16 54.21 225.72 53.52 229.89 48.54 231.37 47.8 234.08 47.01 237.93 48.3 241.86 50.93 244.79 54.09 248.85 59.8 Z M 216.34 13.36 218.26 14.65 218.8 17.66 217.1 34.84 215.98 39.71 214.34 44.4 213.56 42.12 213.67 41.21 214.34 39.83 211.37 33.87 209.99 30.16 209.44 26.64 210.24 18.59 209.7 16.74 206.22 11.18 207.08 10.47 207.85 10.26 208.49 10.52 209.01 11.2 209.32 11.96 210.9 15.03 212.49 15.13 214.29 14.06 216.34 13.36 Z M 5.62 668.3 6.28 668.8 6.72 669.75 5.74 671.28 2.09 673.05 1.51 672.34 1 670.05 1.02 668.82 1.53 667.94 2.52 667.89 3.46 668.26 5.62 668.3 Z" fill-rule="evenodd"/>
</g>
</svg>