<?xml version="1.0"?>
<svg xmlns="http://www.w3.org/2000/svg" version="1.2" baseProfile="tiny" width="800" height="1241" viewBox="0 0 800 1241" stroke-linecap="round" stroke-linejoin="round">
<g id="ne_10m_admin_1_states_provinces">
<path d="M 574.09 1 579.68 7.32 595.59 28.67 599.57 42.53 609.5 49.65 615.06 60.12 617.91 67.79 626.01 85.97 627.6 90.58 629.31 99.38 633.37 105.64 643.44 117.84 658.75 146.04 665.39 164.5 661.14 172.88 655.7 175.36 650.57 181.35 647.86 188.73 649.65 195.42 656.76 201.11 671.85 207.14 678.74 212.54 685.72 227.37 679.47 236.22 669.21 245.16 663.83 260.23 666.74 277.83 673.87 288.98 710.44 322.27 716.51 325.68 722.6 327.55 727.34 331.06 730.75 346.81 733.26 354.53 734.34 362.26 731.82 369.53 725.33 378.68 723.79 383.66 729.96 396.77 733.54 402.61 737.44 407.4 740.75 413.75 743.01 436.19 744.95 445.58 758.72 490.44 760.23 493.99 759.72 497.85 761.43 502.91 762.59 508.51 760.46 514.14 754.35 521.33 752.87 524.88 748.94 542.04 747.64 574.47 746.24 585.2 738.84 601.42 736.47 611.71 739.88 621.29 765.62 593.77 778.95 591.3 776.14 598.16 775.04 603.01 776.1 607 779.18 611.24 774.36 623.64 776.38 631.3 792.55 646.64 795.42 648.8 797.71 651.33 799 655.82 798.53 662.92 795.95 665.89 792.94 668.24 791.49 673.54 787.93 676.01 768.34 701.02 759.44 706.73 740.88 713.99 733.41 721.79 743.68 734.44 758.02 732.83 770.7 722.39 776.16 708.79 780.39 704.47 788.5 709.33 793.01 717.09 786.11 721.2 782.62 725.76 781.86 736.21 781.86 748.05 778.23 752.99 766.36 754.28 761.04 755.85 755.69 755.38 749.63 756.87 744.42 760.9 732.38 772.28 725.94 777.06 740.38 783.86 734.41 793.8 719.54 805.32 707.4 817.08 718.41 821.03 730.91 816.9 742.36 809.06 750.12 801.68 751.83 819.05 740.64 829.79 713.1 842.99 717.66 846.14 721.12 850.92 723.31 857.22 718.6 856.82 708.92 857.84 704.3 857.41 703.88 866.97 704.49 876.87 722.87 877.28 731.67 875.73 731.54 876.6 733.08 891.54 722.3 903.16 706.52 909.08 693.19 906.84 695.01 917.86 701.89 921.94 720.37 921.52 714.53 934.04 702.92 941.9 688.35 945.99 673.75 947.32 683.7 957.37 711.04 978 713.68 986.75 700.74 992.85 669.36 982.37 659.04 992.26 683.36 1004.85 690.33 1012.35 683.92 1015.12 677.08 1016.78 670.05 1017.44 662.74 1017.15 662.79 1022.58 668.93 1026.06 677.05 1032.78 681.42 1039.32 676.72 1042.36 653.38 1037.09 630.58 1040.67 618.77 1039.79 608.52 1032.51 608.88 1043.13 612.05 1051.5 616.56 1059.27 620.48 1067.72 613.89 1066.71 608.43 1068 600.73 1077.85 609.23 1080.9 612.48 1087.73 610.45 1094.57 603.01 1097.77 595.58 1095.1 588.02 1088.57 581.75 1080.49 577.75 1073.04 585.18 1069.42 589.35 1062.54 565.11 1061.62 557.94 1069.98 559.14 1083.03 555.35 1081.56 533.51 1076.79 517.73 1070.05 501.91 1066.89 487.59 1067.37 478.86 1069.49 471.13 1076.65 469.21 1086.42 469.27 1098.22 470.25 1109.18 470.29 1117.32 468.83 1124.52 466.38 1129.49 462.61 1135.03 457.95 1140.25 453.91 1146.04 451.53 1152.76 451.21 1159.39 452.01 1167.04 451.23 1182 451.62 1188.25 450.67 1193.95 447.51 1198.97 432.45 1214.23 426.71 1216.55 397.39 1202.58 385.16 1199.75 377.54 1196.63 371.09 1198.84 367.57 1202.99 364.31 1208.5 359.55 1213.1 343.35 1221.98 338.05 1226.33 329.58 1236.7 324.98 1239.7 318.9 1240 297.8 1225.41 277.95 1216.44 270.68 1207.29 259.31 1190.09 258.68 1183.53 261.68 1177.39 270.36 1170.37 272.22 1167.93 272.66 1164.75 268.02 1159.99 258.73 1155.76 236.78 1153.03 197.53 1153.28 190.34 1151.62 181.06 1147.81 141.54 1123.26 89.76 1099.46 57.51 1095.64 66.26 1057.6 78.08 1031.97 79.86 1025 77.76 1016.59 72.75 1011 65.33 1005.48 57.24 997.44 53.18 988.19 52.09 977.83 54.15 967.42 60.44 952.47 66.71 945.76 73.09 941.82 77.59 938.14 78.74 933.09 75.64 927.73 71.02 923.13 66.34 917.69 63.54 910.39 64.01 900.01 62.09 891.83 58.68 884.81 53.6 879.71 42.37 871.41 37.34 866.21 34.28 860.83 28.33 852.09 24.13 847.36 20.73 839.7 15.8 816.51 4.53 792.35 2.28 782.62 1 774.21 11.23 742.73 33.06 701.03 41.61 674.45 47.19 661.61 52.3 651.96 76.52 623.63 85.16 607.22 87.54 600.1 89.48 590.95 88.99 577.51 86.65 566.73 82.1 555.02 76.32 535.62 80.28 524.53 84.22 516.55 92.72 502.51 95.79 495.35 96.85 488.57 91.11 481.29 78.45 470.52 74.22 464.46 72.32 455.84 72.58 447.82 74.1 440.4 78.92 433.02 84.76 429.32 91.39 427.21 99.15 427.17 105.97 428.33 112.42 428.56 118.09 425.9 121.76 420.08 120.9 410.66 113.1 388.69 109.95 376.1 107.66 361.83 107.2 355.63 106.12 347.75 105.15 302.47 103.61 292.05 103.8 282.89 105.72 275.03 110.78 264.23 113.84 255.41 113.68 245.63 114.39 234.65 116.31 227.73 117.19 221.82 115.9 214.92 114.17 208.59 113.61 199.61 122.1 184.29 130.1 173.28 142.54 164 153.29 153.44 180.19 171.45 188.08 175.07 195.36 177.27 202.04 175.97 208.74 171.94 243.51 139.79 329.38 87.49 363.38 71.91 370.3 72.11 376.31 75.82 381.79 81.15 393.77 82.97 408.29 78.92 434.83 66.96 448.08 62.78 458.8 61.9 479.78 68.75 494.18 70.55 503.26 68.46 510.08 62.31 512.98 55.93 514.67 48.92 517.21 41.2 522.35 33.4 570.49 3.13 574.09 1 Z"/>
</g>
</svg>