<?xml version="1.0"?>
<svg xmlns="http://www.w3.org/2000/svg" version="1.2" baseProfile="tiny" width="800" height="884" viewBox="0 0 800 884" stroke-linecap="round" stroke-linejoin="round">
<g id="ne_10m_admin_1_states_provinces">
<path d="M 779.61 17 779.77 18.66 782.64 49.13 796.18 85.43 799 100.34 786.8 91.49 785.17 88.06 783.08 78.29 781.03 74.07 777.98 72.21 775.05 73.23 771.53 75.28 767.35 76.37 756.51 76.62 750.83 78.8 748.58 85.4 748.25 98.9 749.72 112.85 751.55 119.36 750.3 124.31 742.54 133.5 718.5 152.26 713.54 161.46 719.4 164.89 723.3 169.98 729.16 181.12 739.39 189.7 742.57 197.03 739.14 207.96 735.38 210.89 732.37 208.7 729.31 205.52 725.76 205.36 722.97 207.67 715.98 217.94 710.61 222.06 696.59 226.99 690.76 230.63 680.8 238.77 680.87 243.03 686.99 250.41 693.41 253.52 720.07 255.14 721.75 259.74 717.8 269.96 712 280.17 708.43 284.83 683.4 305.1 692.53 313.87 701.64 325.14 710.53 330.03 718.69 319.73 726.18 330.94 729.29 341.62 729.09 353.53 726.73 368.54 720.43 366.63 716.11 362.6 712.99 356.65 710.73 349.37 702.84 376.58 699.64 383.5 702.94 385.63 704.38 387.98 705.32 390.62 707.09 393.78 692.88 398.18 686.38 401.74 685.85 406.24 689.73 414.22 689.53 420.51 689.98 426.41 695.7 433.26 702.19 427.76 713.19 425.73 724.12 428.66 730.7 438.03 722.21 434.7 714.35 434.25 707.94 438.16 703.55 448.03 717.25 456.34 719.65 471.05 720.01 486.65 727.49 497.66 724.42 503.15 717.72 522.88 713.82 520.99 698.17 505.24 694.4 502.93 686.06 502.62 682.3 500.38 680.33 495.24 682.25 490.86 684.59 486.93 684.3 483.14 678.99 477.53 660.62 468.44 663.6 463.61 668.57 448.21 661.93 441.81 657.02 441.65 651.94 443.67 644.91 443.88 638.15 441.62 632.4 438.32 619.63 426.23 607.91 421.39 591.59 422.24 549.03 432.33 533.64 438.36 521.45 448.97 516.48 466.21 518.13 482.78 515.13 483.9 505.13 483.74 502.62 479.1 493.55 448.75 488.65 452.38 483.75 453.73 478.84 452.65 474.21 448.78 463.76 456.46 455.39 466.78 449.43 479.4 446.29 493.63 451.8 490.57 458.19 489.71 463.61 492.09 466.11 498.55 464.45 504.14 459.87 508.02 454.03 511.49 448.62 515.85 428.47 540.31 411.73 567.64 399.67 594.04 376.22 681.49 372.1 711.94 372.72 742.33 380.04 795.36 380.36 796.77 376.66 796.78 348.68 798.24 341.14 801.61 335.54 806.66 334.29 812.82 335.68 827.38 335.67 834.06 334.22 854.33 332.43 862.46 327.62 868.14 318.26 871.39 291.4 871.63 289.71 873.24 295.14 879.26 291.91 882.89 283.38 883 265.59 878.14 243.66 862.41 239.45 855.92 236.89 850.01 235.91 844.08 237.06 827.4 235.05 818.06 229.46 809.04 219.19 801.39 207.94 798.73 197.93 793.13 175.37 786.5 142.42 793.62 137.25 793.63 131.31 792.29 123.92 786.13 114.76 770.36 108.42 762.77 100.2 757.4 78.15 748.86 69.99 749.52 48.56 754.75 30.09 754.88 1 741.37 5.65 693.77 8.75 683.01 16.07 674.78 23.83 671.18 44.56 668.86 53.6 666.35 64.01 659.14 74.18 650.21 84.2 633.48 99.61 615.49 105.41 606.36 110.22 589.77 112.06 578.47 112.66 565.9 111.84 539.42 115.82 522.85 119.38 512.81 124.23 503.13 135.88 486.19 140.99 475.82 147.08 458.09 158.88 442.49 164.1 437.88 168.36 431.41 175.82 406.34 182.94 389.5 184.63 380.25 181.33 369.89 176.81 363.63 171.82 357.94 167.99 349.56 166.08 337.79 165.88 306.43 162.87 294.22 156.74 277.77 154.91 269.25 154.84 260.57 158.68 252.67 164.92 251.32 173.9 253.02 181.81 251.96 187.01 247.45 191.52 240.08 194.19 231.29 195.55 220.88 194.84 203.52 196.13 187.7 197.37 184.75 201.62 176.82 202.69 170.93 201.49 163.79 189.74 145.82 179.68 122.66 160.34 97.07 154.91 79.57 161.18 85.39 169.08 87 180.11 86.7 216.51 74.34 246.86 54.61 255.22 46.46 263.75 40.1 268.72 35.42 282.93 29.48 314.87 33.27 366.14 56.85 405.26 81.18 414.45 84.95 421.57 86.59 460.43 86.35 482.17 89.06 491.37 93.24 495.95 97.96 495.52 101.12 493.69 103.53 485.09 110.48 482.12 116.57 482.74 123.07 494 140.11 501.2 149.17 520.85 158.06 541.74 172.52 547.76 172.22 552.31 169.24 560.7 158.97 565.95 154.67 581.99 145.86 586.71 141.31 589.93 135.85 593.42 131.73 599.81 129.54 607.35 132.64 619.45 135.45 648.48 149.29 654.17 146.98 669.08 131.87 672.21 126.89 673.15 121.25 672.77 115.05 673.54 100.22 672.74 92.65 673.06 86.08 675.42 79.42 679.42 73.69 684.03 68.51 687.76 63.02 690.19 58.1 691.64 50.96 691.59 42.9 690.63 32.04 690.57 20.35 692.47 10.67 700.12 3.58 708.76 1.47 722.95 1 738.61 4.13 754.24 10.81 775.86 15.54 779.61 17 Z"/>
</g>
</svg>