<?xml version="1.0"?>
<svg xmlns="http://www.w3.org/2000/svg" version="1.2" baseProfile="tiny" width="800" height="1326" viewBox="0 0 800 1326" stroke-linecap="round" stroke-linejoin="round">
<g id="ne_10m_admin_1_states_provinces">
<path d="M 1 538.85 25.29 480.47 40.14 441.4 61.33 410.42 128.47 350.18 152.13 318.9 172.26 282.93 204.55 165.65 236.99 79.43 244.55 51.09 249.96 16.75 255.02 1.35 255.2 1 255.31 1 258.75 1.04 315.57 17.74 323.65 16.75 331.7 14.64 339.43 10.6 352.23 7.16 361.08 8.63 369.23 11.81 393.65 38.61 419.88 57.64 436.01 66.27 454 69.72 464.79 69.58 474.31 73.54 479.07 80.09 486.7 87.37 498.31 93.87 553.86 105.42 578.92 106.69 596 109.98 641.94 137.07 653.82 148.33 662.64 171.3 674.1 194.48 696.55 216.65 736.21 226.82 743.34 249.82 768.76 283.46 781.98 313.89 797.43 337.51 799 346.88 797.59 354.63 792.01 365.06 790.38 368.93 788.68 389.72 789.62 412.54 787.83 426.22 784.32 437.76 778.39 447.45 771.55 453.38 761.16 454.78 749.36 452.54 741.16 454.32 736.11 464.69 736.2 476.1 738.61 487.3 746.66 508.93 750.63 524.97 750.89 566.18 753.4 581.65 758.43 592.66 764.99 600.15 770.93 608.37 775.26 621.98 773.05 634.14 763.69 656.27 753.89 689.22 748.29 697.73 741.42 703.78 725.91 724.29 717.91 747.6 711.2 761.23 695.89 783.49 689.51 796.21 684.84 809.41 679.61 831.18 680.68 865.98 679.89 882.51 677.48 897.36 671.16 919.15 663.53 931.15 643.28 954.8 630.12 976.79 616.74 988.53 603.07 998 591.19 1001.3 563.94 1004.34 553.75 1009.07 544.13 1019.89 540.06 1034.04 533.94 1096.59 534.32 1133.05 531.88 1151.21 529.88 1183.84 531.09 1223.03 535.87 1252.97 532.35 1270.99 526.19 1281.91 503.25 1302.21 496.98 1306.03 490.77 1308.58 482.34 1310.5 474.17 1310.01 466.47 1308.59 459.21 1305.95 451.02 1306.62 441.65 1310.14 428.11 1321.08 417.44 1325 407.58 1324.86 399.79 1320.32 383.49 1302.96 375.26 1296.48 366.34 1292.76 356.7 1291.58 335.02 1294.05 328.71 1294.03 322.19 1291.83 313.72 1286.56 303.52 1276.05 288.78 1250.24 278.95 1239.07 267.08 1236.14 257.78 1242.18 246.97 1245.27 238.11 1244.36 217.05 1238.09 198.57 1238.2 184.03 1243.24 172.2 1243.31 161.27 1239.83 152.84 1232.9 122.66 1228.77 95.61 1206.95 70.01 1191.45 53.03 1171.84 44.51 1156.06 43.19 1142.94 45.34 1131.19 52.82 1109.12 55.33 1086.25 57.45 1076.56 64.14 1057.27 64.39 1056.25 63.23 1029.56 65.41 1018.13 80.88 989.31 93.37 879.69 99.72 866.01 110.38 859.49 121.54 858.86 150.8 861.47 167.8 860.76 179.45 857.72 190.33 851.61 217.79 830.73 226.05 820.24 232.47 807.31 238.35 788.22 237.05 774.15 232 761.11 226.87 753.51 220.47 746.02 190.14 722.62 179.69 720.52 158.24 721.96 147.87 717.16 137.21 709.01 127.68 700.24 118.67 690.01 112.22 679.29 109.2 663.42 112.46 629.07 111.86 614.27 112.58 603.95 113.97 595.97 114.42 588.61 108.47 583.77 98.48 579.11 78.48 573.47 11.09 541.63 1.16 538.9 1 538.85 Z"/>
</g>
</svg>