<?xml version="1.0"?>
<svg xmlns="http://www.w3.org/2000/svg" version="1.2" baseProfile="tiny" width="800" height="623" viewBox="0 0 800 623" stroke-linecap="round" stroke-linejoin="round">
<g id="ne_10m_admin_1_states_provinces">
<path d="M 753.32 41.6 753.39 41.91 764.25 62.7 778.5 89.24 783.26 108 784.76 115.52 788.66 120.93 790.68 127.82 790.58 138.53 789.34 142.82 785.24 149.9 784.62 153.29 786.13 156.78 791.92 164.36 793.18 169.57 799 313 796.6 330.17 787.43 368.95 787.47 385.62 784.64 392.62 784.65 441.79 783.51 447.61 776.23 465.12 770.46 511.7 764.48 530.53 749.82 544.97 746.19 546.26 735.37 548.55 721.46 558.12 711.33 561.05 704.99 568.5 701.56 570.17 698.2 572.92 697.15 578.95 697.27 588.25 695.15 593.81 653.04 582 648.63 579.38 617.49 567.29 610.84 562.5 606.29 557.41 604.23 553.29 601.14 551.02 598.7 551.37 595.06 555.67 594.29 560.79 595.01 566.58 597.26 574.16 598.51 580.31 596.29 584.65 582.54 593.88 574.98 602.35 571.44 607.64 567.27 611.2 560.63 619.44 555.53 622 547.27 620.71 529.07 609.38 517.12 598.63 506.91 587.59 495.81 578.2 486.27 567.76 478.02 561.34 457.39 551.14 459.05 541.5 456.49 516.5 455.15 511.33 454.8 510.77 454.28 510.25 452.71 509.11 444.98 504.82 441.47 500.52 439.54 494.8 438.22 488.2 435.76 483.15 432.09 479.94 426.73 476.41 405.63 459.01 399.17 454.82 340.07 436.44 322.6 434.03 309.44 436.2 298.99 440.7 282.32 453.69 268.95 466.39 257.6 466.91 250.37 468.38 220.99 480.58 148.69 520.98 128.82 527.12 121.5 530.48 105.1 546.63 84.36 558.51 47.16 548.57 36.69 548.05 28.03 545.35 24.21 542.88 23.18 534.31 28.61 525.87 30.84 505.17 34.46 490.95 35.16 484.83 33.1 457.69 33.34 444.52 34.2 437.39 33.85 431.63 32.17 426.62 23.64 407.31 21.28 403.76 17.34 403.57 14.1 404.91 10.29 404.89 7.87 401.39 2.54 391.96 1 385.47 3.08 377.63 15.45 355.23 17.94 348.35 24.55 317.76 24.68 311.01 22.97 304.5 20.32 299.04 16.82 294.09 16.06 289.08 16.9 283.96 19.98 278.08 25.68 271.95 32.89 269.02 48.85 269.1 75.32 262.19 81.54 262.01 94.3 264.06 98.68 262.85 104.75 248.34 108.48 244.29 115.14 240.6 135.21 242.06 140.77 241.6 150.29 238.95 155.62 238.28 167.41 241.17 171.68 239.84 172.82 233.69 171.83 209.88 170.55 202.34 168.36 196.28 166.15 191.57 164.96 188.29 164 182.97 165.72 177.33 170.4 170.01 190.65 148.02 220.84 104.3 229.38 95.67 246.03 74.71 262.86 77.02 267.56 80.88 273.65 82.82 280.25 82.78 288.36 79.97 298.67 79.91 310.4 83.4 315.35 83.91 321.38 82.19 326.56 78.82 333.18 80.46 338.66 86.69 346.88 101.08 352.57 106.94 357.29 109.88 360.92 111.11 364.44 111.12 376.53 109.74 381.9 110.4 386.88 112.47 391.46 116.09 400.56 125.77 404.9 128.3 410.39 128.38 416.34 126.19 423.89 120.09 429.12 118.12 433.68 117.76 437.73 119.23 442.02 120.02 446.58 120.29 451.28 119.22 454.75 117.8 458.24 115.67 471.03 104.35 474.46 98.26 476.43 88.21 473.76 71.51 473.09 49.66 474.2 31.46 475.56 21.33 475.35 1 496.67 10.9 510.2 10.81 525.91 6.97 531.88 6.49 548.04 12.75 554.06 16.68 558.71 22.25 565.42 33.81 570.84 38.32 575.19 39.3 578.98 39.29 603.12 34.08 619.65 38.94 626.98 43.04 635.23 44.99 642.75 50.6 646.85 57.21 648.32 64.05 647.48 76.28 648.2 80.63 650.07 84.96 653.16 89.71 669.22 101.24 682.26 104.8 688.51 104.72 690.88 102.06 686.9 97.65 688.14 96.48 707.82 96.3 714.68 93.92 718.2 89.75 719.51 83.79 720.58 68.94 720.59 64.04 719.56 53.37 720.48 48.85 724.58 45.15 730.11 42.69 750.61 41.61 753.32 41.6 Z"/>
</g>
</svg>