<?xml version="1.0"?>
<svg xmlns="http://www.w3.org/2000/svg" version="1.2" baseProfile="tiny" width="800" height="970" viewBox="0 0 800 970" stroke-linecap="round" stroke-linejoin="round">
<g id="ne_10m_admin_1_states_provinces">
<path d="M 50.06 243.1 90.43 219.99 122.36 188.58 136.61 182.06 175.29 170.11 316.05 91.54 373.24 67.81 387.31 64.96 409.42 63.94 435.45 39.23 467.9 13.98 488.24 5.23 513.86 1 547.86 5.69 662.92 41.43 675.51 49.58 716.57 83.42 727 90.3 734.16 96.53 738.94 106.36 741.52 119.2 745.26 130.33 752.11 138.69 767.15 147.03 770.21 149.24 771.22 150.26 771.9 151.35 774.51 161.4 779.5 210.02 776.27 228.77 778.22 258.21 782.54 278.73 783.56 295.71 783.16 314.2 786.92 347.66 785.98 397.22 789.3 415.2 799 441.24 792.75 451.11 778.54 459.94 766.58 471.07 760.74 483.6 761.11 500.82 767.58 538.88 773.39 623.57 771.34 648.75 766.73 666.45 750.25 690.42 741.72 707.8 725.34 753.36 716.19 766.96 705.23 776.2 694.37 777.73 669.5 772.29 646.31 776.62 619.9 784.88 606.84 794.99 585.84 803.56 576.41 803.97 569.35 803.39 554.15 799.77 545.14 801.4 535.28 805.85 496.42 842.02 485.8 859.67 476.19 863.87 468.77 864.53 455.6 863.55 440.29 868.77 420.74 889.07 411.51 903.43 399.04 928.36 390.76 935.73 360.66 951.95 324.99 965.39 302.42 969 295 968.63 283.3 966.42 270.9 942.97 243.74 915.13 229.85 907 158.49 891.24 141.43 890.18 129.63 892.2 118.4 896.31 106.42 896.49 92.46 885.32 73.82 863.12 66.12 852.06 59.87 839.1 35.45 813.36 27.11 802.41 23.03 792.05 21.66 781.14 22.87 771.16 25.57 764.12 29.17 757.69 38.56 744.34 44.62 737.09 57.64 715.1 62.21 699.5 68.5 683.11 70.56 670.37 74.1 659.15 79.3 649.28 86.68 639.08 90.68 631.16 92.86 624.17 99.87 613.09 109.58 605.08 114.64 594.86 117.41 583.38 116.17 569.74 107.99 560.16 97.74 554.49 48.24 547.3 40.05 543.99 29.86 537.99 5.83 520.28 1 507.23 2.29 492.64 7.23 474.8 18.46 445.83 22.67 430.81 22.05 392.43 25.36 379.61 33.44 367.93 41.84 358.07 48.05 347.78 54.23 339.74 56.26 333.57 55.85 324.54 49.72 317.76 41.5 310.38 32.22 297.71 30.12 285.97 33.53 274 50.06 243.1 Z"/>
</g>
</svg>