<?xml version="1.0"?>
<svg xmlns="http://www.w3.org/2000/svg" version="1.2" baseProfile="tiny" width="800" height="815" viewBox="0 0 800 815" stroke-linecap="round" stroke-linejoin="round">
<g id="ne_10m_admin_1_states_provinces">
<path d="M 525.33 74.05 526.81 86.44 532.33 90 544.86 93.91 559.99 94.66 613.77 109.01 601.49 131.97 598.96 140.87 600.52 149.59 607.41 159 613.51 164.49 618.07 169.53 618.37 176.23 616.86 180.81 612.27 186.79 607.66 194.44 601.43 201.76 595.42 210.44 592.97 219.96 593.43 248.48 590.3 259.63 581.97 281.16 578.29 294.42 577.34 305.25 580.93 314.94 598.76 328.11 606.34 332.57 612.41 335.02 649.17 340.36 656.78 344.58 662.85 351.7 663.77 361.83 661.72 370.36 657.96 377.95 650.75 383.9 645.54 392.14 643.93 397.33 640.96 403.21 635.47 410.79 631.62 418.12 628.99 426.46 627.46 435.92 622.78 448.1 619.4 459.69 609.73 476.03 605.23 481.41 598.25 491.33 595.58 496.11 593.58 501.34 592.68 508.75 593.69 516.86 596.72 524.56 602.92 532.69 621.05 551.82 625.69 561.44 631.4 569.66 645.25 586.16 655.61 594.45 664.51 594.32 672.85 591.27 681.61 589.76 694.27 590.55 747.26 602.26 757.58 608.3 777.74 628.99 786.95 646.41 799 685.53 759.59 664.15 730.63 654.91 700.35 653.03 674.68 663.92 657.03 649.68 637.55 637.57 616.68 629 570.72 623.82 526.38 612.36 505.68 602.6 502.04 600.1 492.68 599.33 468.34 589.52 452.12 589.01 449.85 590.58 438.03 605.44 412.45 645.12 409.03 652.59 407.58 660.92 407.4 669.58 406.21 680.77 401.72 689.16 391.91 696.43 353.67 709.24 291.74 737.29 244.18 764.98 232.67 767.01 224.17 770.63 218.26 776.09 214.56 781.95 212.26 789.71 212.14 790.62 211.93 791.48 202.03 805.41 192.19 814 147.64 776.58 139.62 765.67 138.19 757.17 140.11 749.72 140.89 741.57 139.46 724.92 140.62 709.09 140.45 700.35 133.7 693.34 126.01 687.67 117.47 679.05 114.48 671.42 113.37 662.1 118.06 659.11 128.64 659.19 133.5 654.39 136.45 646.69 136.8 632.46 131.26 615.47 127.76 593.97 127.09 582.28 130.85 575.33 142.64 567.18 149.38 559.95 154.38 552 156.36 541.91 154.59 535.47 153.92 531.48 151.92 495.83 146.76 483.21 138.42 474.28 127.88 470.02 118.8 468.64 109.59 469.04 101.09 471.48 84.57 478.53 75.33 479.85 64.52 478.76 53.55 482.49 45.2 482.69 37.68 480.41 19.62 465.84 7.78 453.4 2.96 442.58 1 427.71 2.66 416.03 6.04 401.13 16.3 368.65 20.36 349.73 24.65 341.89 29.67 334.31 32.9 327.93 35.41 321.37 37.34 313.63 41.12 308.13 47.63 304.11 70.82 298.93 76.89 293.51 80.15 285.68 79.15 274.2 80.89 265.84 86.09 260.75 92.85 258.14 107.47 254.22 130.87 252.17 145.57 248.74 151.93 244.23 161.87 240.21 181.29 236.14 192.87 231.45 219.77 217.92 232.87 219.57 248.32 217.84 263.91 212.35 272.7 204.88 276.62 196.4 282.13 177.72 291.03 172.38 324.13 161 332.39 153.83 336.99 148.61 339.9 128.7 341.58 121.74 346.66 115.99 367.4 110.07 371.23 104.62 370.95 95.59 368.51 85.04 369.57 61.97 372.59 54.34 378.06 50.96 414.89 40.24 427.56 31.52 429.22 29.81 433.34 23.73 439.22 10.42 444.13 2.89 451.49 1 459.13 3.96 463.81 9.14 466.22 12.49 471.09 21.12 473.86 25.21 477.98 28.77 481.45 31.06 482.3 31.51 487.26 35.64 490.3 40.76 496.68 62.36 502.93 67.16 510.45 68.97 516.9 69.82 525.33 74.05 Z"/>
</g>
</svg>