<?xml version="1.0"?>
<svg xmlns="http://www.w3.org/2000/svg" version="1.2" baseProfile="tiny" width="800" height="441" viewBox="0 0 800 441" stroke-linecap="round" stroke-linejoin="round">
<g id="ne_10m_admin_1_states_provinces">
<path d="M 665.79 106.49 669.03 116.16 673.27 128.92 690.21 151.89 698.98 159.57 705.35 163.28 718.45 167.92 740.44 203.94 747.42 218.98 769.77 286.96 775.1 299.57 787.96 318.23 793.75 328.28 797.18 344.58 799 360.48 790.91 420.77 750.55 410.07 718.79 405.55 706.71 408.64 700.22 412.1 693.75 419.57 689.23 420.94 683.38 421.51 639.21 419.68 628.6 422.97 621.25 427.48 613.33 434.44 566.9 440 562.35 433.5 560.76 426.73 558.53 420.46 554.34 418.08 548 417.9 538.03 420.94 520.4 431.08 510.41 435.12 497.88 438.37 482.31 438.34 463.97 435.58 399.94 395.04 387.79 389.08 244.58 349.54 234.76 344.53 213.3 328.65 206.75 327.2 199.75 329 171.64 344.02 150.77 362.4 114.16 359.62 88.19 352.61 65.91 343.3 10.95 308.19 1 263.33 2.34 246.88 13.1 237.49 23.93 222.27 24.16 221.33 24.29 220.33 26.8 211.86 30.85 205.45 37.31 199.48 46.6 195.52 59.19 193.3 111.19 163.05 178.9 132.39 220.71 118.39 231.43 110.44 236.34 101.27 237.64 89.05 237.83 79.59 239.42 70.48 243.16 62.32 271.13 18.96 284.05 2.72 286.53 1 304.27 1.56 330.88 12.28 341.12 13.12 345.09 15.86 367.72 26.51 416.2 39.05 466.46 44.7 489.28 54.07 510.57 67.31 529.87 82.87 557.94 70.97 591.05 73.02 622.71 83.12 665.79 106.49 Z"/>
</g>
</svg>