<?xml version="1.0"?>
<svg xmlns="http://www.w3.org/2000/svg" version="1.2" baseProfile="tiny" width="800" height="1017" viewBox="0 0 800 1017" stroke-linecap="round" stroke-linejoin="round">
<g id="ne_10m_admin_1_states_provinces">
<path d="M 785.05 302.6 788.92 304.11 795.42 307.9 799 315.39 791.51 335.81 785.83 343.51 776.15 337.08 771.51 329.23 763.18 320.97 745.54 324.89 722.9 335.43 687.75 347.84 684.61 333.84 645.88 342.44 600.26 373.7 520.82 447.33 478.14 511.86 451.34 605.95 464.52 650.79 470.06 674.64 463.49 710.45 459.6 742.59 456.19 764.49 444.4 781.81 424.18 778.11 411.02 797.56 413.09 810.84 404.32 821.06 391.73 818.39 385.47 806.96 374.47 819.48 356.43 817.08 345.02 836.07 318.69 833.67 287.26 830.75 272.53 826.7 252.1 848.04 248.3 866.79 230.28 880.8 216.18 881.01 191.72 898.34 170.22 913.54 162.76 924.63 158.58 939.47 150.81 951.63 151.07 965.97 149.13 981.8 142.12 992.79 135.42 1000.74 123.53 1010.32 105.37 1013.86 92.71 1015.18 84.04 1012.14 73.5 1013.99 64.49 1016 61.03 1011.91 49.67 1005.4 51.87 997.47 50.74 985.8 42.09 978.29 19.55 968.91 4.13 966.87 1 959.57 1.36 950.05 10.23 949.57 23.16 951.66 30.81 952.44 40.79 950.23 49.28 945.86 54.08 938.33 63.42 937.74 76.36 941.5 81.23 938.34 84.48 930.82 83 918.77 74.79 912.24 60.59 906.55 59.88 897.79 68.15 889.81 70.67 880.22 69.23 870.48 62.81 854.07 61.31 844.64 62.13 813.76 50.03 794.31 52.38 783.21 50.64 770.77 54.43 758.77 73.88 745.58 83.27 737.58 84.32 718.59 71.88 696.51 72.81 677.75 43.91 667.15 25.7 659.45 24.93 656.11 39.84 656.9 55.43 647.57 55.98 631.59 66.01 621.15 70.43 606.66 104.08 617.38 114.86 605.01 114.6 593.32 109.83 566.79 118.88 557.15 138.6 550.42 151.32 538.78 167.98 536.84 184.65 524.32 194.83 509.14 210.01 489.89 231.63 465.09 244.45 466.94 249.94 454.55 253 444.46 241.82 444.6 239.79 428.43 237.53 412.94 226.56 402.73 215.31 389.35 205.06 380.47 188.43 364.17 179.17 366.72 170.74 356.35 147.49 352.71 126.44 361.53 139.57 383.32 120.14 394.12 109.59 402.35 105.44 394.79 97.23 393.02 91.3 387.6 86.66 386.88 95.88 362.26 98.94 351.46 102.54 330.59 87.91 261.31 96.22 199.3 94.35 182.95 90.82 166.18 84.87 155.85 71.65 136.65 66.17 123.68 43.19 53.75 36.02 38.29 13.41 1.23 26.61 1 40.47 5.66 50.09 3.2 91.58 66.22 137.33 124 163.15 145.39 272.96 197.61 302.57 206.67 316.48 207.9 407.69 201.91 425.65 197.94 441.33 178.27 458.86 172.83 506.89 166.63 569.83 170.28 582.53 174.4 621.64 200.5 653.17 210.95 668.48 218.7 681.14 229.87 712.22 269.25 727.17 284.01 742.68 295.3 760.73 302.55 783.43 305.12 785.05 302.6 Z"/>
</g>
</svg>