<?xml version="1.0"?>
<svg xmlns="http://www.w3.org/2000/svg" version="1.2" baseProfile="tiny" width="800" height="685" viewBox="0 0 800 685" stroke-linecap="round" stroke-linejoin="round">
<g id="ne_10m_admin_1_states_provinces">
<path d="M 45.71 16.1 45.05 15.77 44.71 16.27 44.41 17.11 43.78 16.61 43.62 15.72 42.98 15.71 42.65 16.85 42.11 17.74 41.43 16.89 41.49 15.52 41 14.79 40.65 16.07 41.13 17.86 41.88 19.07 41.88 19.79 42.53 21.45 41.94 22.19 41.99 23.01 41.92 23.11 41.82 23.09 37.69 21.5 36.28 20.49 36.02 20.24 35.66 19.95 30.18 17.03 29.61 16.94 28.96 17.09 28.43 17.3 28.08 17.57 27.89 17.94 27.7 18.21 27.32 18.27 26.47 17.79 26.11 17.87 26.05 18.16 26.34 18.55 27.53 19.73 27.76 20.15 27.74 20.39 27.55 20.68 27.09 20.65 26.89 21.13 27 23.1 26.95 23.65 26.88 23.95 26.78 24.16 26.63 24.22 26.43 24.16 26.19 23.97 24.69 21.91 24.28 21.2 23.42 20.22 22.39 19.59 20.71 19.19 18.6 19.03 17.11 18.6 16.11 18.03 14.16 16.12 13.16 15.65 11.49 14.53 10.28 14.27 6.22 11.71 4.21 9.55 3.64 8.7 3.2 7.83 2.11 4.59 1 3.46 2.46 2.18 4.43 1.13 4.92 1 5.38 1.1 6.88 2.21 7.56 2.56 17.59 5.33 18.44 5.75 22.92 8.59 24.2 8.78 25.29 8.78 26.17 8.56 26.87 8.27 28.1 7.56 28.8 7.35 29.24 7.36 29.54 7.53 29.69 7.97 29.8 8.44 30.12 8.9 33.37 8.51 33.93 8.02 34.44 7.71 35.18 7.48 38.27 7.6 38.68 7.56 39 7.47 39.45 6.94 39.91 6.7 40.75 6.49 42.97 6.8 45.8 7.55 46.79 12.27 46.55 13.69 46.34 14.42 45.71 16.1 Z M 119.03 650.28 119.44 650.97 119.01 651.23 118.23 651.3 117.58 651.48 117.04 652.1 116.1 653.52 115.4 653.95 115.41 652.01 115.56 651.21 115.92 650.51 116.57 650.16 117.56 650.02 118.51 650.08 119.03 650.28 Z M 162.59 541.55 161.98 541.66 161.67 541.99 161.65 542.49 161.93 543.15 160.85 542.39 159.74 540.62 158.26 537.2 158.59 537.16 158.84 537.24 159.34 537.55 159.55 538.03 159.94 538.29 160.48 538.38 161.13 538.33 161.13 538.73 160.53 539.21 160.6 539.63 161.14 539.91 161.9 539.92 161.9 540.36 161.66 540.55 161.62 540.66 161.63 540.8 161.51 541.12 161.99 540.91 162.22 540.86 162.38 541.06 162.59 541.55 Z M 162.35 515.5 163.04 515.18 163.79 515.1 164.44 515.33 164.86 515.91 164.54 517.92 163.7 518.49 162.65 517.88 161.68 516.31 163.47 517.13 163.27 516.6 163 516.13 162.68 515.75 162.35 515.5 Z M 40.48 162.13 41.56 162.82 42.82 163.25 43.97 163.83 44.7 164.97 44.29 165.68 43.09 167.34 42.62 167.75 41.89 167.71 41 167.28 40.26 166.63 39.72 165.36 38.12 163.08 37.95 162.23 38.51 161.53 39.34 161.27 40.48 162.13 Z M 26.31 107.8 26.7 105.93 28.13 104.81 29.73 104.76 30.62 106.15 29.92 108.01 28.6 109.19 27.22 109.27 26.31 107.8 Z M 16.1 88.02 16.55 87.63 17.14 86.95 17.6 86.76 17.66 87.83 17.33 89.68 16.67 91.49 15.9 92.3 15.23 91.2 15.29 90.49 15.85 88.44 16.1 88.02 Z M 23.62 65.62 24.55 66.15 25.13 67.05 25.44 68.2 25.5 69.5 25.45 70.97 25.24 71.61 24.71 71.73 23.69 71.68 20.7 70.17 20.32 69.12 20.41 66.35 20.65 64.61 22.78 65.15 23.62 65.62 Z M 93.16 508.4 93.06 507.49 93.39 507.24 93.59 507.56 93.16 508.4 Z M 124.21 683.4 124.6 683.11 125.12 683.17 125.17 683.58 125.02 683.9 124.76 684 124.36 683.78 124.21 683.4 Z M 798.32 646.6 798.74 646.22 799 646.45 798.94 646.94 798.65 647 798.3 646.89 798.32 646.6 Z M 115.2 613.6 114.52 613.05 114.3 612.27 114.53 611.65 115.24 611.56 115.73 611.98 115.84 612.6 115.64 613.2 115.2 613.6 Z M 162.11 512.36 161.84 511.61 161.89 510.69 162.18 510.04 162.68 510.15 162.87 510.7 162.76 511.35 162.46 511.96 162.11 512.36 Z M 162.18 485.85 161.34 485.07 161.53 484.67 162.04 484.85 162.18 485.85 Z M 156.14 479.02 156.04 478.42 156.22 478.26 156.37 478.48 156.14 479.02 Z M 64.91 316.99 65.39 317 65.83 317.35 65.46 317.91 64.84 318.02 64.6 317.6 64.59 317.28 64.91 316.99 Z M 52.01 261.23 52.06 261.12 52.12 261.22 52.01 261.23 Z M 51.9 261.17 51.91 261.03 52 261.15 51.92 261.23 51.9 261.17 Z M 38.3 202.07 38.35 201.01 39.16 202.74 38.3 202.07 Z M 16.76 131.68 16.62 131.62 16.76 131.65 16.76 131.68 Z M 32.78 118.14 33.1 118.96 33.06 119.31 32.76 119.83 32.14 120.05 31.36 119.93 30.74 119.46 30.68 118.42 31.31 117.52 32.15 117.5 32.6 117.87 32.78 118.14 Z M 797.85 645.51 797.24 646.53 796.44 645.47 797.12 645.14 797.85 645.51 Z M 157.41 478.42 157.6 478.26 157.75 478.48 157.53 479.02 157.41 478.42 Z" fill-rule="evenodd"/>
</g>
</svg>