<?xml version="1.0"?>
<svg xmlns="http://www.w3.org/2000/svg" version="1.2" baseProfile="tiny" width="800" height="590" viewBox="0 0 800 590" stroke-linecap="round" stroke-linejoin="round">
<g id="ne_10m_admin_1_states_provinces">
<path d="M 799 166.61 791.65 177.13 760.89 196 733.27 217.11 710.01 220.78 690.97 213.04 677.22 216.53 668.7 227.73 686.46 236.51 702.79 245.61 708.85 252.5 703.85 267.1 707.91 287.01 696.87 286.73 674.95 275.77 662.06 285.37 667.56 299.88 680.95 312.63 678.05 353.83 673.4 367.78 673.67 385.64 671.79 399.3 679.85 411.75 686.22 398.52 697.36 406.62 712.58 431.82 748.55 436.17 758.42 454.1 740.63 471.06 743.65 475.47 745.07 479.24 746.19 482.91 742.15 499.84 706.87 497.13 686.53 513.58 681.02 530.68 689.75 550.82 698.4 562.32 702.52 572.41 693.44 576.67 683.73 578.32 663.26 572.78 648.56 581.19 640.44 578.64 636.21 569.84 640.53 558.22 639.27 534.7 628.43 504.07 648.53 493.62 645.02 484.66 631.05 479.53 625.22 463.6 600.41 430.15 597.61 422.2 592.77 410.22 581.84 408.98 578.26 387.01 562.36 393.2 544.47 390.59 526.42 394.32 508.88 380.01 462.17 373.25 385.63 387.72 342.33 396.06 298.34 407.22 253.07 430.6 218.69 460.73 214.46 516.82 227.56 569.25 194.25 553.5 169.83 589 150.57 580.55 131.74 575.94 111.03 568.02 102.68 561.7 96.51 555.39 87.95 543.15 71.66 515.17 62.84 490.9 58.94 463.06 61.2 441.7 67.32 428.76 82.31 412.39 86.67 403.8 88.79 397.49 89.03 385.59 87.85 372.89 83.76 350.04 80.88 340.46 79.35 333.74 78.12 325.26 79.17 305.95 78.5 297.88 68.13 291.58 58.88 289.52 1 296.5 6.62 274.79 31.86 235.57 48.95 222.06 65.46 213.41 84.26 206.22 165.5 163.78 175.15 154.02 182.76 141.38 189.35 126.57 199.48 76.83 200.73 62.48 197.95 26.31 205.66 1 228.48 5.8 259.8 26.77 278.53 35.59 315.02 71.4 333.73 82.19 361.71 90.19 401.32 93.14 432.83 100.75 452.19 112.55 468.16 130.86 475.88 144.08 504.1 182.85 508.5 186.37 512.38 187.43 515.18 186.25 517 182.43 518.39 176.75 519.24 166.5 517.17 129.48 521.02 120.58 529.54 121.08 533.05 115.61 533.58 111.11 529.25 103.33 506.95 81.16 501.36 73.87 502.56 68.36 509.39 66.88 525.23 75.97 532.33 74.89 535.89 69.67 539.51 62.81 546.07 57.84 555.9 53.74 568.17 51.03 578.93 52.75 681.62 107.39 688.4 112.84 693.25 117.46 719.68 136.47 797.12 166.31 799 166.61 Z"/>
</g>
</svg>