<?xml version="1.0"?>
<svg xmlns="http://www.w3.org/2000/svg" version="1.2" baseProfile="tiny" width="800" height="789" viewBox="0 0 800 789" stroke-linecap="round" stroke-linejoin="round">
<g id="ne_10m_admin_1_states_provinces">
<path d="M 1 669.95 25.29 665.17 69.49 647.94 101.12 637.3 137.81 615.05 156.97 607.31 165.44 598.99 172.95 589.89 196.24 594.69 211.21 591.85 224.66 585.86 253.29 566.01 293.64 527.32 333.75 503.94 343.57 493.27 350.5 479.28 359.93 461.03 373.39 440.86 394.19 423.7 404.38 409.94 411.39 393.57 427.9 338.81 434.37 322.99 445.31 309.88 470.97 289.86 516.47 259.78 519.43 255.84 527.43 256.2 541.7 254.66 570.84 241.63 578.94 236.01 601.89 219.48 638.34 180.78 644.38 172.42 647.01 164.65 658.78 74.84 662.72 58.5 669.84 40.4 683.03 17.07 689.72 1 689.79 1.02 694.37 2.28 725.39 16.94 734.6 19.53 739.2 21.68 741.94 23.91 741.73 27.3 741.1 30.97 740.76 35.72 741.04 42.54 739.54 58.35 740.93 65.66 743.9 70.59 748.04 75.3 752.43 79.34 757.34 83.09 762.12 85.3 771.99 84.64 776.8 85.61 790.77 96.38 793.72 99.83 796.07 103.33 798.4 109.33 799 115.81 796.29 124.6 793.34 130.55 789.54 135.38 776.89 144.99 771.88 147.81 766.52 149.21 758.69 149.53 745.22 148.33 740.08 148.62 735.17 151.63 732.25 157.92 726.5 208.39 719.38 221.66 718.37 226.92 718.91 239.21 718.79 239.68 715.71 248.56 714.74 253.02 713.58 263.55 710.14 273.72 709.15 279.12 709.75 285.16 713.68 292.43 721.49 301.46 733.28 308.59 745.73 318.64 731.98 335.94 724.93 343.06 700 379.16 683.28 397.32 679.41 403.36 677.99 408.01 678.79 412.41 679.77 415.11 681.6 419 683.41 424 684.46 430.23 685.27 449.89 684.33 454.97 680.81 456.07 671.08 453.68 666.68 454.23 658.82 456.42 654.22 456.79 637.65 455.59 632.15 458.64 629.07 461.98 624.06 473.96 620.44 474.96 609.9 473.27 604.77 473.42 582.91 479.12 569.73 479.06 563.78 481.47 559.07 486.54 556.53 491.39 555.83 495.61 556.46 499.75 559.35 503.84 561.54 508.34 562.95 513.72 562.84 519.29 557.38 544.55 555.33 550.23 545.11 568.72 543.4 575.19 544.67 580.55 549.07 588.34 551.07 591.22 554.22 591.24 556.89 590.14 560.14 590.29 562.09 593.22 569.13 609.17 570.52 613.31 570.81 618.06 570.11 623.94 569.9 634.81 571.61 657.22 571.02 662.27 568.04 674.01 566.2 691.1 561.72 698.07 556.9 695.65 553.21 695.16 548.92 694.13 545.35 691.39 541.71 679.05 539.97 676.12 537.14 673.76 536.65 673.51 534.67 672.2 532.31 670.17 530.73 667.83 527.95 662.9 526.57 660.98 523.9 658.02 519.53 656.33 515.33 657.41 512.52 661.72 509.16 669.32 506.81 672.8 505.87 673.77 498.63 678.75 477.58 684.87 474.46 686.81 472.74 691.17 472.13 704.35 473.52 710.38 473.69 715.53 471.5 718.65 459.65 722.03 456.75 725.31 455.79 729.29 454.12 740.67 451.5 743.65 446.78 747.75 427.87 754.25 422.79 757.3 419.64 767.97 417.4 772.82 412.38 777.08 403.47 780.22 394.65 781.21 387.16 780.27 371.79 788 367.67 773.65 369.28 747.73 368.44 741.92 365.37 735.66 362.08 732.04 347.15 719.24 339.3 709.39 336.98 703.02 332.45 673.91 331.11 668.9 330.36 668.25 324.42 664.62 318.68 662.93 311.81 661.95 305.38 662.31 285.21 667.24 270.24 673.61 264.41 677.28 259.82 682.14 248.99 699.52 239.6 703.91 235.68 706.98 232.5 712.3 231 717.18 229.59 728.38 227.13 731.61 222.97 732.44 216.78 729.03 212.75 727.74 210.21 727.21 207.62 728.04 197.03 733.56 191.91 735.43 185.54 736.38 169.51 736.62 164.18 737.47 159.95 740.2 154.29 747.11 149.38 748.38 138.3 739.91 136.78 737.31 136.25 734.15 137.88 723.34 137.7 718.63 136.8 714.85 134.45 711.5 131.33 708.53 125.8 705.44 120.72 704.25 115.08 703.63 110.56 701.78 104.66 698.38 99.97 696.96 94.98 696.35 91.63 696.77 89.32 697.43 86.38 699.04 83.73 701.65 82.09 705.2 81.64 708.91 82.08 717.12 80.27 722.46 77.22 728.19 63.88 747.29 59.12 751.13 54.6 753.99 39.41 758.97 28.17 698.55 24.79 692.33 20.41 688.22 8.62 680.92 1.67 672.56 1 669.95 Z M 310.09 200.59 322.29 202.21 338.34 198.36 350.21 199.74 349.76 216.87 346.34 224.99 331.37 247.74 327.27 255.78 322.43 272.33 317.41 278.73 276.41 305.16 239.55 317.41 231.9 318.15 228.25 317.37 224.87 315.27 222.34 311.99 221.45 307.66 222.75 302.94 225.71 301.32 242.54 298.29 246.45 295.73 248.22 290.23 248.79 270.57 252.72 263.5 264.24 250.94 268.49 244.51 259.27 230.85 235.89 238.47 231.01 225.52 231.29 215.22 232.6 206.14 235.13 197.76 239.14 189.63 254.09 170.01 259.8 156.2 266.54 150.34 273.25 145.78 276.33 141.15 292.37 125.15 301.75 118.81 316.51 94.33 319.56 91.62 323.54 90.46 332.04 90.42 334 92.47 333.62 97.3 328.64 126.04 320.86 152.14 305.17 186.31 302.97 194.45 302.51 203.06 304.34 208.29 307.21 208.15 310.09 200.59 Z" fill-rule="evenodd"/>
</g>
</svg>