<?xml version="1.0"?>
<svg xmlns="http://www.w3.org/2000/svg" version="1.2" baseProfile="tiny" width="800" height="731" viewBox="0 0 800 731" stroke-linecap="round" stroke-linejoin="round">
<g id="ne_10m_admin_1_states_provinces">
<path d="M 225.83 31.51 212.28 49.73 210.88 75.17 181.23 119.62 196.58 155.13 235.98 179.69 259.23 200.58 298.37 213.24 322.52 229.07 355.66 231.06 391.75 223.13 438.93 230.24 467.25 223.72 480.87 203.39 507.57 184.51 516.15 156.65 526.72 138.02 530.07 120.78 535.05 105 529.82 85.16 540.1 59.25 556.59 47.06 598.38 23.3 669.56 6.94 692.2 1 694.15 6.96 711.56 25.43 740.11 40.68 750.91 49.61 759.7 63.62 794.74 202.7 799 311.63 796.11 335.62 795.64 359.36 793.7 376.38 789.28 391.79 775.26 410.68 762.43 423.68 754.43 434.7 751.26 444.66 754.37 455.55 755.92 465.21 751.67 477.74 740.46 493.11 729.84 517.42 718.51 552.37 712.68 563.64 704.51 573.86 680.3 593.62 668.26 612.46 635.7 602.29 595.02 584.72 542.58 577.19 520.89 569.28 495.32 555.82 481.83 553.2 471.44 556.96 463.43 564.35 454.45 570.37 444.02 573.05 437.15 569.23 435.69 563.06 436.3 556.67 437.96 549.19 435 542.98 427.93 541.67 418.02 544.17 365.69 566.93 355.41 566.4 345.64 564.22 333.38 559.57 320.78 564.07 310.09 571.96 268.79 620.07 257.07 630.35 246.72 637.19 240.58 643.09 236.62 649.51 234.75 660.18 231.89 670.34 225.13 681.72 217.03 688.03 207.54 693.61 202.09 698.5 184.84 719.42 169.25 730 159.51 727.37 156.53 719.31 160.87 699.81 160.84 691.58 157.48 683.71 149.77 676.04 138.25 669.88 119.18 665.57 104.71 665.43 79.1 660.86 68.46 666.39 61.34 675.7 56.73 689.66 54.14 701.79 50.34 710.72 43.28 716.44 36.22 717.89 16.29 713.88 8.44 683.86 9.86 670.62 15.4 644.7 14.71 627.57 10.98 612.92 5.01 601.01 1 584.54 1.24 562.73 8.49 505.16 12.62 488.52 16.73 476.26 20.13 457.21 19.24 443.7 10.34 411.27 7.77 396.2 6.79 377.71 20.63 333.43 20.94 322.77 19.48 312.8 15.33 302.12 12.72 291.52 11.45 278.19 17.02 269.44 33.32 253.63 39.24 243.28 48.94 204.41 50.87 181.35 55.05 164.54 76.03 105.4 85.37 89.5 103.37 65.38 111.85 57.67 120.14 53.2 129.95 52.19 139.23 52.52 149.47 50.21 172.58 37.65 182.49 35.49 196.59 35.72 224.36 31.68 225.83 31.51 Z"/>
</g>
</svg>