<?xml version="1.0"?>
<svg xmlns="http://www.w3.org/2000/svg" version="1.2" baseProfile="tiny" width="800" height="1332" viewBox="0 0 800 1332" stroke-linecap="round" stroke-linejoin="round">
<g id="ne_10m_admin_1_states_provinces">
<path d="M 1 1135.86 38.38 1102.27 52.45 1079.71 87.39 1062.57 112.89 1039.48 147.15 1001.7 296.04 792.35 330.98 730.36 379.96 603.72 383.32 586.63 382.79 565.16 377.48 559.94 371.71 554.27 372.68 545.54 378.88 530.15 383.22 504.33 377.35 487.26 364.42 475.54 356.12 444.86 347.99 438.4 346.18 419.3 351.35 373.9 346.94 360.09 337.89 353.21 330.63 355.39 329.26 365.53 314.97 364.85 310.32 353.63 312.95 330.63 317.99 309.32 323.79 294.86 334.47 282.75 328.72 272.7 339.28 262.14 348.59 245.26 353.41 231.34 346.9 220.23 344.36 195.23 363.61 165.55 388.23 150.72 429.7 126.85 457.26 118.7 473.71 127.06 496.13 125.59 574.19 80.33 593.21 75.33 607.01 57.36 622.84 43.41 723.56 7.9 752.22 1 784.96 13.15 792.3 22.86 787.6 40.47 789 50.92 799 58.22 797.26 70.37 793.9 77.22 775.35 83.59 762.92 83.26 748.1 80.77 734.52 86.94 724.26 93.83 719.13 107.95 713.67 138.39 722.42 158.54 735.82 160.18 734.62 173.96 732.9 186.39 728.3 196.21 715.55 208.71 710.41 217.44 695.27 216.99 663.8 210.7 623.28 227.26 612.33 247.38 597.28 268.64 597.21 286.16 585.65 294.03 570.31 299.32 566.29 311.38 557.22 317.41 532.58 307.49 517.98 298.02 507.48 289.38 514.81 279.43 517.28 273.4 510.89 273.74 504.41 282.66 496.29 285.61 493.63 292.95 486.75 306.88 469.95 329.61 461.56 356.02 472.78 360.52 471.41 379.78 467.59 386.35 453.84 386.09 453.82 405.71 448.86 416.9 458.9 423.12 472.27 419.78 487.17 411.06 501.17 413.12 523.04 437.93 535.31 442.07 552.35 433.98 566.22 397.73 576.44 390.84 582.6 394.31 587.9 411.3 585.31 462.55 590.44 512.99 583.41 522.45 582.11 522.6 557.63 526.17 545.2 525.96 536.47 527.87 516.1 538.94 507.08 540.98 498.9 540.68 490.26 541.58 482.95 545.51 475.47 552.31 459.61 573.57 451.37 587.59 432.88 639.72 429.2 654.53 427.5 674.86 418.95 709.12 413.74 718.24 399.37 732.18 394.46 739.9 395.58 751.64 397.88 760.99 401.54 770.41 402.83 779.19 402.55 788.59 390.35 827.61 391.21 843.92 393.48 857.2 401.32 885.78 402.11 897.69 399.12 914.49 395.49 925.29 391.85 939.96 385.46 990.71 385.25 1009.93 388.78 1024.44 394.05 1034.95 397.33 1047.86 397.94 1062.96 393.06 1085.8 391.81 1097.47 398.72 1123.94 407.05 1140.87 412.6 1147.95 428.52 1163.86 431.39 1174.43 428.07 1188.11 393.07 1241.38 387.27 1253.99 381.38 1291.43 364.08 1319.96 317.07 1331 303.11 1328.77 292.65 1321.49 265.75 1291.74 250.48 1278.04 226.01 1263.7 198.12 1258.83 174.67 1258.31 164.63 1260.39 155.08 1264.5 141.36 1264.49 113.02 1251.47 98.69 1247.98 81.82 1246.03 72.49 1242.2 64.38 1235.62 59.36 1226.34 56.2 1215.46 50.73 1189.56 47.66 1179.93 45.1 1174.18 40.29 1168.82 37.32 1166.26 13.17 1149.94 11.72 1148.14 1 1135.86 Z M 582.27 346.2 580.36 352.72 579.93 360.28 581.16 367.98 576.15 375.3 564.37 380.64 551.08 381.8 538.28 386.72 528.91 392.92 522.11 393.13 510.71 397.47 508.12 397.19 501.53 387.62 487.29 370.27 479.61 356.14 483.93 349.46 489.86 352.49 492.8 359.06 496.36 361.07 500.56 357.36 505.5 354.88 511.93 354.46 518.45 351.98 523.64 347.88 528.65 346.46 534.13 348.1 539.87 353.36 547.19 358.48 554.02 357.31 559.51 353.39 567.16 343.89 577.56 339.6 582.27 346.2 Z" fill-rule="evenodd"/>
</g>
</svg>