<?xml version="1.0"?>
<svg xmlns="http://www.w3.org/2000/svg" version="1.2" baseProfile="tiny" width="800" height="692" viewBox="0 0 800 692" stroke-linecap="round" stroke-linejoin="round">
<g id="ne_10m_admin_1_states_provinces">
<path d="M 24.09 538.31 25.13 545.38 24.1 550.12 24.31 553.55 29.77 554.84 34.07 552.5 38.21 546.92 43.74 535.1 43.96 548.18 41.77 561.1 43.21 570.95 54.15 574.81 71.06 575.42 76.42 574.69 81.96 572.31 93.46 565.69 98.58 556.99 110.01 546.01 124.17 538.37 136.45 544.38 133.53 547.78 120.14 553.58 115.97 573.86 108.62 578.94 122.18 583.43 152.5 574.85 168.83 575.53 176.79 569.71 182.78 558.9 182.58 544.65 166.53 552.84 159.26 539.77 149.26 536.02 157.67 524.29 176.65 518.09 182.32 522.6 187.17 533.44 199.58 532.78 209.56 545.98 219.26 549.16 233.23 543.64 226.84 540.8 222.49 535.39 213.73 519.62 215.31 514.45 221.86 512.66 228.06 518.53 236.4 515.54 244.96 511.41 243.05 506.13 238.86 502.34 234.75 497.02 232.75 486.97 230.33 484.15 221.89 474.35 219.27 465.35 226.04 464.42 236.47 472.22 244.09 478.43 252.41 483.51 272.35 478.58 277.06 485.3 282.79 490.14 294.56 482.63 301.16 475.06 312.99 477.03 318.55 473.74 319.1 464.27 308.37 455.91 313.87 440.9 314.48 430.29 311.88 421.66 303.89 423.48 303.44 403.52 318.34 395.09 340.53 376.53 348.8 390.19 347.55 396.06 352.11 407.21 356.92 420.67 354.15 429.51 348.27 429.46 345.45 437.17 355.1 444.82 357.63 452.96 370.32 450.62 373.42 438.25 377.35 434.49 378.6 429.98 377.93 419.96 383.56 412.15 383.63 405.34 383.67 392.05 387.59 379.98 387.22 368.57 380.47 354.56 373.58 342.81 369.85 333.49 357.03 323.62 335.38 300.61 324.26 290.54 325.17 270.42 324.43 254.02 310.41 236.8 302.46 227.48 305.74 208.18 319.76 199.54 327.15 190.51 337.29 166.49 344.82 149.67 351.89 127.93 380.22 91.28 388.62 74.07 395.85 63.49 404.21 45.56 395.03 29.92 397.75 25.04 409.82 24.11 420.17 25.45 439.94 16.49 457.22 1 465.8 10.82 466.96 12.26 486.29 25.31 488.66 27.37 492.52 31.64 494.57 36.24 497.02 43.94 501.4 64.66 503.93 73.36 507.95 80.78 514.44 86.05 521.9 89.1 535.41 90.66 546.88 93.46 569.56 103.87 580.54 103.88 588.19 100.59 596.22 98.92 614.99 99.35 637.31 103.24 656.9 114.71 669.12 125.66 690.65 149.45 699.02 155.28 710.19 157.06 747.82 148.23 750 158.9 748.97 165.16 745.32 174.17 740.56 192.19 738.54 221.83 736.64 234.06 736.43 242.86 738.15 251.41 742.07 257.78 747.34 263.07 754.03 266.53 769.29 270.42 776.45 274.71 784.22 282.69 792.35 295.2 798.27 308.78 799 319.06 794.76 327.54 787.37 335.82 779.39 351.84 773.12 356.97 755.01 357.9 745.22 359.75 731.81 364.55 720.97 365.19 700.85 361.62 687.72 361.86 626.95 375.39 619.47 379.63 616.1 385.35 613.2 391.92 608.46 391.39 596.17 382.97 588.72 381.54 581.26 381.28 572.27 381.96 563.12 380.57 542.74 373.54 534.36 372.33 526.62 373.54 519.12 377.02 512.73 382.2 507.62 389.74 499.62 425.06 480.97 461 427.85 440.52 415.96 443.4 404.73 449.05 402.59 455.02 402.91 459.27 407.59 470.72 408.31 475.22 409.05 486.85 414.43 500.02 416.34 507.45 415.79 515.5 410.16 524.93 402.4 526.43 394.72 524.77 386.79 524.8 383.48 529.97 382.91 536.16 383.45 543.98 382.88 550.62 378.36 556.67 372.52 556.12 364.19 556.81 356.67 558.56 340.14 564.97 326.04 578.59 319.02 581.65 311.71 580.72 304.61 576.7 298.62 570.01 294.49 567.13 290.28 565.95 287.21 569.67 284.62 575.76 273.23 630 269.11 639.43 264.7 646.67 259.01 653.28 253.35 654.6 246.58 653.23 238.21 649.88 224.24 651.35 213.48 657.05 180.5 685.57 148.37 691 60.39 667.15 48.27 660.62 43.3 654.48 38.61 646.96 28.24 637.22 9.32 613.59 5.96 604.29 5.59 597.27 9.38 587.65 9.42 583.9 7.11 576.9 3.62 570.66 1 563.46 2.46 557.1 8.66 550.48 14.66 545.67 22.72 541.32 24.09 538.31 Z"/>
</g>
</svg>