<?xml version="1.0"?>
<svg xmlns="http://www.w3.org/2000/svg" version="1.2" baseProfile="tiny" width="800" height="827" viewBox="0 0 800 827" stroke-linecap="round" stroke-linejoin="round">
<g id="ne_10m_admin_1_states_provinces">
<path d="M 464.32 71.55 531.85 114.71 559.23 126.16 591.13 134.78 636.13 138.2 655.61 157.9 674.81 214.83 682.54 230.13 692.41 245.11 727.77 283.04 799 327.98 791.78 351.7 794.39 385.59 793.22 399.03 783.73 445.63 777.56 459.51 770.43 471.35 761.39 480.5 685.32 520.27 667.72 527 652.25 535.1 636.26 547.76 612.62 584.51 607.36 604.86 547.55 620.3 435.72 632.07 414.97 626.06 402.49 616.62 395.14 607.31 383.83 599.62 365.37 596.6 349.24 587.49 318.97 560.66 307.96 560.84 299.82 568.21 294.23 581.25 290.09 597.09 282.89 650 273.06 686.27 270.69 724.74 272.78 751.02 274.82 763.48 274.91 775.55 273.4 783.8 271.69 789.02 268.41 794.94 263.52 801.94 254.47 811.33 241.51 821.79 229.23 826 216.93 826 206.09 823.33 196.56 817.1 179.56 799.89 167.29 790.43 160.47 776.37 154.55 760.91 143.64 699.23 135.92 684.93 123.73 676.55 103.9 673.94 86.44 676.49 68.02 681.33 54.88 677.51 46.06 670.51 42.95 659.9 42.84 649.85 43.65 639.77 42.65 628.71 39.6 616.54 40.06 604.64 48.23 578.55 50.76 562.89 48.37 536.4 49.18 526.11 55.22 505.76 57.23 494.81 56.77 450.57 53.62 432.59 41.95 393.59 38.38 363.35 36.32 353.29 22.05 336.35 10.8 315.48 3.28 287.59 1 262.75 5.84 248.06 26.41 224.51 31 213.93 27.13 203.93 17.91 194.55 12.69 182.01 13.35 172.65 45.62 108.07 53.37 100.51 61.68 100.16 79.54 111.4 90.12 110.45 97.93 104.92 105.11 97.12 149.95 20 159.79 7.77 168.87 1 178.27 1.79 200.76 8.95 225.09 21.69 232.18 28.47 235.17 36.36 235.67 43.61 235.52 54.37 237.45 64.6 244.34 72.43 255.6 74.9 299.88 64.37 310.77 64.65 331.45 69.18 344.86 70.61 355.16 73.55 362.88 79.64 367.08 88.24 370.43 99.81 377.47 108.85 385.75 113.36 395.33 114.34 404.6 113.6 419.17 108.56 464.32 71.55 Z"/>
</g>
</svg>