<?xml version="1.0"?>
<svg xmlns="http://www.w3.org/2000/svg" version="1.2" baseProfile="tiny" width="800" height="1269" viewBox="0 0 800 1269" stroke-linecap="round" stroke-linejoin="round">
<g id="ne_10m_admin_1_states_provinces">
<path d="M 792.39 203.49 781.77 207.78 763.94 211.52 754.81 215.22 748.98 219.35 735.48 222.5 714.01 224.39 700.58 227.98 694.38 230.38 689.61 235.05 688.01 242.72 688.93 253.25 685.93 260.44 680.36 265.41 659.08 270.17 653.1 273.86 649.63 278.9 647.86 286.01 645.56 292.03 642.59 297.89 637.98 304.84 634.04 312.03 630.32 329.4 620.9 359.21 617.8 372.89 616.27 383.61 618.07 397.26 622.5 407.18 633.37 418.6 649.94 431.97 656.85 434.06 664.51 433.88 674.58 430.46 684.5 431.46 692.99 430.25 708.15 423.78 715.95 421.54 724.41 421.17 732.74 422.44 742.41 426.34 750.07 434.54 754.81 446.13 756.65 478.85 757.26 482.51 758.88 488.41 757.06 497.68 752.48 504.97 746.29 511.61 735.47 519.09 732.02 525.47 732.63 536.19 735.84 555.93 740.93 571.52 740.61 584.58 737.9 591.65 733.44 596.06 723.73 595.98 719.42 598.72 720.44 607.28 723.18 614.28 731.02 622.19 738.08 627.39 744.28 633.83 744.44 641.85 743.37 656.38 744.68 671.66 743.96 679.14 742.21 685.98 743.52 693.78 750.88 703.79 791.77 738.13 790.64 751.96 799 789.63 768.15 814.91 758.2 818.35 751.87 818.85 745.32 818.19 739.66 815.11 734.85 808.93 732.56 801.03 729.69 795.15 724.42 790.99 717.38 788.99 708.22 788.01 694.09 784.92 686.65 784.73 656.4 791.92 648.7 790.23 644 784.88 642.68 777.89 642.78 770.54 642.44 765.6 640.39 760.21 635.56 755.58 618.93 746.88 603.56 741.98 597.14 741.44 590.94 746.07 584.21 754.42 553.58 807.09 548.67 812.42 543.34 816.2 536.1 816.85 523.91 809.17 518.22 809.41 512.93 814.58 490.88 858.68 490.43 865.08 494 873.64 500.3 880.05 502.94 886.88 499.81 894.1 485.76 910.19 482.45 920.22 484 937.19 489.14 956.24 496.83 970.49 491.08 984.71 487.83 998.96 484.9 1004.79 480.09 1010.13 471.65 1012.65 465.13 1016.58 460.67 1026.2 462.02 1034.7 462.31 1043.37 461.13 1052.25 458.21 1064.66 459.75 1073.02 461.68 1080.48 460.5 1087.35 455.53 1095.79 445.33 1105.21 442.92 1112.47 443.43 1119.21 447.6 1126.26 450.52 1133.17 452.1 1140.17 449.68 1149.71 443.34 1159 427.37 1172.88 416.97 1177.65 400.62 1180.94 393.79 1184.48 385.97 1192.25 380.39 1199.44 375 1203.41 368.3 1206.55 353.62 1209.31 342.18 1215.19 316.24 1235.3 304.28 1240.3 282.05 1260.97 263.11 1267.92 231.87 1265.71 192.26 1255.63 180.92 1255.03 169.89 1257.62 161.8 1262.41 154.23 1265.62 137.69 1268 130.15 1267.96 124.55 1264.28 119.22 1257.9 110.35 1232.81 116.43 1209.7 126.29 1188.21 131.72 1180.04 135.42 1169.52 134.22 1157.75 128.44 1139.27 130.94 1134.02 135.47 1131.94 147.77 1133.49 151.76 1130.67 152.73 1124.03 146.42 1102.65 145.11 1094.02 147.84 1082.18 148.24 1070.75 143.39 1052.63 129.7 1036.32 118.07 1029.28 114.95 1026.75 113.54 1024.56 111.73 1020.5 102.55 984.46 104.43 961.72 104.11 953.19 100.14 944.53 87.65 928.2 83.05 919.34 68.38 882.43 63.28 876.02 57.11 871.23 41.32 865.82 34.99 861.39 31.3 855.45 26.5 849.9 19.87 846.85 6.27 844.67 2.26 840.25 1 831.94 10.26 816.18 32.9 786.1 42.84 777.98 53.48 774.14 63.13 774.64 75.06 776.71 83.08 773.26 89.47 765.68 96.2 754.55 117.3 729.92 140.48 696.7 152.01 675.98 155.07 667.18 155.39 658.11 150.21 646.85 142.2 637.95 135.16 626.95 132.58 614.36 137.09 600.02 146.25 581.3 148.51 573.93 147.46 564.49 147.32 558.38 148.25 549.76 153.94 538.7 169.21 522.16 174.18 515.63 177.64 508.25 184.53 488.03 185.86 477.65 182.72 466.57 177.4 454.81 153.81 432.92 162.89 420.49 180.37 407.95 186.42 401.28 190.91 393.79 200.18 370.26 208.52 354.01 216.88 343.93 220.34 335.51 219.69 328.8 218.02 321.19 220.63 314.48 226.59 307.26 235.97 298.88 246.41 286.5 250.11 276.11 252.17 264.5 253.52 248.22 256.53 231.86 258.3 156.86 282.71 148.86 289.97 144.27 297.63 138.09 319.06 107.42 323.95 98.21 326.86 89.62 326.16 76.45 326.88 70.48 329.52 64.79 333.77 60.59 338.5 58 342.2 56.94 347.59 56.26 355.61 57.25 363.15 59.53 372.63 64.99 379.88 67.95 388.95 68.95 397.12 70.86 406.01 75.83 411.02 80.6 414.79 85.99 416.23 92.06 416.52 99.63 413.9 116.98 414.77 122.06 417.2 126.24 435 139.85 442.89 137.8 452 126.7 458.79 122.31 467.35 120.95 493.11 120.57 503.35 119.04 511.58 116.03 528.59 107.16 532.75 105.83 536.84 106.7 543.31 108.75 553.25 114.23 559.94 112.9 563.89 107.71 566.15 89.73 568.56 81.88 573.68 73.35 579.97 68.4 595.07 61.35 612.46 33.44 619.85 25.63 629.21 19.74 653.26 9.5 685.68 1.58 696 1 707.05 2.58 716.27 5.29 725.82 11.13 727.01 12.17 729.17 20.22 736.45 66.99 740.18 77.21 752.79 93.03 776.78 113.6 782.06 119.41 787.01 129.46 788.36 138.8 785.77 180.44 792.39 203.49 Z"/>
</g>
</svg>