<?xml version="1.0"?>
<svg xmlns="http://www.w3.org/2000/svg" version="1.2" baseProfile="tiny" width="800" height="956" viewBox="0 0 800 956" stroke-linecap="round" stroke-linejoin="round">
<g id="ne_10m_admin_1_states_provinces">
<path d="M 756.57 51.02 782.13 71.95 788.33 83.66 792.25 94.81 791.54 105.53 785.78 126.68 782.7 134.46 778.02 141.47 763.43 159.38 758.31 171.08 757.91 179.96 758.43 186.21 760.11 195.83 758.26 203.52 750.07 223.27 746.35 238.25 749.8 250.98 757.71 261.81 766.47 270.42 772.48 281.63 772.73 290.95 770.16 300.15 759.65 322.11 738.01 357.61 717.96 384.16 711.77 395.99 705.7 404.16 697.7 408.2 685.35 406.83 675.44 406.93 664.78 411.53 655.11 420.47 633.83 452.71 625.34 469.43 627.15 477.86 631.53 482.14 645.59 483.52 652.58 486.22 657.84 491.61 661.99 497.45 668.75 501.6 685.26 506.15 691.88 510.66 697.5 516.92 714.84 553.8 720.11 562.59 733.93 578.54 738.53 587.16 739.39 595.88 738.89 619.29 750.54 655.64 752.66 659.68 754.24 661.84 757.59 664.24 769.94 670.72 784.98 686.58 791.07 704.84 791.38 716.58 789.33 728.88 791.2 737.65 799 759.16 798.42 766.01 794.5 769.16 781.81 768.33 777.3 770.74 775.06 776.28 782.14 794.85 784.1 806.84 780.96 817.85 775.9 826.55 767.14 849.18 739.2 862.46 733.55 867.63 719.74 877.82 693.72 890.24 684.81 891 675.73 887.3 662.49 875.73 653.95 871.7 641.94 867.85 616.66 854.72 608.58 853.9 599.37 856.24 561.78 875.1 550.42 875.97 543.43 874.82 537.87 872.39 518.73 857.69 511.04 853.75 503.84 851.18 494.44 850.26 489.82 848.8 484.98 845.25 477.64 831.53 472.68 826.35 467.01 822.25 463.92 819.41 461.54 816.08 457.8 806.79 454.44 800.63 449.86 795.85 437.55 789.31 421.07 777.23 413.89 775.14 406.06 776.91 401.88 778.36 388.62 785.32 352.74 793.66 340.97 799.02 327.72 807.13 322.67 808.32 318.21 808.17 310.26 803.59 306.72 800.26 301.1 803.68 296.52 810.13 280.91 844.57 254.68 884.61 252.86 899.6 251.95 955 218.94 941.7 199 930.22 183.09 916.31 177.57 909.06 171.31 895.78 165.06 891.07 157.24 889.4 88.74 911.53 75.06 890.9 74.26 865.8 84.72 827.95 86.94 809.92 89.33 800.11 92.01 773.94 85.37 731.23 74.1 696.57 67.6 682.41 62.14 673.1 55.18 671.48 49.62 674.59 42.52 674.02 34.4 667.83 25.7 651.87 22.41 640.44 20.21 625.86 1 593.33 19.68 557.3 27.68 521.9 32.81 514.34 39.2 509.15 46.71 505.66 54.47 504.45 62.86 505.66 83.27 512.71 92.43 514.11 101.44 513.42 108.91 513.68 116.37 515.12 128.67 523.56 133.42 524.08 136.32 517.5 139.7 511.76 147.19 507.51 208.05 493.95 221.19 493.71 241.35 497.29 252.2 496.65 265.63 491.84 275.43 489.99 293.56 489.05 299.85 483.91 307.84 467.85 315.24 459.55 319.49 451.05 318.75 440.75 312.83 427.14 304.69 414.6 296.9 406.6 289.73 402.29 274.45 398.39 267.75 394.93 262.48 389.62 258.55 383.25 256.82 374.67 257.03 365.85 258.94 353.59 260.96 323.88 265.73 305.81 269.38 296.79 270.42 290.51 268.23 279.82 282.1 256.95 286.82 226.94 291.47 216.83 319.52 174.13 322.18 163.16 319.88 154.68 307.12 141.93 302.67 136.26 296 122.68 310.08 125.52 315.06 124.49 320.06 120.45 322.74 114.14 324.57 105.57 327.82 95.71 332.85 89.13 340.37 85.22 358.46 88.45 368.68 88.54 382.16 91.6 390.29 95.94 395.74 101.37 398.11 106.93 398.14 112.74 395.07 126.52 397.17 132.22 404.06 134.07 415.07 126.6 427.25 111.81 431.1 108.36 437.81 104.42 443.53 99.96 448.31 91.92 450.33 84.74 451.65 77.2 454.44 72.67 458.79 68.49 466.1 63.66 474.38 56.4 503.55 22.4 511.1 16.83 520.01 13.65 528.66 16.94 535.56 18.48 542.83 18.85 579.79 2.77 586.8 1 591.79 1.93 593.88 6.31 592.71 11.6 592.28 16.12 593.31 20.47 598.16 23.17 605.53 21.28 611.87 17.03 617.53 11.8 624.87 9.15 634.4 11 652.47 20.51 667.79 26.1 704.83 31.42 733.57 43.84 756.57 51.02 Z"/>
</g>
</svg>