<?xml version="1.0"?>
<svg xmlns="http://www.w3.org/2000/svg" version="1.2" baseProfile="tiny" width="800" height="600" viewBox="0 0 800 600" stroke-linecap="round" stroke-linejoin="round">
<g id="ne_10m_admin_1_states_provinces">
<path d="M 775.94 303.07 773.05 307.26 767.15 327.16 766.5 339.69 780.62 342.13 778.43 352.87 776.03 363.73 770.91 371.75 777.28 384.78 791.36 390.54 796.71 403.73 799 425.05 795.14 444.75 784.93 446.37 775.27 452.64 770.08 460.47 767.86 468.39 763.32 479.4 755.71 488.63 752.07 497.02 747.83 502.79 739.93 504.54 736.35 510.17 732.48 514.48 726.56 521.99 728.25 528.58 725.56 532.42 721.48 540.14 719.78 550.47 720.49 561.08 723.2 569.68 717.83 572.65 713.23 571.79 709.61 567.87 698.35 562.74 676.77 580.64 660.01 589.19 647.66 599 640.5 595.14 634.02 588.53 628.83 581.19 618.08 568.92 621.33 559.83 619.58 555.42 616.3 552.34 612.64 550.98 609.34 548.83 606.92 543.4 606.84 533.26 606.17 521.96 612.07 517.18 614.84 511.05 620.75 509.46 613.83 491.33 609.2 473.76 614.02 464.43 616.28 454.91 615.39 453.37 615.77 441.76 612.75 435.91 617.25 427.7 623.89 421.64 630.05 420.65 624.92 411.82 622.89 406.28 618.38 392.19 617.83 378.53 625.15 365.38 629.82 352.16 648.85 354.19 662.36 357.11 671.65 356.7 680.44 356.94 687.04 350.97 662.15 323.22 655.41 310.88 639.14 297.71 611.52 289.69 588.99 286.81 573.53 293.22 560.99 299.31 537.23 299.67 521.59 309.77 508.52 335.36 494.25 345.44 492.38 363.63 497.95 369.3 498.26 357.38 504.94 353.27 509.91 354.79 501.23 375.62 479.29 387.15 460.89 394.89 446.93 401.54 430.96 409.81 424.28 417.19 420.98 426.23 415.85 434.16 411.72 444.82 412.41 450.5 417.2 461.46 409.86 471.9 404.52 477.22 393.8 495.6 372.73 510.34 356.47 525.21 348.88 554.88 344.77 565.42 347.92 576.92 359.24 580.25 366.25 588.31 362.8 592.78 342.5 588.42 275.76 555.92 238.3 547.99 202.96 546.25 154.86 560.96 104.05 541.34 62.35 536.26 39.63 535.43 2.1 537.75 2.82 528.63 2.56 524.95 1.29 517.17 1 506.62 3.16 491.09 5.83 480.61 14.59 458.65 19.11 453.06 26.01 449.61 50.66 443.85 54.6 442.15 58.12 439.94 72.72 426.65 77.09 420.97 80.79 411.17 84.95 402.64 103.12 382.9 106.1 374.83 110.97 351.48 117.35 342.77 144.42 317.82 152.63 307.79 161.11 289.62 165.83 276.53 167.19 261.76 171.35 243.45 186.79 237.78 204.91 220.94 214.66 216.86 235.81 200.47 245.13 195.68 257.1 193.42 262.56 190.86 266.96 187.62 271.5 181.76 277.88 175.43 283.45 172.55 296.77 169.87 305.26 165.97 318.27 154.66 323.44 147.09 325.41 139.32 324.12 133.61 321.74 127.98 318.35 122.22 317.93 116.73 319.89 110.81 328.21 103.14 332.26 96.26 333.22 90.66 331.65 84.58 330.4 77.76 332.77 67.65 333.74 60.41 333.5 53.34 332.4 46.41 336.04 38.57 341.36 35.37 348.23 33.32 352.16 28.96 354.54 24.2 357.19 12.59 361.88 1 369.83 10.43 370.97 16.03 372.96 32.87 379.46 54.58 381.21 64.59 381.47 89.22 380.35 95.32 376.99 106.65 376.53 112.38 377.87 127.12 376.46 135.84 371.91 150.37 371.65 156.99 373.35 163.77 373.91 169.93 373.46 175.54 373.52 181.13 375.25 187.04 380.16 190.94 387.48 193.06 397.74 190.37 407.46 188.95 418.51 190.4 425.3 195.07 429.6 203.03 435.68 237.37 438.97 245.98 442.77 253.8 449.61 259.07 459.08 268.65 464.38 272.12 470.42 273.61 477.27 273.6 484.11 271.26 491.33 265.44 496.37 260.21 499.09 256.31 500.92 253.02 501.87 250.11 502.71 245.52 502.66 238.8 501.53 231.86 500.37 217.23 501.68 195.81 507.16 175.62 511.17 146.16 513.48 137.34 516.59 130.08 521.12 125.98 527.25 125.88 544.11 140.82 553.1 145.89 563.38 147.57 569.68 151.85 573.77 157.04 580.72 162.29 592.28 165.64 654.57 159.09 687.88 150.49 718.07 146.84 722.89 147.92 728.3 151.21 728.65 155.42 728.1 165.49 728.74 169.91 729.54 173.42 731.04 178.42 733.18 190.34 733.79 196.96 733.67 203.17 732.56 206.46 730.29 210.94 722.47 219.48 719.27 226.23 718.1 237.37 720.13 251.89 724.73 264.56 733.23 279.15 737.69 285.54 740.91 288.83 745.27 292.12 756.07 296.25 765.89 298.66 775.94 303.07 Z"/>
</g>
</svg>