<?xml version="1.0"?>
<svg xmlns="http://www.w3.org/2000/svg" version="1.2" baseProfile="tiny" width="800" height="693" viewBox="0 0 800 693" stroke-linecap="round" stroke-linejoin="round">
<g id="ne_10m_admin_1_states_provinces">
<path d="M 571.83 605.67 543.25 609.13 481.26 628.05 341 681.15 309.01 678.43 272.98 690 263.54 691.24 252.59 692 257.72 681.59 261.89 675.29 270.68 658.3 277.08 633.05 291.41 617.46 311.93 638.91 314.48 644.98 319.11 650.55 324.54 643.32 326.11 639.89 337.34 632.85 348.7 627.68 358.89 622.85 379.72 607.57 410.29 587.34 423.36 580.63 438.83 557.05 450.22 559.34 451.66 577.67 449.14 591.17 454.69 592.57 458.97 577.72 458.09 561.35 474.76 565.54 480.48 560.07 460.07 551.84 465.71 535.74 467.96 525.72 465.87 520.15 448.65 500.08 435.7 491.01 426.26 495.48 411.46 490.22 395.04 484.89 384.59 496.89 375.09 493.3 372.89 509.09 371.74 525.07 359.16 530.72 359.24 513.37 349.36 516.06 337.23 510.6 323.76 510.43 309.57 513.95 299.8 521.52 289.19 514.06 273.33 520.71 258.15 518.83 250.6 516.29 238.96 500.1 234.13 495.3 220.37 480.6 207.22 474.98 209.75 452.89 223.37 418.02 220.27 395.77 213.86 406.74 205.32 429.91 192.75 450.65 187.69 463.27 184.27 478.93 177.91 524.01 185.94 534.46 193.8 549.42 211.99 558.58 218.88 576.98 218.91 591.58 200.35 590.17 177.3 579.95 152.11 565.26 136.22 555.85 127.95 545.06 126.48 530.88 133.37 514.84 135.9 500.05 141.14 485.53 140.56 472.66 134.59 455.61 125.25 443.18 114.12 442.71 110.36 422.43 109.15 401.94 109.2 385.78 109.8 371.54 116.48 356.61 123.65 341.53 132.61 325.42 138.68 310.13 148.27 294.36 149.9 270.94 151.68 255.31 141.78 251.89 131.86 279.24 126.43 298.52 122.74 280.29 121.82 268.03 112.56 264.95 119.8 304.62 101.28 309.37 98.07 291 91.37 291.35 90.64 312.41 76.96 315.81 58.02 311.2 46.6 298.05 38.23 283.19 27.57 255.66 18.98 242.46 8.81 230.31 1 215.37 2.08 149.34 4.25 131.47 35.53 83.75 54.15 42.7 59.62 35.01 66.32 30.94 70.54 34.91 80.03 40.37 85.35 40.54 91.36 39.13 107.17 29.46 121.21 23.07 164 13.14 179.82 4.83 184.8 3.12 194.15 1 202.72 3.49 222.37 17.89 237.05 25.68 242.51 31.39 246.52 38.72 250.98 49.8 253.82 53.76 257.5 57.15 264.27 62.03 270.19 68.22 278.94 84.56 284.71 88.79 290.22 90.54 301.43 91.63 310.02 94.69 319.19 99.38 342.03 116.9 348.65 119.8 356.99 121.17 370.53 120.14 415.38 97.66 426.36 94.87 436 95.85 466.15 111.5 480.48 116.09 490.65 120.89 506.45 134.68 517.28 139.08 527.91 138.18 558.94 123.38 575.42 111.24 582.15 105.07 615.47 89.25 609.75 117.92 622.45 147.9 629.43 155.29 636.54 159.38 645.76 158.87 665.8 154.75 674.8 150.27 684.33 143.81 697.62 139.84 711.52 139.73 760.67 149.12 799 149.51 794.42 177.33 793.73 199.59 787.83 219.62 776.77 247.61 765.37 263.4 727.04 303.21 718.26 316.85 713.07 352.27 709.34 364.63 683.88 395.83 678.4 409 673.74 424 667.71 432.91 647.01 454.13 641.93 457.75 636.18 460.65 599.77 471.5 589.73 477.28 583.46 486.06 572.3 519.74 569.24 535.68 567.4 559.14 568.78 574.92 571.37 586.45 572.09 591.94 571.83 605.67 Z M 93.04 439.26 102.18 439.18 111.28 451.28 113.22 462.38 105.29 464.9 105.6 470.39 100.46 471.1 93.04 439.26 Z" fill-rule="evenodd"/>
</g>
</svg>