<?xml version="1.0"?>
<svg xmlns="http://www.w3.org/2000/svg" version="1.2" baseProfile="tiny" width="800" height="1393" viewBox="0 0 800 1393" stroke-linecap="round" stroke-linejoin="round">
<g id="ne_10m_admin_1_states_provinces">
<path d="M 660.06 182.7 654.93 185.24 640.7 182.05 608.31 206.22 592.34 221.72 585.71 235.33 584.9 241 581.25 249.5 580.49 254.11 582.32 259.19 594.81 260.66 583.07 270.47 585.34 286.75 579.06 307.08 562.42 339.25 525.38 387.73 503.6 418.95 498.59 458.89 494.63 476.47 493.35 495.21 494.98 499.46 503.04 513.65 506.1 516.7 513.65 521.15 513.27 531.67 510.14 543.98 509.44 553.41 517.78 565.59 530.53 570.43 563.14 570.35 578.72 574.37 590.6 584.4 601.07 596.57 611.99 606.9 668.44 642.67 706.8 658.2 715.05 666.34 722.8 663.14 733.14 663.2 743.17 666.27 750.59 671.83 755.8 682.36 757.37 691.75 759.59 700.47 767 708.87 776.75 712.42 784.66 711.17 791.38 711.63 797.72 720.49 799 730.4 792.91 763.48 783.8 759.16 775.19 758.23 767.86 761.54 762.15 770.19 765.71 776.04 771.25 781.01 778.75 783.68 788.18 782.52 776.82 793.79 772.69 799.75 768.82 806.87 774.94 816.28 780.06 831.19 782.19 847.69 779.06 861.77 771.95 867.7 745.95 878.22 734.54 880.98 721.91 880.11 703.69 875.51 689.37 867.91 687.92 857.86 698.64 853.8 714.58 856.7 729.85 863 738.93 869.18 737.31 863.3 736.01 855 733.99 850.4 743.8 856.87 749.22 837.86 741.73 825.98 727.47 821.9 712.7 826.25 714.57 832.28 714.56 835.12 713.58 838.1 713.03 844.64 687.38 826.69 675.02 837.46 652.2 842.41 634.87 838.98 638.81 824.72 649.77 806.31 637.37 803.82 614.77 811.28 595.33 822.62 608.96 826.49 608.29 836.94 599.37 847.75 575.78 858.38 564.9 867.54 553.35 869.47 539.34 853.66 535.06 859.28 531.95 861.66 530.18 864.68 529.57 872.68 508.8 862.05 501.38 860.88 497.67 871.6 493.66 879.76 489.01 885.01 495.9 899.8 487.06 900.59 463.65 892.06 430.86 915.12 422.98 923.77 398.96 924.1 363.72 942.71 335.97 969.75 334.84 995.42 343.37 1002.36 349.42 1005.42 351.42 1010.32 347.45 1022.82 343.75 1027.28 337.72 1031.26 330.96 1034.19 325.2 1035.36 317.44 1031.37 307.99 1014.19 301.94 1011.16 297.26 1015.71 285.47 1035.12 276.8 1041.46 276.88 1048.22 287.75 1047.94 295.81 1051.09 300.88 1058.04 302.66 1069.58 316.32 1083.14 323.18 1092.76 320.87 1097.2 319.41 1102.3 320.32 1126.3 318.77 1133.98 307.95 1139.08 299.43 1134.15 292.81 1124.37 287.89 1114.87 278.17 1125.75 267.69 1134.6 267.75 1140.14 284.76 1143.08 290.26 1154.95 285.74 1164.02 272.65 1158.44 269.25 1174.47 263.78 1179.97 238.33 1184.5 235.13 1187.01 229.36 1193.5 221.94 1204.9 217.77 1207.68 209.38 1208.69 193.66 1207.19 167.57 1247.26 129.48 1349.11 112.4 1392 92.35 1381.16 80.06 1376.45 70.56 1367.25 63.4 1358.99 56.68 1348.28 43.46 1337.71 13.74 1302.47 5.03 1288.57 1.29 1275.37 1 1268.61 1.75 1256.78 22.43 1245.26 28.25 1234.32 34.13 1216.56 40.81 1211.27 51.86 1210.99 56 1206.73 59.53 1199.84 83.31 1184.49 95.55 1167.32 103.41 1152.74 107.67 1137.29 117.28 1116.76 127.44 1106.14 140.7 1100.72 179.43 1101.48 187.29 1099.43 190 1093.28 181.84 1077.72 177.97 1065.16 194.86 996.57 195.31 985.49 192.62 939.96 200.33 904.88 200.66 893.45 196.14 881.1 189.73 868.59 186.97 855.66 191.04 847.9 191.88 840.13 172.25 795.34 166.13 784.05 162.54 772.01 163.84 756.91 170.77 743.4 181.73 733.22 195.27 728.44 227.48 722.72 242.42 715.85 260.9 697.51 266.52 685.21 266.94 672.71 264.43 664.65 260.33 659.23 244.54 657.22 237.19 652.46 229.71 636 223.7 630.67 215.4 629.21 205.39 629.88 194.4 628.7 181.57 623.37 165.79 614.57 153.84 605.41 148.21 594.94 148.88 582 152.98 567.13 152.16 554.95 148.41 548.43 139.15 541.97 137.05 538.93 138.27 535.25 155.58 530.09 162.19 521.49 156.44 502.71 154.58 489.75 151.95 480.14 148.91 474.86 144.86 472.01 135.06 468.82 109.81 416.75 167.92 391.72 181.96 375.25 190.43 362.59 181.05 343.78 182.2 334.04 189.93 328.57 198.75 327.32 240.15 335.65 284.54 334.58 336.93 319.4 359.69 307.07 374.2 295.1 379.72 285.75 388.08 276.46 395.38 266.53 401.3 255.58 406.5 239.88 409.59 225.95 414.04 190.42 423.82 154.22 430.92 91.55 429.88 82.92 425.19 74.46 403.61 45.65 397.31 28.54 482.61 1 492.34 3.08 500.12 8.94 507.91 25.46 514.79 34.49 534.6 51.79 559.43 66.09 600.53 82.64 608.68 98.24 619.3 110.93 628.26 124.71 639.4 153.45 648.13 168.97 660.06 182.7 Z M 772.45 655.72 777.54 649.02 784.97 650.4 783.59 657.8 780.43 665.11 772.16 670.97 766.29 674.97 761.95 668.05 758.15 660.97 772.45 655.72 Z M 770.54 624.8 775.09 618.24 785.14 616.53 779.66 623.93 780.29 630.16 769.86 632.57 758.81 640.97 745.67 644.15 740.33 639.86 752.69 633.99 770.54 624.8 Z" fill-rule="evenodd"/>
</g>
</svg>