<?xml version="1.0"?>
<svg xmlns="http://www.w3.org/2000/svg" version="1.2" baseProfile="tiny" width="800" height="1251" viewBox="0 0 800 1251" stroke-linecap="round" stroke-linejoin="round">
<g id="ne_10m_admin_1_states_provinces">
<path d="M 578.72 40.39 615.61 102.85 619.83 130.82 626.13 152.77 642.84 183.4 658.43 195.28 672.07 196.38 682.74 190.41 696.11 193.52 706.59 211.39 719.07 238.57 740.71 305.1 753.46 387.09 748.32 437.32 743.72 456.16 739.46 490.76 719.37 563.41 720.92 611.59 747.17 651.2 756.88 677.59 790.16 722.02 797.4 735.08 799 748.39 788.05 845.05 772.97 900.9 766.1 955.7 761.34 977.19 753.32 1001.4 744.2 1018.3 732.93 1033.61 720.05 1047.95 711.53 1062.36 689.16 1080.83 654.06 1099.85 573.28 1123.26 504.83 1124.91 440.98 1112.06 427.39 1114 415.46 1122.42 413.69 1137.46 428.15 1166.47 415.1 1185.99 393.44 1211.39 303.84 1250 302.28 1223.42 297.19 1209.81 286.66 1194.94 273.8 1181.8 244.96 1167.5 234.62 1159.16 226.19 1146.19 218.03 1131 202.98 1121.84 187.1 1125.06 169.36 1124.54 154.84 1120.77 142.92 1112.51 137.9 1104.37 133.9 1091.07 134.9 1069.61 134.26 1049.89 131.26 1029.75 114.82 993.25 97.99 965.11 86.12 937.36 86.24 931.18 109.79 771.62 109.43 749.85 106.23 726.18 90.57 663.32 88.48 645.03 99.62 594.96 97.22 574.5 34.14 500.26 1 472.49 64.41 417.62 85.11 406.65 111.96 403.82 128.05 410.26 141.07 412.9 151.94 410.37 162.89 397.65 171.37 383.7 179.29 365.58 201.2 261.2 206.18 249.5 212.07 242.33 220.16 244.61 228.11 250.15 239.63 263.01 253.27 270.75 267.33 272.54 280.84 266.65 307.93 240.45 339.73 228.11 354.19 224.74 370.19 223.42 381.43 224.48 390.12 212.83 391.21 200.06 390.17 185.02 391.26 173.1 397.64 163.16 412.89 163.1 427.65 166.29 442.57 163.4 453.4 145.26 454.45 129.76 450.78 115.47 440.44 90.13 439.02 67.76 437.63 59.09 428.62 37.06 428.01 28.88 432.13 17.39 453.71 6.53 476.58 1 578.72 40.39 Z"/>
</g>
</svg>