<?xml version="1.0"?>
<svg xmlns="http://www.w3.org/2000/svg" version="1.2" baseProfile="tiny" width="800" height="887" viewBox="0 0 800 887" stroke-linecap="round" stroke-linejoin="round">
<g id="ne_10m_admin_1_states_provinces">
<path d="M 1 95.23 12.93 96.03 15.66 105.45 24.22 102.78 36.3 106.75 43.92 109.39 57.57 98.11 61.84 95.6 68.64 93.01 65.89 82.52 84.95 69.3 100.36 68.2 112.6 66.74 123.23 59.42 150.77 39.4 149.64 28.63 183.38 17.97 216.69 11.03 234.35 8.41 245.57 1 261.61 12.93 269.1 27.77 279.19 34.69 289.86 50.95 297.69 69.7 299.16 84.03 294.59 95.3 281.02 86.56 267.33 96.26 259.01 113.87 256.33 124.5 249.86 131.47 231.14 153.68 219.9 172.12 220.03 188.45 225.25 192.86 232.41 191.55 233.33 177.03 242.49 169.68 251.59 155.95 260.32 150.03 263.87 166.88 271.98 170.32 275.67 173.74 269.71 178.19 262.91 178.4 254.72 177.89 254.03 191.04 296.43 214.68 306.3 210.44 311.86 205.38 319.36 218.76 315.4 229.87 312.32 237.39 305.83 252.99 304.65 259.71 308.41 269.33 315.97 263.06 322.34 249.35 330.91 236.23 343.04 236.9 359.51 244.8 364.55 240.08 364.46 219.56 345.21 224.04 329.29 216.99 320.83 194.6 336.65 180.75 344.98 177.83 364.62 177.35 373.49 174.43 380.16 167.68 386.59 159.23 389.2 150.51 405.15 139.91 401.85 153.41 397.97 165.98 409.88 170.73 418.61 176.26 415.85 189.05 414.29 192.51 405.04 197.5 398.17 203.02 391.06 210.62 389.38 217.92 392.38 226.18 396.39 233.35 399.04 241.37 398.99 245.68 394.65 256.72 395.07 264.78 398.92 275.45 420.61 302.58 432.5 313.75 437.89 322.38 443.58 329.43 457.48 336.93 558.35 364.3 595.19 358.07 614.95 374.63 652.57 418.92 654 431.13 647.36 460.99 648.6 471.9 657.94 509.4 659.85 523.52 660.06 536.5 646.02 631.68 645.95 635.37 653.03 651.92 663.07 668.71 672.87 690.48 674.66 702.49 675.04 714.26 674.44 727.06 676.83 734.99 679.82 739.85 686.93 744.78 695.59 747.02 706.17 747.33 715.64 745.41 724.61 750.88 729.48 759.94 734.5 767.67 740.67 772.65 757.87 781.18 765.54 789.02 771.82 797.89 774.85 806.01 775.78 821.86 799 869.77 794.14 879.51 787.74 884.05 780.33 886 773.87 884.7 764.32 880.08 750.58 871.37 727.8 863.39 712.7 863.32 699.24 868.98 687.56 877.74 671.56 884.74 660.01 884.46 650.05 880.36 644.1 876.4 616.44 867.64 605.63 862.5 596.51 856.36 584.56 843.72 573.84 835.26 579.49 813.94 575.01 792.65 569.88 783.14 557.32 765.27 532.32 720.3 523.73 711.48 514.86 707.93 507.67 708.75 499.32 703.55 488.87 681.48 483.16 678.23 477.77 680.99 473.91 686.68 471.52 692.84 474.5 699 476.09 706.8 471.2 711.16 458.77 711.99 435.5 699.81 423.13 688.78 413.37 675.18 404.24 658.68 394.49 651.3 385.11 648.15 360.02 646.5 339.69 640.18 325.12 625.91 322.85 620.01 322.83 613.23 328.29 609.82 337.25 606.1 349.84 597.88 362.34 584.96 364.89 574.58 361.84 565.47 356.83 555.34 350.08 549.01 326.13 531.53 317.5 528.53 299.44 532.04 292.29 529.04 286.87 519.67 278.97 512.7 268.84 509.08 258.16 507.89 245.39 508.69 229.4 498.04 220.7 486.4 209.4 466.2 200.86 440.76 196.41 436.46 192.56 434.46 178.99 433.84 172 435.55 156.86 444.7 145.71 445.77 136.82 439.94 111.71 430.44 102.76 420.72 94.37 414.02 86.5 409.37 62.7 402.67 50.26 396.08 43.56 388.99 40.35 381.78 39.62 375.92 41.53 343.81 43.11 334.81 45.94 325.26 51.81 320.3 58.97 319.55 68.08 323.57 83.16 333.15 89.62 335.77 95.34 336.75 103.09 336.41 109.38 333.29 114.06 327.51 118.91 320.56 123.3 312.56 126.44 303.88 127.17 294.91 125.05 240.92 122.63 223.69 116.77 214.88 109.14 210.35 101.47 210.77 94.57 213.61 73.52 225.29 61.73 228.49 48.21 225.41 32.95 215.31 14.86 189.7 7.66 177.35 3.91 167.51 2.46 156.66 2.38 142.18 3.33 133.95 3.76 124.87 1 95.23 Z"/>
</g>
</svg>