<?xml version="1.0"?>
<svg xmlns="http://www.w3.org/2000/svg" version="1.2" baseProfile="tiny" width="800" height="1115" viewBox="0 0 800 1115" stroke-linecap="round" stroke-linejoin="round">
<g id="ne_10m_admin_1_states_provinces">
<path d="M 1 1075.91 26.18 1046.76 158.72 1009.39 219.27 956.22 250.71 924.34 299.49 876 342.33 816.29 366.54 790.01 368.59 754.24 367.17 737.06 389.78 729.72 400.08 715.4 411.72 702.98 419.32 676.56 420.27 642.96 420.78 597.36 409.86 559.58 404.97 521.58 416.64 470.51 441.84 448.84 453.98 433.37 457.1 428.59 458.85 423.41 461.56 413.22 455.25 364.92 441.65 313.86 440.72 279.52 443.55 252.16 448.55 228.05 450.02 203.72 448.08 166.29 449.36 144.82 439.49 133.1 397.39 113.67 356.52 68.72 351.95 1 389.86 12.78 436.63 15.85 454.12 21.73 472.3 35.48 489.32 66.25 507.5 91.6 530.57 112.16 573.96 134.87 597.12 133.31 606.24 125.19 603.28 110.66 597.72 99.16 602.17 87.69 609.37 77.08 619.42 71.93 630.06 77.99 649.54 119.14 665.11 128.82 678.52 127.31 695.06 133.92 711.07 150.35 757.67 234.2 781.09 267.5 790.66 285.24 799 324.93 788.46 364.68 761.48 447.7 748.26 471.84 740.27 495.23 714.22 608.96 683.52 682.45 684.8 697.22 690.11 706.21 708.04 722.91 720.18 738.86 738.96 774.94 750.58 819.34 754.43 844.2 752.4 866.71 744.57 905.95 747.13 935.67 740.49 947.16 733.04 956.67 716.86 961.7 658.52 967.07 562.07 1019.67 541.27 1025.58 520.5 1023.69 503.67 1019.4 474.93 1020.09 317.35 1066.41 291.08 1078.18 132.75 1114 46.1 1111.96 19.48 1104.63 1 1075.91 Z M 153.6 873.71 199.11 836.45 219.66 865.43 178.15 895.48 160.46 886.9 153.6 873.71 Z" fill-rule="evenodd"/>
</g>
</svg>