<?xml version="1.0"?>
<svg xmlns="http://www.w3.org/2000/svg" version="1.2" baseProfile="tiny" width="800" height="1205" viewBox="0 0 800 1205" stroke-linecap="round" stroke-linejoin="round">
<g id="ne_10m_admin_1_states_provinces">
<path d="M 77.77 59.02 85.06 49.96 109.86 42.02 144.66 28.89 165.86 15.75 191.7 1 226.91 11.53 264.85 7.75 294.02 8.51 344 6.12 364.8 6.91 374.81 9.59 388.53 13.86 393.95 23.43 407.82 12.97 410.54 42.12 410.11 51.06 409.18 59.15 409.26 73.4 410.68 84.08 414.37 93.75 421.46 105.91 439.26 131.1 454.28 141.04 467.59 144.06 479.19 140.92 499.91 129.43 506.7 126.64 514.24 126.22 521.76 130.68 527.52 139.34 529.9 156.29 531.99 209.41 531.27 218.24 528.18 226.78 523.86 234.65 519.08 241.49 514.48 247.17 508.3 250.24 500.67 250.58 495.03 249.61 488.67 247.03 473.83 237.61 464.87 233.66 457.82 234.39 452.05 239.27 449.26 248.67 447.71 257.52 445.83 289.11 446.54 294.88 449.7 301.97 456.3 308.94 468.54 315.43 491.97 322.02 499.71 326.6 507.96 333.18 516.77 342.75 541.49 352.09 550.23 357.83 561.21 356.77 576.11 347.78 582.99 346.09 596.34 346.7 600.13 348.67 604.51 352.9 612.91 377.93 624.04 397.8 632.6 409.26 648.33 419.73 660.91 418.95 671.42 420.12 681.38 423.68 689.16 430.54 694.49 439.75 701.53 442.71 719.3 439.25 727.79 442.2 751.36 459.4 758 465.63 762.94 475.59 765.94 484.56 763.43 494.76 751.13 507.48 738.74 515.56 729.92 519.22 724.55 522.58 724.57 529.25 726.8 535.05 741.14 549.1 743.55 584.83 765.12 608.56 787.35 618.81 792.56 624.99 791.88 636.32 792.9 656.08 792.13 668.92 789.49 681.64 787.99 696.08 788.49 714.2 795.67 741.15 799 766.64 797.57 772.01 796.65 774.74 794.99 777.27 788.59 785.44 775.28 796.87 765 801.68 754.05 805.74 741.98 799.44 727.19 783.71 711.25 785.03 690.73 786.32 691.08 807 668.49 809.47 669.3 790.06 645.98 798.34 660.99 830.79 639.89 827.25 635.5 809.33 623.18 811.26 621.84 830.55 573.1 839.37 551.8 849.62 529.14 851.91 509.73 837.97 484.51 838.89 471.79 836.77 456.19 817.49 436.48 809.16 423.58 797.89 386.73 773.56 364.71 765.79 339.24 744.56 327.21 736.77 295.02 728.85 208.32 736.36 203.63 734.92 199.99 732.2 196.4 730.86 192.08 733.52 188.85 736.28 184.59 739.03 180.16 741.03 176.23 741.77 167.41 740.7 160.72 737.76 157.15 731.2 157.7 719.48 153.23 720.87 148.96 723.59 145.56 727.71 144.33 733.28 143.42 739.92 141.4 740.57 138.41 739.69 134.69 741.55 117.38 765.21 111.63 769.14 102.15 768.52 95.14 764.22 89.44 759.43 83.89 757.41 75.2 760.47 68.01 767.42 64.24 776.42 65.39 785.44 47.05 785.98 32.31 782.01 32.35 781.89 38.95 763.66 40.37 753.67 38.87 739.73 36.68 732.33 33.71 725.98 22.1 708.52 2.88 690.68 1 678.88 1.71 666.61 5.99 648.87 5.93 629.11 2.85 597.14 6.97 572.1 7.78 560.36 7.44 550.92 6.55 545.5 6.55 544.87 7.7 543.47 39.95 512.59 73.26 455.96 80.87 446.41 88.67 439.24 94.4 432.01 96.45 422.8 94.48 407.13 90.71 393.98 95.81 370.24 95.87 360.15 109.32 362.71 114.25 367.06 123.01 369.84 131 368.92 140.53 363.58 160.23 348.24 168.69 337.02 172.25 325.94 172.73 312.2 170.94 298.22 170.77 291.8 169.84 285.02 167.2 276.78 151.65 252.77 148.75 235.46 144.81 221.68 129.32 190.25 111.46 104.52 99.45 76.5 79.91 60.98 77.77 59.02 Z M 500.23 865.35 517.34 879.48 518.65 889.36 510.79 899.75 500.63 911.5 495.34 928.82 487.77 948.69 469.06 965.64 453.07 991.11 433.16 1019.08 429.27 1049.53 428.27 1056.63 430.4 1066.31 430.89 1075.88 442.05 1084.62 443.62 1099.14 448.71 1108.8 465.05 1125.98 470.3 1139.77 456.63 1145.94 437.42 1150.45 420.85 1160.74 401.43 1167.59 386.42 1175.2 363.58 1196.14 331.08 1203.21 315.43 1204 314.25 1188.55 299.78 1182.02 297.62 1179.39 305.37 1164.17 312.33 1153.91 288.2 1161.19 273.7 1143.33 267.46 1124.9 275.9 1113.68 285.14 1092.47 299.87 1096.62 310.43 1091.28 363.24 996.42 380.25 985.05 392.58 977.41 397.89 972.99 401.95 966.85 407.71 952.76 411.98 945.53 420.39 929.38 446.35 915.94 456.86 912.03 473.63 887.76 485.9 870.24 500.23 865.35 Z" fill-rule="evenodd"/>
</g>
</svg>