<?xml version="1.0"?>
<svg xmlns="http://www.w3.org/2000/svg" version="1.2" baseProfile="tiny" width="800" height="1335" viewBox="0 0 800 1335" stroke-linecap="round" stroke-linejoin="round">
<g id="ne_10m_admin_1_states_provinces">
<path d="M 586.07 61.57 601.89 66.72 608.42 71.33 613.33 79.85 617.58 95.37 620.58 116.3 629.87 146.62 619.19 160.51 591.26 168.85 589.28 174.78 592.67 179.69 607.63 190.12 613.68 200.65 615 220.32 608.38 244.34 607.3 265.23 616.39 282.13 635.68 296.93 661.16 311.14 681.88 319.75 699.62 321.65 715.77 320.57 729.18 322.92 738.88 331.53 750.96 358.11 762.82 365.8 788.33 369.05 794.94 377.81 799 390.82 798.31 411 789.25 430.87 759.4 460.48 735.28 471.58 683.28 480.81 661.41 488.53 643.72 504.96 632.54 526.78 630.44 551.17 636.23 570.61 646.11 588.84 677.81 661.17 676.46 673.72 669.88 686.26 674.33 707.13 684.68 727.34 691.99 747.28 691.44 765.73 679 822.38 683.35 895.9 682.61 913.8 655.34 1024.56 661.6 1044.85 674.77 1069.97 670.39 1079.89 657.71 1083.21 595.18 1081.99 573.77 1090.73 557.35 1107.88 541.84 1141.04 534.97 1165.99 522.29 1189.53 502.52 1217.26 464.12 1242.05 458.42 1253.17 451.74 1260.04 433.89 1260.5 423.11 1269.05 413.62 1297.72 404.22 1315.39 370.84 1334 333.73 1284.95 313.71 1278.86 294.96 1275.37 277.21 1280.78 262.46 1287.06 249 1290.04 235.64 1289.5 187.6 1276.33 170.49 1275.03 153.66 1278.43 136.48 1285.87 116.57 1305.53 105.55 1310.09 93.86 1308.47 82.19 1298.85 74.79 1282.58 69.05 1260.84 75.19 1222.57 83.62 1192.51 86.65 1167.01 78.23 1134.7 51.81 1104.13 45.37 1079.21 35.36 1060.63 28.2 1050.38 14.44 1041.67 5.22 1028.62 1 1008.62 10.58 982.64 39.17 940.43 53.59 914.87 87.13 874.33 108.22 834.21 116.73 821.28 128.6 810.99 141.99 805.22 190.1 802.76 198.86 792.6 199.48 774.56 181.72 741.01 150.67 706.41 143.29 688.65 138.45 633.23 123.29 563.05 138.53 558.32 145.54 549.36 151.8 538.55 149.38 510.57 156.76 473.63 158.67 452.44 155.04 429.04 144.11 387.24 126.41 353.26 114.98 338.25 98.1 322.53 93.09 314.07 91.89 300.16 120.8 230.97 145.34 123.9 152.86 101.89 165.31 79.16 190.72 1 209.55 15.83 230.53 38.02 246.55 48.79 265.53 57.82 314.1 73.19 324.54 80.14 342.03 87.34 362.31 87.84 390.39 75.55 410.9 60.18 434.55 50.23 461.06 50.37 501.05 64.36 525.18 79.66 541.95 87.76 553.29 90.04 566.3 86.62 577.53 78.65 586.07 61.57 Z"/>
</g>
</svg>