<?xml version="1.0"?>
<svg xmlns="http://www.w3.org/2000/svg" version="1.2" baseProfile="tiny" width="800" height="958" viewBox="0 0 800 958" stroke-linecap="round" stroke-linejoin="round">
<g id="ne_10m_admin_1_states_provinces">
<path d="M 799 697.48 796.34 701.32 788.23 731.51 772.03 742.33 768.51 759.49 751.34 768.06 752.89 781.83 771.02 792.74 759.39 808.42 731.05 839.38 715.46 845.68 707.52 858.64 659.23 874.69 643.18 883.59 633.7 893.73 621.04 916.53 627.39 936.36 626.67 948.94 611.91 945.12 601.74 957 596.32 938.44 610.64 921.36 606.12 907.82 522.91 899.3 496.69 895.24 371.11 848.4 331.87 838.77 301.36 815.09 291.36 806.58 282.63 794.91 282.14 780.88 286.81 769.6 276.82 751.06 271.94 744.94 267.15 743.09 257.97 733.7 243.73 730.68 231.52 716.47 244.43 693.28 275.32 688.88 295.02 685.74 285.82 673.08 242.46 640.88 225.88 633.17 217.94 620.35 202.55 622.24 177.24 604.37 150.2 603.74 147.84 586.87 119.4 570.4 99.69 546.42 82.12 508.19 53.13 490.81 37.35 493.99 7.89 498.36 2.29 504.01 4.36 493.97 8.77 487.31 1 482.33 6.84 477.52 19.5 477.5 18.52 464.73 11.35 452.39 24.22 440.61 38.23 428.13 32.92 423.8 17.93 423.51 16.56 404.65 30.36 389.81 48.42 388.42 60.86 383.08 82.27 371.69 89.43 356.17 90.37 341.11 82.14 332.12 65.35 322.23 46.49 314.66 32.4 312.76 49.69 277.9 51.76 276.24 58.66 273.45 61.35 270.96 62.93 266.23 62.98 256.9 56.36 241.9 78.34 240.88 110.77 243.01 113.23 229.07 104.51 212.53 92.74 191.26 78.27 192.41 66.91 149.54 53.52 134.76 30.68 116.75 3.91 109.24 12.57 90.36 24.38 76.7 36.64 95.73 54.28 100.59 111.73 101.94 216.7 78.2 234.12 70.4 338.59 39.7 357.64 39.24 368.8 42.09 382.57 43.34 396.36 39.42 460.31 4.56 498.99 1 509.67 50.4 513.07 89.42 518.26 101.93 540.12 126.28 552.62 149.9 552.19 162.6 546.02 169.76 512.16 171.49 502.73 175.55 494.37 182.8 488.39 191.9 473.54 220.15 449.92 248.68 439.77 266.68 419.65 296.4 412.91 314.69 415.88 328.77 422.37 337.95 432.05 344.09 437.09 351.3 444.14 364.38 448.67 381.93 467.27 403.44 473.2 426.19 471.07 444.15 465.13 465.31 460.81 492.25 464.85 507.56 470.06 519.01 478.28 525.79 486.5 526.92 494.26 523.71 508.28 509.88 520.37 504.63 532.22 502.24 544.26 503.16 578.07 512.43 587.48 512.81 596.96 510.72 607.34 506.29 619.83 502.48 633.03 504.94 647.13 509.22 673.25 543.76 672.39 557.2 672.72 564.89 676.98 579.9 686.87 595.7 720.65 635.76 735.68 647.78 743.31 659.96 751.45 669.34 762.25 679.8 776.21 685.15 799 697.48 Z"/>
</g>
</svg>