<?xml version="1.0"?>
<svg xmlns="http://www.w3.org/2000/svg" version="1.2" baseProfile="tiny" width="800" height="380" viewBox="0 0 800 380" stroke-linecap="round" stroke-linejoin="round">
<g id="ne_10m_admin_1_states_provinces">
<path d="M 81.49 38.09 79.88 39.72 79.4 48.17 82.89 56.54 85.1 66.27 102.05 77.62 122 88.43 139.86 92.3 151.2 95.3 162.34 96.97 172.27 95.55 186.33 71.56 216.08 58.45 235.04 50.27 266.45 42.88 296.36 51.92 352.71 65.61 456.26 58.64 511.94 43.47 526.96 56.04 606.68 44.89 643.48 37.9 657.44 33.14 668.69 25.29 675.83 10.6 703.79 5.23 709.2 5.01 714.62 3.93 716.97 1 718.82 2.69 735.7 16.11 746.07 40.33 761.5 114.45 774.88 141.62 778.29 153.53 780.79 168.49 794.22 189.25 796.5 196.37 797.3 202.23 797.46 207.78 799 219.87 798.58 231.74 795.51 241.32 788.2 251.02 771.19 264.28 762.95 268.89 756.05 269.69 748.48 267.29 744.22 263.53 732.61 261.32 704.94 277.32 691.99 286.84 682.06 290.87 675.09 291.5 668.29 289.76 659.43 289.59 647.04 291.24 613.25 305.37 605.01 307.84 599.21 303.71 595.9 294.71 594.37 286.02 592.28 279.59 587.6 270.26 585.29 261.94 580.75 250.67 570.52 237.97 551.97 224.87 509.18 218.35 506.17 216.23 505.24 214.28 504.44 210.9 506.04 206.08 506.31 202.81 505.4 198.11 498.13 192.16 488.7 190.48 476.9 191.12 464.82 195.76 458.25 201.57 453.98 209.01 448.31 214.53 429.46 222.95 422.8 227.88 418.54 234.07 415.25 241.15 409.69 248.68 403.47 251.47 396.36 249.14 381.2 229.46 373.15 222.19 364.96 216.29 353.19 211.33 280.25 191.43 271.12 192.21 264.11 196.21 260.37 202.47 252.81 219.57 246.25 241.43 243.09 248.02 237.75 253.04 231.33 256.64 224.59 261.77 221.1 268.39 219.94 278.28 219.78 284.95 219.18 289.62 217.53 292.54 214.53 294.05 186.02 304.9 157.25 305.89 151.52 310.19 148.86 316.18 148.82 322.5 149.56 328.48 148.74 334.92 145.6 341.4 135.17 348.6 104.35 361.69 94.21 363.91 88.5 368.38 79.43 379 59.43 372.1 22.86 370.33 1 365.86 13.06 327.79 27.76 302.8 29.49 291.46 27.77 282.86 24.4 276.65 23.83 268.98 29.83 263.09 37.34 257.6 86.13 235.03 98.72 225.89 102.68 216.63 103.11 203.74 101.91 180.57 106.31 141.7 107.82 136.75 110.68 134.91 113.19 133.87 117.64 130.15 119.13 126.31 118.83 123.04 117.39 120.59 115.96 119.2 114.23 117.7 97.32 110.63 90.51 106.39 76.13 94.22 71.72 88.73 66.87 79.56 65.77 76.25 64.37 70.2 63 67.28 61.36 64.49 59.27 62.06 52.66 56.86 50.48 54.33 48.76 51.34 51.13 48.1 53.93 46.03 79.27 37.52 81.49 38.09 Z"/>
</g>
</svg>