<?xml version="1.0"?>
<svg xmlns="http://www.w3.org/2000/svg" version="1.2" baseProfile="tiny" width="800" height="1111" viewBox="0 0 800 1111" stroke-linecap="round" stroke-linejoin="round">
<g id="ne_10m_admin_1_states_provinces">
<path d="M 681.18 127.8 687.26 139.06 681.52 153.61 670.61 167.42 661.33 176.36 661.43 160.35 662.96 143.77 668.66 131.41 681.18 127.8 Z M 667.51 123.07 668.77 120.06 677.76 125.67 668.63 127.55 667.51 123.07 Z M 660.31 117.39 666.27 118 666.43 122.82 665.91 126.94 659.44 128.42 652.95 130.87 649.8 140.54 650.67 146.41 651.94 150.41 651.36 153.67 646.41 157.23 642.39 157.82 638.41 156.42 635.22 153.98 634.07 151.53 634.03 146.15 633.25 143.37 631.09 142.36 626.72 142.14 622.27 144.65 623.38 150.57 628.06 160.62 623.86 166.08 617.84 165.06 610.81 159.8 603.75 152.58 612.97 141.72 633.42 126.17 644.48 115.48 652.42 118.87 660.31 117.39 Z M 8.07 902.73 10.26 901.42 24.44 903.58 40.21 902.01 60.56 896.74 75.6 890.5 83.84 886.87 92.02 882.06 94.56 869.46 96.41 864.81 99.77 857.64 110.1 855.92 112.49 851.84 123 842.57 138.52 829.16 157.25 816.38 168.55 800.92 174.8 795.2 183.51 797.84 186.76 790.53 188.36 778.55 210.66 759.56 220.28 751.27 232.39 741.97 259.44 722.09 268.91 710.64 284.56 708.03 295 703.86 305.74 696.47 310.59 680.21 324.66 670.03 335.23 662.72 339.57 657.4 338.53 651.47 345.88 643.44 348.69 635.47 376.18 615.17 389.18 604.86 404.67 598.38 405.85 591.38 414.2 588.96 425.8 583.27 446.51 577.61 454.57 572.18 460.55 562.25 466.17 553.22 470.16 539.21 471.59 529.92 471.71 522.55 470.44 514.77 462.84 510.52 452.82 503.14 449.66 496.86 455 491.54 464.28 490.64 476.18 487.6 484.9 487.69 499.77 488.36 506.17 486.9 509.02 484.37 504.48 480.23 496.02 476.06 500.9 475.09 508.37 472.87 518.65 470.94 532.07 463.43 547.01 457.73 559.33 455.32 585.18 454.66 596.11 451.86 606.62 453 608.47 439.32 616.73 438.02 627 440.31 635.66 437.61 639.88 429.13 644.19 422.49 650.04 419 657.56 421.88 662.15 415.24 662.26 407.55 668.56 409.86 674.9 416.93 684.51 425.24 691.2 429.52 706.24 424.68 714.08 424.32 722.13 418.89 724.53 421.55 721.28 426.83 723.44 428.98 728.51 429.66 731.66 427.67 740.79 424.02 749.99 423.1 759.9 422.73 767.58 427.64 761.61 431.14 755.27 432.87 749.84 435.48 742.24 437.62 736.42 444.9 734.68 444.46 714.77 451.14 712.57 452.76 710.71 455.3 712.07 457.65 713.78 459.63 718.97 463.71 720.61 465.62 721.9 467.81 722.97 470.11 724.08 474.85 724.94 477.45 728.75 484.65 732.21 488.95 743.51 498.5 748.86 501.83 762.14 507.38 763.49 508.56 764.62 509.64 765.75 511.57 765.99 514.14 764.82 517.15 761.32 520.07 759.34 520.89 757.11 522.33 755.92 526.21 752.46 556.72 753.4 574.9 753.07 585.02 749.95 592.28 740.07 599.46 701.74 617.17 695.84 621.47 691.13 626.1 691.58 632.12 694.22 636.99 695.57 643.74 694.22 652.64 682.67 672.25 673.2 702.12 659.24 699.58 639.85 703.66 632.24 703.7 625.6 701.63 612.68 693.66 606.91 693.8 594.43 699.52 587.55 699.61 559.1 694.08 549.22 696.35 542.39 699.93 537.48 706.01 528 721.08 499.41 756.46 491.17 762.88 484.2 766.25 474.89 769.43 468.96 773.28 463.64 777.83 454.51 787.87 451.09 792.56 449.91 795.85 450.46 798.48 453.36 801.01 459.02 804.12 464.41 808.55 467.59 814.14 466.52 820.76 461.86 823.93 424.86 834.42 405.78 844.14 395.11 847.74 389.09 849.04 370.99 847.22 364.2 845.11 357.69 842.41 350.59 842.43 346.19 845.63 340.4 851.17 334.98 853.51 329.97 852.95 324.77 850.16 317.74 848.67 297.31 853.89 288.89 858.47 283.05 857.88 278.77 854.66 275.54 850.53 270.28 849.55 267.12 853.94 261.17 860.13 251.35 868.09 226.23 884.94 221.72 891.17 220.76 897.76 223.83 904.65 224.35 911.42 222.65 916.47 214.94 927.53 211.15 935.09 209.1 942.2 207.49 951.65 204.23 960.95 197.07 974.05 182.5 988.46 175.21 998.08 171.67 1005.41 172.46 1012.48 174.3 1017.39 175.25 1026.12 147.68 1049.84 145.72 1056.17 146.45 1064.8 149.51 1069.39 150.97 1072.51 151.62 1077.2 149.97 1080.25 147.62 1082.87 134.94 1088.02 133.06 1090.05 131.33 1093.13 128.07 1102.55 125.41 1108.35 122.04 1109.83 118.19 1107.29 113.6 1102.65 107.94 1100.37 102.55 1101.23 79.03 1108.57 63.99 1110 55.99 1108.59 50.07 1105.76 45.38 1101.35 42.51 1095.85 39.84 1088.37 37.73 1080.42 37.04 1073.95 37.26 1068.41 39.25 1063.91 47.45 1052.05 47.63 1048.76 45.83 1045.17 13.18 1037.03 7.3 1032.01 5.63 1026.79 6.86 1021.59 6.85 1015.39 2.96 1008.89 1 999.62 2.03 992.1 6.66 984.58 14.09 967.52 16.9 963.62 18.9 958.86 19.03 953.35 11.58 933.95 10.06 928.68 9.14 920.15 9.15 915.56 10.1 908.24 9.79 905.91 8.07 902.73 Z M 631.43 179.15 636.8 173.32 646.13 176.58 655.6 184.19 661.03 191.41 654.71 190.5 638.08 190.95 635.19 189.72 632.91 186.83 631.57 183.01 631.43 179.15 Z M 792.54 39.17 799 48.38 797.38 75.62 794.67 81.39 788.72 84.63 785.42 78.02 781.39 77.51 777.24 80.44 773.46 84.37 778.59 88.45 780.14 93.63 778.3 98.8 773.14 102.81 769.73 102.6 751.9 98.68 742.09 98.5 739.17 96.63 718.47 77.51 714.04 75.41 711.96 69.76 716.41 35.76 722.49 25.29 759.73 1 759.98 7.57 763.49 10.22 768.12 11.17 772.09 12.59 773.54 14.54 774.8 19.49 776.06 21.98 778.82 24.23 784.56 26.16 786.93 27.82 789.27 31.22 791.07 36.37 792.54 39.17 Z" fill-rule="evenodd"/>
</g>
</svg>