<?xml version="1.0"?>
<svg xmlns="http://www.w3.org/2000/svg" version="1.2" baseProfile="tiny" width="800" height="771" viewBox="0 0 800 771" stroke-linecap="round" stroke-linejoin="round">
<g id="ne_10m_admin_1_states_provinces">
<path d="M 731.36 532.37 711.42 526.98 691.25 524.32 672.16 515.36 663.71 515.68 669.29 529.52 676.4 532.99 713.04 541.55 707.51 543.19 693.8 545.25 688.95 547.16 674.41 567.43 671.39 570.96 665.73 572.77 654.39 580.69 641.58 583.31 636.21 585.7 625.26 593.41 630.07 597.43 635.82 598.73 642.51 597.46 649.45 593.61 640.65 612.74 619.79 627.51 595 637.02 574.17 640.35 564.06 636.57 548.66 620.33 535.56 616.58 511.2 616.48 500.46 618.78 482.37 629.64 470.17 634.46 461.9 642.38 464.8 656.77 474.03 661.99 484.6 654.12 503.71 633.23 515.57 628.72 528.72 626.83 540.27 629.86 547.61 640.11 547.12 655.19 538.38 664.9 527.07 672.35 518.17 680.66 519.93 683.54 520.6 685.21 522.89 692.48 502.56 684.97 490.6 703.87 481.32 731.68 468.65 750.89 414 740.33 387.57 740.65 390.62 761.74 367.99 756.87 358.33 739.26 350.34 718.05 332.76 702.57 327.76 705.47 323.31 701.48 320.07 693.35 318.52 683.78 313.6 690.13 301.9 684.97 291.28 689.85 280.11 697.64 259.59 705.18 227.87 721.33 220.69 726.88 218.59 732.88 213.79 737.41 208.21 740.26 195.14 742.55 190.01 745.85 186.26 749.67 181.95 752.64 137.7 770 166 737.77 175.61 719.96 160.61 711.93 152.85 714.05 137.29 724.58 128.75 728.43 119.16 728.01 119.18 727.92 122.01 715.08 123.97 697.14 122.55 689.6 118.84 678.83 109.48 658.94 94.12 634.8 88.94 624.32 85.3 611.38 86.19 576.47 71.47 541.59 67.45 525.79 66.54 507.67 67.12 489.54 68.71 475.18 68.56 463.93 66.33 453.05 39.32 408.98 34.6 396.57 30.72 380.35 28.77 353.07 29.02 331.94 31.7 302.99 28.28 277.08 1 231.01 12.07 218.05 19.04 212.6 31.42 209.89 69.04 193.92 81.77 185.14 85.61 177.23 86.61 169.37 85.71 162.07 85.76 154.37 89.01 147.05 96 141.81 131.12 140.6 165.92 127.36 169.58 125.52 171.6 121.96 172.34 116.26 172.53 108.12 173.95 96.06 178.21 87.98 186.44 81.73 194.27 77.33 200.79 71.2 204.65 63.16 212.66 36.5 221.88 15.63 226.45 7.99 235.01 3.11 246.16 2.16 335.2 26.44 349.57 32.48 359.56 39.69 369.4 48.55 387.9 72.57 396.58 75.41 404.17 72.01 410.96 62.81 414.98 54.19 420.18 46.63 428.31 40.62 451.31 30.34 458.24 23.61 463.46 14.52 471.48 7.44 486.22 1.78 500.63 1 512.14 3.04 521.02 10.3 522.12 16.05 521.79 20.03 519.85 25.92 520.82 30.04 521.96 32.42 525.63 35 577.87 42.96 600.51 58.95 613 74.44 618.54 88.18 621.36 98.34 627.07 109.72 629.62 117.57 631.49 128.16 635.54 139.15 642.62 144.19 652.67 141.17 693.93 123.93 709.05 121.92 719.87 122.13 728.17 124.25 736.68 123.49 748.81 118.57 764.61 106.95 798.38 87.43 798.32 98.07 792.94 123.11 796.92 136.98 799 153.5 796.83 163.22 790.79 170.84 782.57 178.4 774.54 188.48 739.41 248.21 705.41 280.78 704.2 282.25 704.19 282.92 705.13 288.63 705.5 298.59 704.64 310.98 700.29 337.39 703.54 371.11 703.61 391.95 699.1 410.66 698.34 423.59 700.33 436.04 720.59 454.86 732.83 473.27 735.96 479.97 738.28 487.78 739.86 502.48 738.37 513.02 731.4 532.24 731.36 532.37 Z"/>
</g>
</svg>