<?xml version="1.0"?>
<svg xmlns="http://www.w3.org/2000/svg" version="1.2" baseProfile="tiny" width="800" height="687" viewBox="0 0 800 687" stroke-linecap="round" stroke-linejoin="round">
<g id="ne_10m_admin_1_states_provinces">
<path d="M 795.15 421.37 787.97 421.06 781.55 424.41 778.93 435.78 783.06 440.11 777.3 454.08 735.97 505.7 727.02 513.24 709.79 521.11 701.99 523.29 695.21 522.57 692.41 516.14 695.45 511.1 702.51 508.8 710.3 507.34 715.79 504.84 721.35 493.16 715.66 485.15 703.53 481.16 689.49 481.48 689.58 476.36 700.01 468.35 694.55 455.37 683.68 451.14 673.07 485.4 663.58 494.17 653.12 500.42 645.67 508.73 656.74 517.86 660.33 531.96 656.82 544.84 646.87 550.4 642.74 548.77 635.78 542.13 633.08 540.8 630 542.36 623.32 548.53 612.51 552.68 599.51 565.52 594.08 568.51 584.6 563.57 581.55 551.43 582.99 523.89 585.62 524.49 591.7 517.93 600.95 505.35 607.14 500.92 609.23 507.45 608.53 518.18 606.24 526.66 617.57 524.09 626.12 501.52 638.08 499.23 638.17 494.14 629.31 486.21 619.02 480.23 612.77 478.72 607.13 478.87 601.6 478.35 595.85 474.67 587.71 479.64 591.1 501.12 575.7 513.61 552.43 519.35 491.87 523.98 475.36 530.6 458.06 542.05 448.83 525.59 438.5 530.66 427.36 543.67 415.26 550.88 406.21 552.57 407.11 557.49 411.96 564.28 414.81 571.64 410.95 576.66 402.44 578.5 385.37 578.26 371.85 582.5 344.88 599.82 328.33 600.33 325.57 597.59 323.51 592.75 322 588.21 320.89 586.15 315.58 587.28 312.78 590.16 311.04 593.46 309 595.59 293.52 603.63 286.86 603.2 281.51 594.93 290.35 585.45 285.32 576.81 275.79 567.05 269.13 549.78 261.58 540.52 259.57 537.52 259.65 528.6 261.87 523.14 263.11 517.82 260.26 509.48 264.31 508.55 271.41 505.66 275.91 505.18 273.31 497.96 268.58 492.78 256.96 486 248 491.21 236.78 494.36 225.38 493.76 205.23 480.88 192.66 482.2 171.11 493.18 151.59 507.63 98.92 566.48 103.89 576 107.25 590.47 108.18 600.39 103.86 598.75 85.32 591.74 69.44 581.71 63.32 579.84 54.09 572.5 44.49 558.25 15.1 481.61 11.05 429.71 5.44 413.94 4.26 403.09 1.97 396.99 1 388.22 5.4 379.11 14.45 367.17 32.55 349.27 41.45 332.99 45.5 321.45 47.51 309.7 50.04 300.87 54.76 291.49 64.34 277.74 66.45 271.47 65.81 263.06 61.98 254.51 63.18 246.32 68.78 238.59 100 217.66 112.2 207.77 119.6 200.08 123.51 194.63 130.05 195.84 134.06 200.97 139.39 204.98 146.64 205.7 157.11 200.02 182.49 193.53 191.23 195.39 197.68 198.85 203.91 199.54 210.65 196.64 217.83 189.76 223.31 185.78 232.13 185.76 240.22 189.12 248.65 191.73 271.14 194 278.62 192.38 291.87 187.91 315.58 175.83 361.56 162.81 367.34 158.87 368.67 150.64 364.72 143.7 358.02 138.21 351 134.34 347.39 131.2 346.71 127.93 348.18 123.84 352.43 118.02 363.77 105.54 370.37 99.9 377.74 95.11 389.32 91.17 397.98 86.98 408.21 79 443.73 35.06 455.52 16.34 461.62 8.8 470.1 4.35 482.38 1.53 517.72 8.39 526.28 8.29 541.79 1.17 548.95 1 565.01 10.91 573.25 13.47 582.71 13.43 606.81 8.36 624.14 11.52 645.47 15.87 681.17 17.6 700.69 24.32 722.49 61.13 725.23 81.82 723.09 104.95 722.89 121.84 724.45 143.63 727.55 156.59 731.32 166.5 752.92 201.71 754.7 210.4 754.82 219.38 753.55 230.86 753.08 245.35 753.81 259.82 757.02 272.44 768.79 300.3 768.08 328.19 770.99 338.53 775.13 346.9 787.41 366.19 794.89 382.08 797.86 390.68 799 396.71 797.43 411.04 795.17 421.3 795.15 421.37 Z M 285.3 686 272.4 678.34 241.51 678.7 228.7 673.14 239.61 661.71 253.11 653.88 260.58 644.01 253.5 626.57 259.23 619.35 266.57 615.02 274.12 613.2 280.26 613.76 284.84 618.02 283.33 620.94 282.61 624.1 280.98 626.48 276.84 627.13 281.41 635.52 282.79 643.49 282.87 651.62 283.82 660.48 298.86 653.79 300.22 666.86 293.71 683.11 285.3 686 Z M 391.63 602.47 400.91 608.05 404.34 616.31 401.19 622.87 396.16 626.13 391.9 627.85 390.54 626.65 390.5 621.99 387.31 619.92 382.76 620.18 368.3 612.64 363.34 606.68 367.01 599.74 374.93 597.75 386.15 601.09 391.63 602.47 Z M 496.61 549.7 500.87 545.22 502.91 551.53 500.42 567.15 494.83 580.07 493.34 587.59 486.97 593.48 474 596.24 462.66 596.12 455.26 591.39 451.52 582.24 453.63 574.2 458 571.01 459.82 570.49 476.35 563.18 482.68 563.5 489.06 559.43 496.61 549.7 Z M 165.97 523.44 169.14 529.54 169.68 535.77 169.32 538.91 157.95 550.42 140.73 564.68 131.2 567.77 124.84 563.42 124.63 557.14 136.11 539.98 143.28 531.2 152.31 525.81 160.46 522.07 165.97 523.44 Z" fill-rule="evenodd"/>
</g>
</svg>