<?xml version="1.0"?>
<svg xmlns="http://www.w3.org/2000/svg" version="1.2" baseProfile="tiny" width="800" height="532" viewBox="0 0 800 532" stroke-linecap="round" stroke-linejoin="round">
<g id="ne_10m_admin_1_states_provinces">
<path d="M 680.8 279.46 682.84 293 680.97 307.5 675.54 313.99 668.85 318.78 663.31 328.32 662.72 354.4 669.33 377.72 671.13 398.81 656 418.21 644.16 423.88 636.95 425.57 633.63 430.44 633.2 445.34 636.08 456.21 647.17 478.26 648.3 487.51 642.78 494.55 621.21 507.77 606.79 521.27 597.03 527.44 589.82 528.19 591.06 518.04 601.23 509.6 602.84 506.75 606.29 497.69 607.19 492.8 611.68 498.5 617.52 499.19 622.36 495.1 624.28 486.36 621.94 475.88 616.93 470.3 610.69 466.73 604.78 462.24 595.87 457.26 564.35 447.35 553.17 445.69 550.23 442.97 537.51 425.86 531.97 422.42 518.15 417.03 513.24 414.36 501.71 404.52 492.25 398.93 483.21 401.36 473 415.48 480.05 415.29 480.15 418.96 462.77 420.14 456.83 416.96 455.57 407.44 469.98 395.12 477.96 386.36 477.29 382.51 472.75 381.4 465.64 376.25 436.61 366.05 417.97 373.71 410.67 372.11 404.55 376.43 389.27 383.56 383.66 385.01 370.18 385.35 367.92 383.43 366.05 379.89 363.62 379.21 359.76 385.62 364.31 392.25 366.2 399.75 364.19 406.31 357.27 410.01 353.77 410.44 351.7 409.84 350.69 407.86 350.35 403.92 348.77 399 345.75 398.74 343.29 400.61 343.29 402.23 327.46 397.23 323.06 395.02 314.17 385.88 309.13 383.68 302.32 387.04 304.81 391.76 305.12 394.51 302.61 399.22 301.28 398.89 296.63 403.42 296.04 407.11 294.44 409.28 294.41 411.46 293.33 413.66 289.23 415.74 285.83 415.05 282.73 411.74 280.29 407.51 278.76 403.8 276.4 409.81 273.59 413.65 270.07 414.72 265.46 412.24 269.66 404.06 270.7 393.37 268.42 384.12 263.02 380.21 259.77 384.27 246.8 410.47 235.7 426.98 230.58 432.46 206.32 448.6 199.29 449.97 195.09 442.25 191.51 444.38 187.1 445.32 183.25 444.25 181.59 440.51 180.51 435.17 178.09 435 174.87 437.15 171.4 438.7 170.54 440.05 167.78 443.01 164.06 445.99 159.73 447.44 157.19 445.41 155.84 440.75 150.56 434.37 151.04 427.48 153.57 422.66 153.1 419.87 148.81 418.89 132.03 406.75 121.35 388.98 106.07 385.26 87.73 379.1 77.42 399.04 55.48 425.22 37.71 441.04 35.09 454.56 29.97 459.83 21.65 453.88 18.86 449.14 11.71 445.94 11.98 438.51 21.49 438.68 26.29 424.45 25.21 417.77 27.87 409.11 29.58 402.25 27.32 395.75 23.51 391.25 26.85 377.09 22.43 369.75 9.81 368.78 7.13 362.69 5.05 354.68 1.72 348.77 1 342.28 6.57 332.46 13.01 326.46 19.25 322.38 25.02 317.03 29.66 307.34 30.72 299.51 29.09 294.32 26.8 290.13 23.87 275.2 16.91 263.51 15.3 256.86 14.21 254.64 6.52 248.73 4.13 243.29 5.89 238.83 9.11 234.78 11.12 230.56 12.46 212.26 14.01 204.93 17.25 198 22.83 200.37 30.87 201.37 37.98 200.03 41.02 195.33 44.19 193.53 64.47 188.61 72.08 184.52 82.79 180.84 74.91 174.16 67.88 174.54 48.84 170.71 43.87 168.73 40.93 173.81 39.67 175.38 33.54 173.37 36.01 166.36 40.09 159.61 45.4 154.46 53.95 147.44 60.56 149.64 67.12 154.92 66.42 161.52 70.72 164.14 77.06 164.57 84.25 163.39 90.93 160.83 95.91 157.37 102.51 154.91 114.79 161.48 122.88 163.38 131.82 162.14 135.62 181.72 142.06 187.02 151.46 187.77 154.4 181.15 160.49 172.18 151.36 162.52 149.8 158.64 149.99 151.08 160.59 153.69 167.75 151.04 181.23 148.04 189.91 145.54 195.9 150.93 204.37 162.7 196.99 161.98 189.36 156.4 184.41 155.29 178.79 157.48 175.22 163.09 172.45 169.97 170.49 177.83 169.32 186.44 172.77 184.6 178.92 179.77 182.54 178.43 206.3 176.77 225.19 171.11 230.61 157.26 245.54 157.19 269.68 151.67 268.76 133.92 275.04 126.77 289.35 111.72 292.02 106.39 288.22 94.68 291.59 91.98 301.82 89.31 320.18 74.39 327.7 66.05 334.62 56.42 336.61 50.03 337.19 36.54 340.8 33.69 350.83 34.08 356.11 34.88 355.17 29.65 354.85 19.93 355.94 9.47 364.88 6.09 371.92 9.26 385.26 12.27 392.21 6.6 393.31 1.75 394.4 1 396.45 4.31 396.94 6.8 396.38 14.74 396.67 19.68 398.21 28.79 400.18 34.36 409.44 54.76 409.65 60.7 407.81 65.96 405.03 70.33 398.13 89.17 393.62 97.55 393 105.71 395.7 115.56 400.31 122.3 400.71 128.98 399.72 134.66 401.85 140.16 408.5 145.19 444.14 151.86 446.31 155.61 446.33 159.16 438.26 172.46 436.41 177.42 436.52 183.39 437.68 190.32 440.45 198.74 443.8 206.62 447.25 212.35 452.57 216.8 459.12 219.48 467.82 220.48 483.91 217.99 508.76 208.59 514.51 207.32 520.74 209.42 525.97 214.12 530.28 216.61 533.82 214.8 536.31 208.38 539.22 198.03 540.88 194.61 542.78 192.31 556.1 185.95 558.46 182.98 560.04 179.6 559.05 174.59 557.27 171.32 553.69 166.57 552.35 157.33 554.06 150.4 582.22 123.1 587.89 136.48 594.06 181.25 623.46 246.19 632.5 258.05 640.88 263.94 646.28 265.24 660.54 273.13 676.97 278.26 680.8 279.46 Z M 689.88 515.02 694.38 519.59 705.37 527.06 704.88 529.26 697.17 531 686.7 529.83 670.62 522.25 662.67 523.95 665.89 515.62 672.43 511.5 680.87 511.38 689.88 515.02 Z M 684.74 470.12 682.38 473.24 680.06 475.25 675.16 478.55 670.8 466.9 663 453.78 659.06 439.89 666.36 425.66 678.18 420.57 691.85 421.68 704.83 426.54 714.31 432.63 728.83 452.49 735.71 451.74 742.08 447.85 752.14 439.53 755.19 439 762.69 439.98 765.6 439.09 768.38 435.29 769.46 428.79 772.28 426.3 778.2 424.94 791.31 425.88 799 425.4 793.44 431.69 783.36 446.39 779.39 447.12 774.61 445.42 762.64 449.59 757.9 452.8 756.04 457.48 755.87 472.08 755.1 477.97 753.6 484.16 747.84 482.13 736.96 482.77 732.83 481.11 730.68 476.1 731.11 470.57 730.45 465.07 725.33 460.35 722.08 464.86 715.15 460.24 712.15 463.48 710.85 469.7 708.84 473.8 702.73 474.68 693.96 471.83 688.6 474.45 684.74 470.12 Z" fill-rule="evenodd"/>
</g>
</svg>