<?xml version="1.0"?>
<svg xmlns="http://www.w3.org/2000/svg" version="1.2" baseProfile="tiny" width="800" height="625" viewBox="0 0 800 625" stroke-linecap="round" stroke-linejoin="round">
<g id="ne_10m_admin_1_states_provinces">
<path d="M 577.37 37.33 596.22 38.13 615.47 23.7 662.73 26.36 677.76 19.3 686.8 17.18 696.15 1 698.95 10.91 691.27 20.6 686.59 33.05 698.34 31.17 711.03 16.45 724.71 11.15 720.22 23.17 710.44 36.72 709.38 44.22 709.11 50.76 710.39 55.56 696.36 58.64 704.57 60.61 711.12 64.23 721.08 63.11 715.43 74.64 707.74 87.74 705.38 96.85 706.99 101.87 694.27 122.34 693.74 144.82 695.98 159.74 691.68 163.11 686.86 178.46 686.13 183.85 686.33 192.49 690.02 210.1 693.74 217.42 698.54 220.91 707.65 220.46 709.38 211.32 716.91 209.16 726.88 230.61 735.49 245.43 759.32 260.21 755.15 268.43 764.05 272.9 763.77 287.02 764.21 299.78 755.38 308.85 752.51 317.09 742.9 321.01 734.83 325.99 723.11 345.69 733.62 351.54 774.3 350.29 774.29 355.72 767.93 356.68 760.68 360.4 754.55 361.55 754.53 367.47 777.87 362.33 790.92 356.99 799 361.67 785.29 369.39 763.37 379.96 736.26 393.04 726.97 403.44 701.58 406.68 694.98 421.02 674.42 422.54 668.01 446.53 650.41 449.87 644.6 463.4 585.61 502.9 546.91 516.94 526.62 533.13 535.58 543.6 517.44 563.31 515.02 573.73 509.5 579.82 499.67 583.72 490.11 581 479.97 587.54 482.13 602.6 480.79 613.04 468.38 623.1 467.62 624 433.86 612.3 423.71 614.98 410.75 612.37 391.11 605.08 384.1 594.3 365.93 554.89 370.54 541.43 372.11 533.23 371.13 523.91 369.08 514.18 361.84 506.11 350.05 500.19 327.61 496.37 302.99 497.09 297.81 493.55 292.67 433.64 289.92 423.43 286.42 414.02 281.79 404.04 275.34 385.98 268 379.39 236.15 374.52 222.54 377.54 213.84 383.6 207.09 392.18 198.7 399.86 187.32 400.95 171.88 396.37 133.83 373.02 120.22 366.94 107.1 366.38 99.24 366.92 69.73 363.52 1 337.48 7.59 322.14 15.19 298.12 16.99 275.18 11.8 214.39 43.34 194.33 51.88 185.3 66 174.95 73.44 167.92 82.16 162.43 106.76 157.22 115.89 151.44 126.55 138.38 133.81 133.56 185.58 127.39 198.84 132.12 207.49 138.91 215.23 147.14 223.06 151.16 232.55 152.73 245.99 150.76 257.37 146.84 282.33 132.76 292.2 129.49 323.6 123.73 335.76 118.82 346.9 109.74 356.67 91.74 365.89 84.78 382.28 79.86 416.66 75.83 517.85 75.33 543.54 83.99 552.49 81.58 560.78 77.78 577.08 39.83 577.37 37.33 Z"/>
</g>
</svg>