<?xml version="1.0"?>
<svg xmlns="http://www.w3.org/2000/svg" version="1.2" baseProfile="tiny" width="800" height="601" viewBox="0 0 800 601" stroke-linecap="round" stroke-linejoin="round">
<g id="ne_10m_admin_1_states_provinces">
<path d="M 27.74 570.97 54.29 547.67 66.38 531.29 73.27 511.38 80.11 461.99 78.82 415.51 74.65 396.69 67.5 381.73 56.29 367.06 41.69 354.12 27.04 344.63 13.3 333.28 1 314.3 19.81 325.5 46.63 337.24 72.13 343.43 87.49 337.79 103.66 355.21 129.8 346.7 157.63 325.63 178.39 305.18 203.32 285.61 259.22 260.2 287.03 243.04 294.93 232.11 302.15 217.23 310.43 204.31 321.72 198.81 329.66 197.7 344.25 192.81 352.84 191.71 361.55 194.19 374.66 204.45 390.98 208.82 401.9 218.22 411.55 222.03 419.93 221.72 434.08 215.88 442.45 215.56 474.09 223.81 480.54 216.17 491.9 193.05 506.28 210.21 511.7 203.62 513.37 188.14 516.1 178.43 530.65 176.39 539.1 183.05 543.7 194.82 546.67 208.38 546.42 238.38 550.52 249.34 565.24 253.71 572.33 248.94 592.12 225.34 596.37 216.87 615.19 232.5 635.55 239.6 645.22 252.01 632.88 283.34 667.99 304.12 679.44 306.58 690.43 311.17 709.92 331.21 722.67 335.89 746.58 332.06 757.9 332.79 762.41 340.11 766.03 349.16 774.94 360.36 796.58 377.7 799 377.81 798.63 380.94 778.19 428.56 767.79 433.33 756.56 436.36 724.35 425.49 597.41 426.12 554.3 431.17 533.74 437.35 522.17 446.08 509.92 468.68 495.94 480.07 480.69 486.23 441.31 493.46 428.92 497.56 397.61 515.24 383.34 520.16 366.48 522.63 354.58 520.65 344.76 515.61 335.05 505.28 324.19 496.76 307.57 490.82 242.63 498.56 233.53 504.61 220.15 521 208.7 528.26 177.84 534.8 166.9 541.69 157.58 550.51 139.87 563.5 129.15 574.83 89.6 600 77.16 584.33 57.73 577.77 27.96 571.02 27.74 570.97 Z M 733.51 1.21 729.79 10.88 731.92 20.76 736.25 32.11 739.46 45.76 734.43 77.23 714.26 135.33 710 125.65 701.6 120.07 690.25 118.13 677.41 119.64 677.46 112.87 694.63 110.33 698.87 100.89 690.85 93.71 671.4 97.96 658.55 111.59 648.74 130.32 637.99 145.6 621.76 148.93 625.93 110.38 621.03 98.75 603.29 89.37 586.57 90.08 569.45 95.96 555.29 96.47 547.5 81.49 556.87 74.27 557.7 62.59 556.49 49.22 560.18 37.13 585.97 45.65 608.07 39.36 646.92 15.41 657.71 12.25 689.96 9.02 721.21 1 733.51 1.21 Z M 144.93 167.59 152.69 180.38 153.76 194.6 148.82 202.77 141.93 207.46 135.92 212.61 133.01 215.71 126.45 212.31 120 199.88 123.26 186.6 135.55 172.2 138.27 166.26 144.93 167.59 Z M 446.24 85.86 437.7 81.49 435.16 78.76 436.73 76.04 443.66 71.37 451.66 70.16 467.22 59.82 477.5 57.48 481.06 60.65 488.18 67.09 493.97 67.71 496.38 69.02 494.82 79.14 477.61 101.95 470.58 100.86 463.16 94.34 462.43 93.98 446.24 85.86 Z" fill-rule="evenodd"/>
</g>
</svg>