<?xml version="1.0"?>
<svg xmlns="http://www.w3.org/2000/svg" version="1.2" baseProfile="tiny" width="800" height="799" viewBox="0 0 800 799" stroke-linecap="round" stroke-linejoin="round">
<g id="ne_10m_admin_1_states_provinces">
<path d="M 296.63 788.13 290.49 789.47 286.27 789.05 265.92 774.35 258.04 771.36 264.17 779.3 254.99 778.07 247.13 774.26 241.24 774.68 237.68 786.49 240.58 788 244.71 792.37 247.36 794.48 239.05 798 231.09 796.46 224.65 790.88 216.33 772.13 227 763.68 221.95 751.24 228.5 742.93 231.18 738.49 221.95 720.97 217.42 711.07 202.88 709.02 192.7 704.05 181.15 723.93 174.32 721.95 183.33 708.39 181.82 700.31 187.28 693.98 208.14 703.88 217.64 702.55 223.39 695.79 213.58 695.55 216.68 687.27 216.98 679.61 214.11 674.01 207.59 671.99 207.67 668.46 218.4 669.26 220.52 668.77 222.64 666.87 226.29 662.87 227.6 658.75 222.57 656.79 208.52 656.05 204.03 652.74 201.68 644.95 203.13 637.91 213.07 635.02 208.74 628.42 203.48 624.68 196.66 620.07 192.56 625.62 184.5 626.62 182.83 617.04 195.12 613.96 207.21 617.03 213.99 617.74 214.56 624.95 222.39 630.85 226 637.93 235.46 631.26 234.54 621.24 240.06 613.04 250.86 610.88 256.83 605.69 251.51 596.61 245.7 592.25 253.97 585.27 245.74 584.81 237.76 587.54 235.42 582.52 230.33 580.05 226.93 576.65 227.21 568.48 236.99 561.31 245.42 559.34 247.11 555.36 228.55 554.11 196.45 560.02 187.47 556.92 182.32 552.91 176.81 550.89 179.59 544.45 183.11 542.26 191.04 541.67 194.78 538.79 195.72 535.42 197.95 519.4 188.77 526.56 183.34 519.36 183.9 506.3 192.26 495.84 192.36 491.94 185.82 491.78 187.76 487.3 190.69 483.77 194.45 481.4 198.92 480.07 180.09 467.28 171.44 465.9 162.65 466.21 157.39 468.77 151.81 471.41 145.01 467.39 130.79 476.72 118.75 480.17 99.73 489.81 82.9 498.47 68.39 508.25 63.1 516.78 58.74 522.6 50.84 522.05 44.92 518.47 49.36 509.12 31.45 519.52 8.09 531.84 1 529.3 10.41 520.29 21.07 514.43 42.06 496.49 61.93 490.45 70.36 493.3 76.81 490.75 72.4 485.7 71.67 480.99 79.48 476.3 93.22 471.32 103.78 472.17 112.93 466.39 124.37 466.98 138.61 455.18 196.01 428.33 203.88 421.32 207.41 412.23 210.54 407.01 224.7 390.7 229.1 387.26 239.4 378 288.12 358.95 296.29 351.2 309.36 342.77 324.54 328.23 334.84 305 334.48 288.04 332.22 272.31 336.92 251.59 340.73 236.45 343.98 220.83 364.3 217.98 365.81 203.95 373.2 192.17 372.46 169.09 386.38 159.78 409.72 144.95 417.11 136.01 444.2 129.43 446.01 120.08 449.83 114.72 448.04 104.81 438.6 103.76 433.45 103.63 434.58 98.23 443.09 99.81 449.38 100.15 456.08 88.08 461.42 97.25 464.83 99.74 467.13 103.68 471.93 107.05 497.54 139.43 510.38 174.7 514.42 184.56 518.11 192.9 522.42 198.93 532.4 203.76 541.46 208.43 550.81 209.59 563.54 204.66 580.52 201.07 597.15 196.3 599.79 186.16 614.22 181.17 624.07 182.62 634.98 177.37 643.69 177.86 652.65 182.13 678.73 180.81 689.83 183.18 712.56 192.16 724.26 193.19 734.32 190.09 742.25 184.49 748.58 177.47 753.82 170.25 760.93 162.27 763.15 160.32 763.27 160.35 778.88 163.89 789.07 167.33 795.59 175.55 799 215.58 797.82 230.69 792.82 246.5 788.49 256.61 746.77 257.48 725.29 266.38 715.06 273.32 702.84 276.16 683.1 276.38 662.52 279 639.25 278.74 623.58 282.97 615.71 282.31 607.43 282.91 601.88 286.59 591.96 297.13 585.48 300.32 578.87 300.67 569.6 298.8 564.46 301.14 560.76 305.71 557.85 311.45 549.32 324.75 533.87 357.25 529.35 364.64 524.14 371.45 513.67 380.6 509.17 387.79 505.82 396.6 503.9 404.34 498.51 417.97 497.75 424.25 498.28 435.17 496.89 440.81 493.35 448.16 477.25 468.62 469.09 476.44 461.58 480.23 451.97 482.74 389.81 481.21 384.38 484.6 381.83 489.44 384.67 502.42 385.41 509.49 386.98 516.03 390.94 521.61 395.39 526.63 398.86 531.35 401.93 537 406.21 541.93 411.89 547.16 416.04 552.41 417.91 558.18 415.08 565.88 406.77 572.73 378.77 588.73 370.24 595.21 364.95 601.2 362.24 607.67 360.36 614.67 359.63 620.96 358.48 625.93 357.13 630.02 353.11 633.32 340.44 641.4 334.85 647.53 326.27 662.19 321.27 666.11 315.39 666.41 309.57 662.58 296.24 649.37 289.57 648.42 287.15 653.15 287.18 658.37 288.76 664.44 296.92 684.3 300.51 690.43 302.69 696.86 302.17 703.71 302.5 710.12 304.58 716.93 313.1 735.87 312.77 747.54 314.36 757.77 313.23 763.75 311.24 769.38 298.19 788.07 296.63 788.13 Z M 483.91 50.32 466.85 59.4 462.64 55.72 466.69 44.23 469.87 41.67 477.66 39.6 480.11 36.69 480.61 30.92 478.6 27.12 474.86 25.14 470.32 24.79 479.57 13.34 489.83 3.14 499.35 1 506.16 13.81 510.91 31.44 508.84 42.85 500.65 51.24 483.91 50.32 Z M 311.65 157.57 312.81 159.11 312.87 165.13 311.99 171.35 311.06 174.75 309.1 177.4 308.12 179.88 307.71 185.59 300.84 191.73 291.35 193.73 286.06 189.87 285.19 182.3 289.83 175.97 294.73 171.37 298.28 168.69 300.27 167.81 303.45 165.93 309.21 160.81 311.65 157.57 Z M 528.1 70.62 530.78 70.16 531.97 72.6 528.38 78.57 504.58 102.09 496.28 105.83 491.27 101.57 491.34 91.61 493 84.03 495.71 81.34 498.6 81.58 500.99 82.11 499.72 77.47 496.22 68.94 499.61 61.46 510.26 59.3 517.84 62.58 520.19 66.85 523.14 70.11 528.1 70.62 Z" fill-rule="evenodd"/>
</g>
</svg>