<?xml version="1.0"?>
<svg xmlns="http://www.w3.org/2000/svg" version="1.2" baseProfile="tiny" width="800" height="610" viewBox="0 0 800 610" stroke-linecap="round" stroke-linejoin="round">
<g id="ne_10m_admin_1_states_provinces">
<path d="M 799 178.11 788.84 189.99 775.83 215.2 761.97 260.16 758.78 280.22 754.49 295.62 753.45 302.84 751.04 316.49 750.52 328.77 744.29 335.25 736.08 317.2 728.89 305.32 722.46 306.48 712.91 303.82 713.78 292.81 701.31 279.78 683.57 255.49 677.21 238.67 664.26 233.64 651.8 227.56 639.97 215.02 632.56 196.3 601.03 192.54 559.93 181.52 549.43 171.9 519.19 176.13 490.19 182.76 481.82 190.08 462.64 198.29 426.04 214.79 418.88 227.26 420.87 235.94 413.85 242.81 402.59 247.26 392.14 248.83 384.89 248.95 380.16 249.84 376.35 252.09 371.82 256.16 363.29 267.86 361 268.98 362.47 259.63 359.39 258.12 356.38 255.91 347.25 261.58 336.81 270.96 329.96 281.89 331.55 292.38 328.51 298.74 329.64 303.16 332.33 306.83 334.02 310.73 334.53 313.36 336.22 315.22 336.69 317.75 335.97 321.58 334.03 323.64 331.92 325.04 330.97 326.97 328.42 339.28 322.76 346.29 316.32 352.29 311.05 355.89 312.02 367.52 315.34 371.19 308.2 375.38 305.63 369.13 299.47 368.65 287.91 382.44 272.73 407.98 261.2 422.75 256.42 429.61 257.06 437.9 256.48 442.81 252.86 444.99 246.08 439.8 236.36 433.85 220.59 441.85 212.74 461.56 209.06 481.83 215.32 506.34 211.88 524.56 206.14 528.07 193.11 527 190.3 533.1 191.38 542.33 190.07 553.46 196.45 557.62 199.49 564.07 203.09 568.45 211.64 576.55 217.5 584.37 221.96 594.22 221.95 604.4 210.18 609 202.18 604.58 198.69 601.89 196.41 598.01 192.26 587.51 190.09 583.46 182.22 576.97 171.39 572.72 161.29 574.53 155.75 586.12 151.84 577.28 145.66 576.7 138.71 581.2 132.39 587.61 124.41 591.96 115.05 591.57 106.27 588.49 99.81 584.97 87.28 573.04 79.33 564.63 58.04 569.88 40.98 583.85 37.72 572.57 39.61 558.41 50.16 544.61 58.22 528.12 72.02 513.67 77.76 506.92 79.71 500.4 48.4 499.97 49.87 499.92 62.13 482.38 64 477.09 65.06 471.48 63.57 461.87 63.88 450.92 55.87 433.14 53.91 426.74 53.6 420.72 54.1 414.3 52.04 408.26 48.67 402.5 41 383.86 39.52 378.16 39.49 373.26 41.76 368.82 48.04 369.71 60.56 382.11 66.02 385.71 71.56 385.43 76.25 381.75 84.32 367.99 89.57 362.23 101.48 354.65 105.25 351.55 106.52 347.71 107.6 343.04 108.28 337.14 110.05 330.56 112.6 324.5 117.57 318.87 125.59 312.78 151.89 297.77 159.7 291.34 162.36 284.11 160.61 278.69 156.71 273.76 151.37 268.85 147.35 264.22 144.46 258.92 141.21 254.49 137.03 249.78 133.3 244.54 131.83 238.4 131.13 231.77 128.46 219.58 130.86 215.03 135.96 211.85 194.37 213.28 203.4 210.93 210.46 207.37 218.13 200.03 233.26 180.82 236.59 173.92 237.9 168.63 237.39 158.38 238.11 152.48 243.17 139.69 244.98 132.43 248.12 124.15 252.35 117.4 262.2 108.81 267.09 102.42 271.34 95.48 285.85 64.97 293.87 52.49 296.61 47.1 300.08 42.81 304.91 40.61 313.63 42.37 319.83 42.03 325.92 39.04 335.25 29.15 340.46 25.69 348.24 25.13 355.63 25.75 370.36 21.78 392.23 22.02 411.57 19.56 430.12 19.36 441.6 16.69 451.22 10.17 471.4 1.82 510.6 1 553.08 17.09 571.32 19.19 576.17 18.86 584.28 19.21 592.7 22.97 616.21 37.4 625.76 40.23 632.79 39.56 637.98 34.81 642.15 29.51 647.52 25.76 655.93 23.89 675.62 26.91 680.16 30.98 684.15 42.14 687 48.31 689.17 54.13 690.87 60.44 694.05 97.47 697.25 99.66 712.46 99.22 726.33 101.58 733.62 105.23 738.09 110.22 739.37 116.24 739.97 122 739 127.07 736.15 135.39 747.38 159.75 751.71 166.41 763.85 170.92 771.86 172.53 778.13 170.88 799 178.11 Z M 11.13 588.51 14.02 592.74 15.24 597.52 14.8 601.91 11.29 605.76 5.06 608.64 2.2 606.35 1.14 599.33 1 592.74 2.92 586.46 5.16 583.72 7.99 585.56 9.33 586.76 11.13 588.51 Z" fill-rule="evenodd"/>
</g>
</svg>