<?xml version="1.0"?>
<svg xmlns="http://www.w3.org/2000/svg" version="1.2" baseProfile="tiny" width="800" height="817" viewBox="0 0 800 817" stroke-linecap="round" stroke-linejoin="round">
<g id="ne_10m_admin_1_states_provinces">
<path d="M 1 427.9 3.68 424.88 6.51 404.76 13.76 396.91 34.74 387.42 46.98 382.88 54.85 385.22 62.15 379.21 64.81 376.88 73.63 375.54 82.98 371.44 90.84 364.2 94.97 353.68 86.53 353.97 64.62 359.62 58.06 357.12 56.26 345.93 50.2 343.49 41.8 342.08 38.4 338.21 39.01 332.49 42.69 325.68 49.93 318.99 56.96 317.68 63.66 317.61 70.67 314.73 82.4 304.89 80.35 294.71 84.17 285.93 91.86 286.45 99.51 286.2 105.52 285.1 110.35 282.34 115.09 277.27 117.08 256.45 125.73 260.73 133.44 265.91 136.82 273.31 130.5 281.09 133.56 294.18 143.23 299.87 147.45 302.93 161.45 299.73 163.95 306.51 157.23 318.72 162.65 323.52 171.06 328.07 174.44 330.3 177.83 326.29 182.09 325.73 184.72 321.36 191.37 311.09 201.64 310.5 220.71 310.8 230.94 305.83 243.15 304.25 248.94 294.95 250.78 282.78 254.06 266.7 251.06 260.4 247.81 251.47 234.58 259.76 222.61 270.6 214.01 274.89 205.16 269.64 197.29 265.34 192.85 261.01 185.06 263.52 176.68 256.32 172.63 242.26 176 235.91 183.34 237.29 187.37 249.4 196.71 255.63 211.4 257.42 239.35 244.94 249.87 234.81 258.82 223.68 267.9 214.64 278.72 210.78 283.77 202.7 294.25 189.76 295.61 173.9 293.19 159.59 285.6 158.16 280.24 151.9 281.16 141.81 284.38 137.29 289.64 134.34 296.47 129.04 300.23 122.74 307.5 97.83 313.15 103.69 320.33 102.82 335.88 92.34 341.63 85.78 343.78 80.4 347.73 76.41 359 74.16 391.45 76.53 405.78 74.1 419.96 62.53 440.21 31.08 445.62 28.45 454.4 27.17 462.48 27.7 472.44 32.5 489.06 22.5 512.6 21.5 538.46 25 534.03 40.92 543.89 36.28 561.37 36.09 568.23 45.86 575.1 60.16 586.24 65.39 597.56 63.65 605.96 57.01 616.21 42.26 621.38 24.62 639.61 8.53 660.37 1 668.42 8.88 666.45 26.26 660.52 36.4 658.73 41.44 659.21 46.14 651.74 57.3 657.96 65.74 656.84 76.73 646.42 76.85 648.96 84.75 650.86 90.83 646.64 97.58 643.59 102.55 632.67 110.54 631.75 121.38 631.64 124.52 634.64 127.06 648.08 130.41 662.68 126.5 660.92 153.94 662.71 159.98 665.69 181.36 672.87 197.32 694.85 233.55 704.7 256.83 716.55 271.62 731.6 280.1 743.23 278.15 761.09 281.65 790.57 285.63 799 288.17 795.14 292.69 786.44 301.25 784.67 304.87 781.86 312.65 782.11 324.86 787.98 343.61 786.76 351.44 782.78 360.09 774.69 370.49 770.8 378.31 765.71 384.94 759.07 388.45 748.62 389.81 707.11 384.12 665.81 383.27 659.54 384.37 649.68 387.15 629.14 396.23 620.63 402.83 612.27 412.19 602.37 426.62 585.56 446.1 578.25 460.65 571.76 479.76 555.98 506.84 554.16 512.22 553.28 516.96 552.87 523.77 553.42 531.1 557.99 554.08 556.96 568.2 547.34 604.67 550.7 619.6 566.25 664.44 569.17 678.13 555.37 729.29 522.02 713.8 481.39 686.62 472.55 682.93 462.16 681.92 451.32 682.54 443.04 686.55 427.28 705.01 417.76 712.41 405.32 715.19 379.17 717.85 368.08 723.51 356.37 735.34 339.51 748.6 330.3 758.7 324.09 771.48 325.33 786.05 326.41 791.25 324.78 797.31 323.95 799.17 314.16 803.86 287.39 808.48 276.6 815.89 276.45 816 274.27 794.19 275.19 758.59 270.26 742.87 270.51 732.35 269.39 728.26 265.47 725.01 261.75 724.19 258.15 723.97 255.15 722.35 240.68 712.02 235.66 706.31 232.28 696.94 232.53 689.9 230.23 685.52 219.58 684.25 219.57 684.15 217.31 672.12 216.56 663.72 217.38 653.21 222.1 645.88 227.95 640.53 230.89 636.74 233.27 630.41 236.16 614.14 240.54 606.53 247.09 600.87 256.23 596.72 263 591.44 269.5 587.56 283.7 586.85 289.94 582.68 297.8 568.94 301.79 563.98 306.4 549.99 310.44 541.29 318.54 535.28 326.63 531.45 333.34 530.4 339.28 527.7 343.18 521.88 346.07 495.74 345.81 489.77 340.26 463.31 338.64 459.31 333.51 453.96 324.81 451.88 311.24 455.3 291.92 464.66 283.75 470.31 269.88 482.67 261.67 483.12 252.48 477.08 237.56 461.61 227.98 455.42 217.58 450.51 175.39 424.93 165.21 420.44 153.98 417.69 134.64 416.69 121.72 417.48 88.43 423.59 59.3 423.52 38.44 426.54 1.11 427.9 1 427.9 Z"/>
</g>
</svg>