<?xml version="1.0"?>
<svg xmlns="http://www.w3.org/2000/svg" version="1.2" baseProfile="tiny" width="800" height="743" viewBox="0 0 800 743" stroke-linecap="round" stroke-linejoin="round">
<g id="ne_10m_admin_1_states_provinces">
<path d="M 58.37 271.85 58.54 272.3 64.05 304.2 71.68 317.43 82.79 327.74 96.89 334.19 93.08 317.85 86.01 290.3 90.8 251.15 103.65 227.14 115.87 214 106.35 199.57 113.25 190.46 59.35 155.86 39.18 133.53 29.22 121.34 39.26 105.29 46.37 87.82 60.9 84.79 78.51 106.46 84.64 121.04 92.51 135.6 106.09 142.16 115.54 134.81 110.81 117.98 87.07 88.24 79.46 49.13 97.44 25.01 95.82 1 111.93 16.89 129.42 21.09 154.11 6.98 187.14 25.67 206.94 48.62 202.67 60.87 191.07 75.56 186.76 89.44 199.24 96.52 208.69 85.48 213.17 97.77 213.24 109.38 222.08 120.17 236.03 126.5 264.69 129.98 276.89 123.88 284.45 115.34 284.61 115.34 340.27 113.31 371.38 108.81 414.82 108.9 464.46 99.8 483.73 98.63 512.57 100.12 529.3 104.21 544.49 110.91 607.4 149.04 622.92 156.36 637.19 165.59 659.45 188.65 673.15 197.66 685.39 196.98 706.08 178.56 718.26 170.14 747.06 156.18 767.29 151.08 780.27 154.18 787.91 162.16 790.33 168.13 798.6 207.57 799 216.48 794.69 255.44 788.88 264.13 780.02 268.14 770.01 269.71 757.94 275.41 745.86 284.37 739.84 297.35 732.97 318.21 727.02 325.59 715.3 346.08 705.99 352.31 684.82 353.35 675.12 359.14 665.03 367.02 651.41 373.21 641.64 381.65 635.1 392.98 630.8 417.24 627.25 426.68 622.86 432.33 614.14 440.31 607.11 451.24 605.88 466.89 606.99 479.42 610.36 497.36 610.39 497.51 598.08 496.03 574.72 490.06 560.05 488.85 549.66 489.05 516.01 453.91 498.64 442.4 476.33 477.84 434.43 508.35 406.6 536.82 382.48 526.01 387.24 549.15 401.03 569.96 417.27 607.36 462.84 683.06 482.05 703.11 479.08 727.78 463.78 733.07 463.72 742 359.69 723.11 314.29 707.34 285.94 690.11 268.86 675.34 249.49 654.23 174.78 591.82 166.37 580.23 164.53 569.95 180.35 554.87 184.89 544.49 185.25 530.97 179.2 514.37 167.95 499.56 153.33 492.86 109 481.01 74.94 462.68 60.22 449.49 51.35 436.45 47.92 424.72 42.56 412.41 9.91 364.09 2.37 349.36 1 336.04 6.97 324.84 38.23 289.13 53.96 279.4 58.37 271.85 Z"/>
</g>
</svg>