<?xml version="1.0"?>
<svg xmlns="http://www.w3.org/2000/svg" version="1.2" baseProfile="tiny" width="800" height="1135" viewBox="0 0 800 1135" stroke-linecap="round" stroke-linejoin="round">
<g id="ne_10m_admin_1_states_provinces">
<path d="M 720.67 932.68 720.61 940.48 713.86 947.77 702.7 951.1 696.29 958.02 689.83 962.01 681.25 966.76 676.75 969.12 684.42 972.82 689.07 979.62 698.62 986.68 709.69 986.54 717.18 985.16 738.8 968.77 767.37 967.89 781.93 978.19 787.39 990.16 797.1 1011.59 798.36 1018.6 799 1035.76 798.13 1040.52 789.87 1052.18 788.13 1059.2 792.69 1067.71 784.23 1078.82 768.08 1087.44 751.29 1088.21 747.2 1091.71 747.67 1097.63 745.01 1101.86 737.19 1103.2 735.03 1109.85 731.25 1112.09 720.16 1113.76 712.61 1119.51 705.63 1119.25 708.75 1113.54 707.09 1105.34 700.71 1101.92 696.87 1097.53 688.91 1093.82 688.5 1083.09 688.08 1071.11 694.42 1072 699.47 1069.75 705.44 1063.39 710.14 1059.54 715.78 1054.73 720.75 1049.28 724.73 1044.45 723.39 1034.41 718.08 1031.69 714 1029.25 712.19 1025.57 713.58 1022.72 715.41 1017.85 710.05 1012.89 696.41 1011.75 692.01 1015.26 686.62 1015.3 672.02 1012.27 658.77 1017.75 652.5 1024.43 644.64 1031.42 633.9 1034.04 626.01 1038.21 616.84 1039.55 613.34 1035.15 613 1030.41 611.41 1028.85 607.32 1032.67 609.88 1039.29 604.23 1048.19 592.96 1064.37 587.05 1073.53 583.3 1083.37 574.16 1090.73 565.64 1095.53 559.27 1095.94 557.71 1100.07 555.32 1108.52 544.71 1118.3 534.55 1126.06 533.27 1131.17 530.4 1129.62 524.35 1127.8 518.28 1131.71 514.13 1134 511.23 1127.39 518.2 1121.6 523.63 1119.29 529.69 1116.66 533.17 1113.15 538.1 1099.87 542.74 1091.67 547.13 1083.73 548.68 1075.81 546.76 1072.66 542.01 1075.56 539.12 1072.12 539.11 1068.01 544.51 1067 547.34 1062.87 552.11 1061.23 555.94 1066.88 561 1063.04 566.91 1050.64 551.07 1052.11 551.09 1044.62 541.84 1025.44 537.13 1021.28 533.24 1018.8 530.51 1015.57 529.44 1009.05 526.98 1003.4 519.56 1001.04 515.03 1005.65 509.82 1007.98 504.5 996.58 494.15 990.02 489.13 981.94 485.21 973.66 483.49 968.31 482.87 962 481.18 955.32 477.39 950.16 473.13 945.9 467.09 943.94 463.72 928.02 464.22 916.02 470.4 910.42 473.6 902.59 471.86 895.8 472.76 887.02 476.68 883.73 477.82 868.14 485.88 854.76 503.21 862.68 509.77 872.59 510.07 873.86 509.6 878.54 509.82 879.83 511.28 880.08 514.12 877.2 516.7 874.25 519 875.2 520.99 879.08 518.09 882.36 511.68 894.44 510.46 902.57 513.15 909.36 517.69 906.72 524.09 894.97 537.85 899.06 544.79 907.12 549.77 915.2 546.54 919.78 545.61 924.66 546.72 937.33 546.14 945.47 542.59 949.73 539.93 944.87 537.52 932.17 533.61 932.19 535.09 951.09 541.35 956.24 543.07 965.01 537.24 970.91 546.45 977.01 550.07 979.58 554.03 983.76 558.64 986.97 560.3 990.2 562.57 988.55 564.5 985.28 570.68 982.29 573.25 978.05 577.09 970.18 600.67 978.06 624.22 987.83 631.06 985.82 623.14 976.48 598.38 941.72 597.58 926.44 601.75 918.6 605.41 906.48 604.43 895.48 589.3 884.59 575.46 870.75 562.77 875.42 554.33 881.35 549.76 881.4 549.01 871.01 537.83 863.31 532.96 866.94 527.8 873.49 521.6 874.2 515.02 869.71 513.17 864 508.95 850.59 511.57 850.89 516.11 852.4 514.43 842.74 514.71 838.19 520.89 835.53 520.2 830.68 515.3 830.4 506.77 839.62 504.55 834.07 503.52 827.27 504.1 820.45 498.23 818.27 499.39 829.7 497.61 841.33 495.89 845.28 492.63 843.99 485.42 843.71 482.21 849.58 479.1 850.99 477.14 837.58 486.64 835.11 488.13 829.15 486.42 823.79 482.39 819.62 477.42 816.58 472.75 814.41 474.18 809.73 474.16 806.57 472.61 803.72 469.39 799.91 466.05 802.42 461.62 802.97 456.84 801.48 449.05 794.26 444.57 792.79 432.96 792.86 427.56 785.06 432.48 769.27 433.33 760.46 437.1 757.9 440.27 758.81 444.98 754.36 443.99 750.91 441.72 744.95 435.92 734.62 437.99 720.12 439.77 707.82 445.09 702.42 457.74 713.95 468.34 712.25 481.06 692.94 483.96 697.63 482.84 712.13 493.64 717.06 512.85 710.92 541.17 719.31 544.4 728.26 542.48 731.54 535.64 735.77 522.05 751.3 519.45 756.17 520.05 761.96 523.33 768.37 537.53 789.37 539.85 794.73 541.35 799.82 545.2 805.5 551.6 811.23 566.41 819.2 585.69 824.35 592.05 827.27 596.94 833.71 599.57 840.92 599.41 846.8 597.44 851.31 590.56 857.87 591.36 862.34 595.02 867.38 627.51 894.51 635.93 903.69 643.36 910.12 655.69 917.6 675.43 924.46 720.67 932.68 Z M 126.13 1079.06 133 1087.74 136.33 1093.43 136.33 1093.92 135.48 1095.76 127.24 1095.84 116.88 1095.27 98.79 1099.93 97.8 1093.43 87.79 1090.39 85.48 1092.51 81.67 1093.41 79.98 1095.68 78.32 1101.32 79.64 1103.85 81.87 1105.09 88.53 1112.93 87.29 1119.39 86.36 1125.53 78.65 1133.34 70.68 1128.62 62.01 1116.38 51.37 1115.92 29.06 1117.32 24.45 1122.87 9.14 1113.01 1 1110.51 2.55 1101.79 5.63 1095.46 6.96 1091.38 9.07 1086.37 11.83 1082.31 15.24 1080.96 15.78 1083.3 17.16 1094.85 18.25 1099.42 18.7 1096.18 24.6 1082.03 25.35 1076.69 25.48 1070.9 25.02 1065.18 23.76 1060.03 22.56 1057.61 21.25 1055.42 20.16 1053.06 20.02 1050.07 20.84 1047.26 23.71 1041.3 19.86 1032.33 24.01 1024.89 28.46 1020.98 36.65 1020.95 39.63 1027.33 45.84 1041.77 48.41 1039.82 55.83 1036.21 65.42 1034.11 81.63 1024.4 83.85 1018.26 94.8 1012.05 96.37 1021.35 95.82 1025.35 95.7 1030.04 103.39 1032.26 109.95 1033.57 113.3 1042.46 109.8 1063.13 115.71 1071.11 126.13 1079.06 Z M 224.71 911.98 229.97 914.83 256.8 902.61 262.72 913.83 259.67 923.25 250.88 927.78 242.33 938.59 233.51 939.84 225.81 948.79 222.31 955.39 221.42 963.43 224.99 972.11 224.77 975.66 224.14 981.79 219.48 981.63 211.28 979.55 208.4 986.35 211.64 991.24 211.57 998.29 209.96 1002.6 201.33 1000.33 201.96 990.04 198.94 978.73 199.41 961.04 202.25 953.62 195.62 941.2 191.68 938.78 175.77 935.45 171.58 933.61 172.49 926.84 179.94 923.55 189.95 916.06 196.51 923.09 205.21 916.75 199.88 905.68 202.58 884.71 210 882.39 211.1 895.59 215.62 894.91 218.43 893.32 218.56 882.79 217.07 875.57 219.25 865.24 226.34 861.64 228.52 851.95 224.9 844.88 223.87 839.1 229.18 817.13 233.43 821.29 232.87 830.97 230.97 835.82 229.39 840.67 232.67 845.15 236.25 847.7 233.76 858.67 230.93 868.36 226.79 876.78 225.26 886.77 224.37 896.12 224.71 911.98 Z M 428.62 686.73 431.64 710.32 428.87 717.38 422.74 726.7 416.3 733.22 421.14 737.38 415.82 743.9 410.48 746.76 410.52 752.1 404.63 756.37 405.26 764.22 401.12 774.92 380.46 799.81 365.29 810.61 348.96 815.24 340.92 811.43 333.95 810.03 335.03 804.41 337.18 792.03 342.05 799.85 352.85 807.91 359.72 806.71 362.54 802.27 361 800.35 357.83 797.74 352.76 796.95 349.6 791.36 351.52 783.76 356.84 778.11 367.04 779.45 363.28 770.48 362.33 759.25 376.06 747.65 377.62 732.45 378.36 720.32 401.75 714.78 407.57 702.1 410.97 704.05 414.12 709.36 421.4 703.41 414.3 697.56 415.09 689.92 428.62 686.73 Z M 525.6 493.31 535.94 497.8 536.03 505.13 529.07 512.02 518.64 512.57 507.39 512.95 502 523.62 501.3 533.73 496.59 532.12 487.87 524.32 481.75 517.19 483.41 509.14 478.77 506.02 472.74 510.09 469.22 502.95 467.99 494.06 481.48 500.37 485.97 501.17 485.94 497.53 474 488.27 473.04 477.65 472.41 471.34 481.94 471.55 479.55 462.38 482.07 453.45 485.47 447.68 486.29 441.64 491.67 446.7 521.27 455.53 521.65 459.73 519.11 466.93 519.45 472.67 521.23 478.1 527.62 483.21 534.65 486.32 532.17 487.12 528.03 489.19 525.57 489.98 525.6 493.31 Z M 318.78 225.21 320.63 217.38 332.02 218.09 334.03 221.32 332.21 225.95 324.56 229.64 321.26 236.58 322.6 245.91 324.28 252.04 317.49 257.49 312.22 257.71 312.47 260.62 314.49 262.69 313.25 268.78 312.55 277.22 312.18 283.33 310.99 285.35 308.05 286.19 306.24 290.24 306.17 296.36 303.13 305.35 297.82 308.19 296.88 313.13 291.88 316.83 290.65 320.89 285.15 320.46 283.36 323.63 278.33 326.8 276.39 321.77 274.03 320.91 268.52 315.06 264.98 313.04 259.38 316.17 256.73 317.31 256.13 296.04 259.84 283.83 258.53 270.14 260.54 253.28 264.4 249.55 264.19 241.4 267.29 228.93 268.41 205.94 272.29 198.99 280.19 199.97 281.61 203.49 279.81 207.84 279.7 218.03 282.62 218.07 286.17 214.91 290.36 214.29 296.45 210.38 302.29 210.45 300.3 206.35 299.47 202.55 304.44 202.32 308.5 205 314.29 210.32 313.86 220.79 318.78 225.21 Z M 379.83 44.36 384.36 49.83 391.12 56.18 389.9 60.79 388.92 65.65 385.08 78.99 377.19 100.03 357.99 117.72 347.99 133.19 350.17 148.4 340.3 158.28 339.29 166.19 346.35 164.15 354.11 155.41 354.67 159.38 352.13 166.66 350.26 169.98 351.98 178.83 357.05 185.04 360.76 186.87 357.6 194.14 351.13 197.71 348.1 201.24 343.32 210.41 332.56 214.23 324.02 211.98 315.58 201.23 322.38 196.43 333.05 199.91 333.86 184.7 328.38 182.2 320.29 191.84 315.4 191.48 314.91 181.42 315.28 175.95 317.19 169.57 311.94 173.47 307.57 179.51 310.22 188.37 307.13 191.08 300.77 184.6 290.32 186.91 281.77 184.98 284.61 178.31 295.34 177.53 300.9 174.25 301.47 154.45 299.15 143.76 302.89 139.24 307.2 138.38 309.33 139.63 311.83 136.01 317.75 129.1 316.87 125.74 310.03 132.95 304.49 134.39 302.4 128.26 308.08 114.92 315.04 97.33 324.34 89.24 324.07 85.58 316.52 76 308.82 78.32 308 70.99 314.24 61.92 316.18 53.1 322.91 29.36 328.74 29.16 339.46 29.34 347.1 30.99 352.37 25.85 360.81 14.81 367.87 13.38 364.55 9.36 366.76 4.21 373.49 4.9 378.74 1 384.87 1.08 387.57 5.38 392.01 9.99 395.12 14.01 393.19 21.3 390.7 24.32 386.99 26.72 390.96 27.68 395.22 30.17 395.45 35.66 392.25 44.06 388.53 45.75 383.9 43.04 379.83 44.36 Z M 135.79 1002.33 137.18 1004.53 139.73 1011.35 139.14 1015.24 133.58 1021.77 127.94 1030.5 124.8 1031.45 120.81 1030.66 112.48 1025.38 108.98 1023.94 106.79 1018.58 107.15 1001.92 106.57 997.64 107.74 994.05 111.76 993.49 116.58 996.07 119.5 1002.03 120.73 1008.13 122.37 1011.46 124.16 1012.72 124.67 1011.12 124.31 1009.73 123.95 1007.87 122.78 1003.5 120.74 998.55 119.29 993.29 121.63 991.93 132.43 999.45 135.79 1002.33 Z M 159.77 972.62 160.79 978.53 161.96 990.01 160.35 995.75 156.99 997.17 155.93 999.64 157.35 1001.54 158.08 1004.96 156.14 1009.76 154.06 1009.71 153.18 1005.19 150.26 1002.96 146.24 1002.46 145.15 1001.04 146.72 998.98 146.68 996.3 144.97 993.44 142.96 991.41 140.37 989.5 134.02 982.06 131.28 981.15 128.36 982.31 127.27 978.76 131.84 974.36 139.94 976.74 146.84 984.69 149.14 985.6 147.94 979 148.93 977.68 152.83 979.76 154.84 977.42 155.39 971.52 156.82 969.44 158.9 971.43 159.77 972.62 Z M 193.29 959.02 194.02 963.3 194.24 964.97 193.44 982.49 191.62 986.54 188.84 986.54 188.62 981.95 186.94 980.83 183.76 977.69 179.38 976.65 173.03 978.99 170.73 978.06 169.05 975.37 167.11 974.08 166.46 972.91 164.71 964.47 164.93 959.84 168.69 959.71 177.08 964.32 178.83 963.96 178.32 961.4 175.77 958.81 173.51 955.39 172.85 952.32 171.68 950.16 171.54 948.17 173.03 946.56 173.95 945.05 173.91 943.41 177.41 943.28 185.11 945.89 190.08 950.05 191.83 954.33 193.29 959.02 Z M 241.31 746.32 244.81 754.32 247.87 758.73 247.62 762.71 240.79 768.25 237.67 774.16 234.04 774.69 226.91 773.29 221.96 769.96 219.12 767.5 216.43 766.85 214.33 767.59 214.83 762.87 220.6 755.17 227.14 752.13 231.32 750.83 238.08 745.42 241.31 746.32 Z M 428.49 642.52 436.28 641.35 437.64 645.45 433.94 650.71 427.89 653.42 421.18 652.55 415.58 649.77 412.1 650.99 410.96 653.47 408.96 653.78 405.04 653.41 406.58 648.4 414.56 640.69 422.14 635.45 426.6 635.65 428 639.4 428.49 642.52 Z" fill-rule="evenodd"/>
</g>
</svg>