<?xml version="1.0"?>
<svg xmlns="http://www.w3.org/2000/svg" version="1.2" baseProfile="tiny" width="800" height="763" viewBox="0 0 800 763" stroke-linecap="round" stroke-linejoin="round">
<g id="ne_10m_admin_1_states_provinces">
<path d="M 230.05 715.85 230.24 715.18 232.28 712.49 237.25 710.48 238.24 708.18 237.58 698.06 238.08 695.68 280.22 648.94 285.99 631.16 287.62 627.52 295.24 622.52 297.93 618.95 299.04 612.38 297.04 606.3 297.67 600.01 302.14 586.13 306.54 584.74 322.16 599.67 327.53 591.96 328.28 583.53 325.69 564 328.5 558.81 343.32 537.68 355.87 529.8 361.09 512.48 358.66 494.59 348.41 485.01 353.24 477.93 359.82 475.17 376.74 475.09 371.76 466.06 358.13 455.35 356.24 446.92 359.32 441.13 400.66 403.75 409.39 392.33 416.11 374.84 400.32 375.36 304.49 395.07 294.93 399.92 286.83 395.73 292.11 386.08 302.62 377.7 342.85 356.52 355.16 344.71 361.62 341.17 370.72 341.85 380.18 338.23 385.04 337.08 390.64 336.83 390.56 331.68 382.47 328.44 375.96 321.67 371.77 313.5 370.18 306.06 371.16 301.27 373.66 296.03 380.12 287.16 382.21 283.28 381.17 280.36 378.97 277.34 377.7 272.78 370.1 259.4 324.44 223.51 297.11 195.23 280 185.79 275.05 173.3 272.37 146.37 272.5 146.28 281.65 140 304.33 136.09 312.63 132.11 313.33 130.54 314.71 125.4 313.8 121 312.75 108.66 318.01 97.83 325.81 89.28 340.11 78.04 350.03 68.02 359.42 63.23 381.59 60.97 392.13 58.61 400.2 52.35 413.56 36.71 420.57 33.31 429.76 32.78 438.57 33.65 446.05 36.77 480.49 59.8 508.75 72.92 529.99 79.57 577.54 105.5 592.66 107.59 600.77 104.49 603.16 96.18 610.61 77.81 611.14 72.02 607.47 65.42 596.86 51.42 593.1 44.27 588.84 27.19 588.66 20.53 591.29 15.96 608.98 11.47 621.11 4.05 630.39 1 638.88 1.21 657.34 11.69 677.72 26.97 687.21 38.23 706.39 73.87 711.82 81.57 723.92 95.84 728.57 103.95 735.63 124.46 744.36 141.86 746.62 149.68 747.85 156.18 750.74 189.47 752.32 198.24 762.1 217.2 799 246.99 767.84 255.86 760.63 260.67 751.5 268.19 748 274.95 742.02 293.56 733.66 309.29 716.97 327.74 713.43 332.83 704.62 350.93 697.14 359.9 684.95 371.91 677.77 382.44 673.14 394.37 670.82 413.67 668.04 421.09 662.6 424.28 655.33 425.9 647.06 426.4 639.7 429.49 633.1 437.7 625.92 450.89 615.7 483.52 613.42 495.29 613.65 502.54 614.96 508.91 617.31 517.09 621.82 528.68 627 536.72 640.26 549.31 646.63 557.05 652.13 568.82 655.75 579.56 664.66 595.35 667.38 603.31 667.14 613.07 663.65 621.63 652.67 637.88 646.13 650.61 646.3 659.25 649.19 666.97 659.42 683.98 663.58 693.76 665.74 707.58 662.46 713.25 656.09 715.85 648.92 715.18 620.77 706.98 615.86 709.23 609.58 715.06 598.62 730.95 589.79 739.28 580.77 743.04 564.33 738.5 556.99 738.27 549.24 740.69 530.62 753.19 522.16 757.48 513.94 760.06 506.44 761.1 465.62 759.91 448.22 762 425.58 747.54 387.48 716.99 374.95 712.7 365.88 714.78 359.53 719.5 353.15 722.4 344.94 725.17 337.18 729.66 305.58 738.86 292.61 744.87 277.63 748.84 267.87 748.76 259.21 745.64 252.81 740.1 236.78 721.85 230.48 716.24 230.17 715.9 230.05 715.85 Z M 116.5 688 130.06 688.13 136.75 692.92 140.94 706.73 139.06 714.95 129.22 743.04 125.59 750.04 114.93 752.81 106.21 747.7 102.06 737.79 105.21 726.09 99.18 719.34 94.25 707.91 91.76 695.52 92.96 685.59 97.54 682.04 103.99 682.87 116.5 688 Z M 265.49 472.31 283.15 463.47 293.05 462.24 299.94 471.84 280.28 485.23 256.41 551.96 238.61 567.6 236.46 564.18 235.88 556.38 236.12 541.28 233.19 533.51 226.88 535.2 216 543.68 192.41 545.55 180.88 548.4 167.46 554.22 155.31 536.03 150.11 525.92 150.33 516.24 153.21 512.37 157.03 510.77 165.26 509.23 170.41 506.17 181.99 492.41 195.11 482.7 203.83 478.35 225.16 470.93 237.7 461.92 242.35 461.89 246.07 464.73 247.58 469.97 249.79 474.04 254.78 474.45 265.49 472.31 Z M 118.29 449.96 135.54 466.82 141.47 495.68 143.61 554.49 145.21 559.93 146.85 564.35 147.82 569.88 146.4 588.41 145.16 593.82 142.76 598.09 137.79 604.54 132.36 608.27 118.44 613.99 115.75 618.8 104.36 645.5 101.12 648.1 87.93 654.69 83.03 659.68 70.22 676.66 62.06 682.93 47.86 691.47 33.2 697.97 23.44 698.03 22.76 691.62 31.12 655.24 24.2 660.93 17.71 660.77 11.5 659.75 1.22 665.67 1 662.3 2.86 655.5 5.23 651.27 23.33 634.45 35.27 626.74 43.23 625.19 50.35 625.63 56.87 624.16 63.33 616.97 57.37 616.91 52.61 616.05 43.21 612.41 30.58 617.91 20.29 612.07 13.26 599.24 10.47 583.69 11.17 576.02 13.42 569.61 17.21 564.49 22.17 560.48 18.27 549.52 21.31 535.84 28.33 521.95 36.18 510.31 42.07 495.16 39.07 481.48 25.63 459.92 33.02 460.25 38.51 463.7 43.39 467.7 49.45 469.65 57.24 468.07 69.2 461.14 84.4 457.14 94.65 452.62 106.11 449.16 118.29 449.96 Z M 169.37 619.28 179.08 623.85 182.8 629.38 180.83 633.39 175.33 640.18 169.06 646.19 163.09 649.26 157.48 650.51 152.75 653.62 150.14 651.78 150.2 644.54 151.27 636.95 153.64 629.8 157.06 626.2 160.36 625.49 161.93 624.03 162.53 621.56 169.37 619.28 Z M 286.34 412.82 289.85 417.07 290.67 424.41 289.1 435.99 286.19 443.58 278.02 445.56 273.74 447.74 275.6 454.33 271.93 451.98 264.66 446.16 263.12 438.04 265.73 429.04 263.5 423.61 258.72 420.43 258.13 415.74 266.65 401.43 268.37 401.16 268.6 403.87 270.5 402.8 275.38 398.49 280.09 396.33 285.97 399.08 289.8 402.93 288.2 408.33 286.34 412.82 Z" fill-rule="evenodd"/>
</g>
</svg>