<?xml version="1.0"?>
<svg xmlns="http://www.w3.org/2000/svg" version="1.2" baseProfile="tiny" width="800" height="710" viewBox="0 0 800 710" stroke-linecap="round" stroke-linejoin="round">
<g id="ne_10m_admin_1_states_provinces">
<path d="M 230.66 59.31 242.63 62.92 265.59 64.37 283.11 80.91 307.73 81.22 335.74 85.39 367.01 79.52 370.31 73.91 392.47 53.09 402.42 41.29 407.29 25.08 416.13 14.42 430.04 7.04 449.01 3.52 462.98 2.84 473.09 1 483.95 5.09 496.82 11.9 509.15 9.97 521.81 11.62 536.21 30.62 551.67 57.13 562.46 75.74 567.57 90.49 569.76 105.93 563.52 126.45 569.21 147.24 563.38 163.19 552.65 186.64 551.19 203.96 545.72 206.49 531.17 199.54 521.08 194.8 509.66 199.79 506.86 210.53 509.05 222.22 506.89 231.79 491.29 236.05 485.99 239.08 483.24 250.8 470.76 253.39 458.11 253.68 452.48 249.4 443.19 239.26 426.31 241.94 421.91 258.84 430.66 309.04 442.27 317.9 454.57 322.29 495.09 322.8 521.35 308.13 550.31 320.53 556.81 308.31 589.36 319.92 627.35 326.03 645.22 319.41 666.02 306.78 677.5 308.16 665.26 330.62 659 346.62 659.75 357.9 655.12 363.48 645.21 367.55 634.39 381.55 632.02 394.48 621.76 413.43 642.87 423.64 659.07 411.58 678.95 410.75 686 413.8 669.24 425.85 659.84 437.36 656.48 446.31 667.53 451.62 673.96 448.09 683.42 449.49 689.92 455.41 698.38 455.84 700.29 447.39 701.19 437.96 706.17 437.42 711.9 449.55 716.56 456.13 722.42 460.11 728.09 461.02 733.78 458.66 737.61 454.19 740.05 437.09 751.57 457.63 749.33 467.22 733.4 471.89 708.98 471.12 699.03 471.7 695.17 485.63 685.4 498.5 683.72 520.13 691.07 524.85 704.11 537.22 713.58 537.13 719.91 548.01 726.56 544.99 732.38 543.26 736.5 545.44 740.01 549.55 744.64 551.52 752.13 547.37 751.94 551.22 754.63 554.62 759.59 552.59 767.46 541.58 783.95 544.41 796.93 546.77 799 554.2 786.52 552.33 773.62 559.41 762.18 562.5 743.24 578.07 735.58 589.27 738.55 594.16 744.44 596.92 747.32 602.14 741.09 614.68 735.67 619.68 730.3 622.73 724.96 626.97 720.06 635.71 728.27 636.54 746.71 633.37 750.38 637.41 746.35 647.72 736.55 656.44 725.11 661.71 716.04 661.41 704.41 673.08 674.76 670.02 669.22 685.98 669.78 706.7 669.38 709 648.38 707.72 645.32 703.36 642.32 694.17 640.5 682.27 634.41 659.92 627.92 652.14 619 648.36 609.42 647.05 597.28 643.05 588.21 642.65 580.72 644.8 575.75 649.98 572.08 656.02 563.53 675.68 559.71 682.4 556.93 686.33 549.14 688.4 490.43 692.52 478.14 697.08 470.81 702.16 458.69 705.84 450.59 706.07 443.41 704.04 438.34 699.88 434.48 694.33 433.06 688.48 433.8 682.36 435.03 676.29 434.67 669.16 431.1 663.51 426.16 657.57 418.59 652.86 409.59 650.91 400.7 652.16 382.83 661.34 370.33 663.6 358.18 664.05 341.84 662.39 333.01 658.01 320.87 649.63 281.13 617.52 270.6 597.09 268.9 587.64 265.78 551.75 264.46 544.75 262.03 536.33 252.63 517.57 245.03 495.47 240.02 486.73 226.99 471.36 221.14 463.06 200.49 424.65 190.28 412.5 168.33 396.05 148.45 384.75 139.3 384.52 129.31 387.81 116.25 395.81 97.21 400.64 94.37 405.57 94.57 412.75 99.15 431.15 103.2 438.86 114.63 453.95 118.58 461.06 118.01 467.3 109.98 487.1 107.41 496.05 98.68 499.39 82.4 497.14 31.19 469.2 8.33 462.03 20.92 415.32 18.26 402.82 4.07 361.88 1 348.25 9.78 314.96 10.72 302.07 6.55 281.09 6.04 274.4 6.42 268.18 7.22 263.85 8.89 258.94 23.29 234.22 29.2 216.77 35.88 203.49 51.22 185.71 60.25 172.53 67.88 163.99 75.65 157.96 94.39 149.67 103.39 147.13 109.11 146.13 146.8 146.9 184.68 152.1 194.22 150.86 200.28 147.66 204.92 141.6 208.47 134.46 215.86 124.97 219.48 117.07 220.6 109.92 215.25 92.8 215.01 81.66 217.59 74.56 219.2 71.25 227.13 63.43 230.66 59.31 Z"/>
</g>
</svg>