<?xml version="1.0"?>
<svg xmlns="http://www.w3.org/2000/svg" version="1.2" baseProfile="tiny" width="800" height="1194" viewBox="0 0 800 1194" stroke-linecap="round" stroke-linejoin="round">
<g id="ne_10m_admin_1_states_provinces">
<path d="M 799 73.15 798.27 77.12 795.44 80.51 792.25 82.52 790.4 84.76 789.12 98.5 788.71 110.56 783.29 114.17 773.31 100.72 764.95 97.67 761.54 108.79 750.76 115.85 742.73 130.61 734.12 138.4 730.87 142.53 728.95 146.36 729.26 147.74 730.39 150.03 731.23 156.38 728.77 165.37 717.05 187.46 713.25 192.53 703.8 195.96 689.48 194.82 686.76 198.41 683.22 212.4 672.16 236.69 674.44 246.91 681.96 255.68 693.69 255.25 698.07 257.49 710.56 271.06 697.69 286.65 682.74 290.87 671.21 286.55 657.93 284.51 656.14 300.42 668.37 312.79 679.31 328.87 661.97 341.77 654.83 346.16 646.77 348.01 641.4 351.2 638.76 358.36 634.06 380.06 632.89 398.99 630.91 402.92 627.18 404.93 621.63 410.31 614.93 426.68 607.52 467.35 595.77 497.01 588.34 536.67 575.82 587.54 554.02 665.17 529.7 753.14 522.38 776.57 524.58 791.34 523.16 800.56 529.39 821.16 538.14 834.88 557.99 841.7 555.83 849.11 546.07 862.86 543.96 869.57 528.78 960.38 532.68 984.89 510.81 1003.78 502.75 1013.9 499.87 1027.33 497.92 1028.73 489.01 1044.6 486.18 1052.65 485.54 1062.51 487.53 1067.71 490.04 1070.7 491.42 1074.32 492.08 1091.61 488.83 1096.12 480.17 1105.39 478.42 1111.2 472.44 1150.17 469.03 1157.74 460.09 1170.56 457.69 1177.87 456.96 1183.85 455.42 1188.86 450.68 1193 448.06 1190.07 446.15 1188.85 441.4 1187.1 444.36 1182.03 445.11 1179.86 445.95 1176.43 417.98 1182.02 404.75 1182.96 393.44 1177.52 390.02 1171.52 390.2 1158 388.1 1149.82 384.93 1144.88 371.12 1130.45 366.38 1123.81 362.97 1122.81 357.75 1121.84 342.68 1126.17 330.58 1116.98 322.85 1111.16 324.38 1109.05 326.04 1105.33 343.63 1077.81 347.1 1066.97 347.3 1053.98 349.84 1035.05 349.89 1026.46 345.8 1016.63 337.59 1005.85 324.32 995.95 303.59 992.92 296.25 993.26 290.08 992.43 285.74 991.27 264.86 980.09 248.18 977.44 240.14 971 226.29 946.37 223.33 937.96 222 930.05 221.38 922 219.47 915.77 215.65 907.8 196.97 888.84 189.44 878.01 141.49 859.65 135.91 854.89 130.15 845.94 126.59 827.19 129.28 789.85 123.66 775.83 105.01 758.27 88.73 750.33 73.96 738 60.56 722.1 15.95 652.61 8.75 645.74 1 631.7 9.18 612.12 29.55 609.67 77.36 611.07 86.15 609.85 95.77 606.83 105.67 601.8 127.48 587.15 136.56 584.32 145.16 584.59 164.41 589.9 174.96 585.5 185.31 575.74 198.15 557.11 205.5 550.28 211.25 547.65 244.22 557.26 252.61 558.04 260.07 554.99 263.91 548.35 261.38 532.15 256.51 520.69 244.54 500.76 241.14 491.71 240.95 481.59 248.6 466.67 261.46 447.63 265.56 437.59 265.83 426.16 262.65 416.83 252.22 398.32 247.97 385.74 241.53 371.95 234.07 362.87 218.55 348.12 212.48 338.7 207.19 325.12 204.44 315.53 202.91 308.07 202.65 299.57 205.31 285.77 217.28 247.54 225.69 232.08 233.41 222.46 242.04 218.84 251.72 218.25 260.24 216.36 266.61 212.61 269.86 203.92 272.58 181.3 278 167.32 286.41 154.99 300.69 140.91 309.45 130.4 319.76 109.18 323.91 103.22 343.45 81.6 353.24 63.16 360.25 41.35 364.35 33.44 375.04 24.62 383.48 18.99 419.97 8.59 433.18 17.71 442.78 22.47 460.56 24.28 473.77 23.79 487.37 21.33 506.79 11.35 516.47 9.98 526.26 12.11 534.48 17.23 539.86 23.69 543.74 29.83 544.13 37.59 542.8 44.19 541.99 50.84 543.53 57.21 547.73 63.23 553.24 67.76 561.05 69.97 569.87 69.72 583.04 65.71 591.02 60.19 604.38 55.24 668.23 50.76 676.71 48.5 679.73 44.23 683.88 36.92 693.19 15.54 697.18 8.98 702.58 3.34 710.73 1 720.59 1.44 733.79 5.79 744.21 7.22 753.92 11.32 760.97 19.79 767.59 44.08 769.58 57.03 772.83 67.03 776.16 71.76 799 73.15 Z"/>
</g>
</svg>