<?xml version="1.0"?>
<svg xmlns="http://www.w3.org/2000/svg" version="1.2" baseProfile="tiny" width="800" height="1447" viewBox="0 0 800 1447" stroke-linecap="round" stroke-linejoin="round">
<g id="ne_10m_admin_1_states_provinces">
<path d="M 159.56 197.72 163.08 205.75 166.65 216.72 167.17 226.37 161.23 230.55 156.62 234.9 141.24 263.24 135.75 280.19 131.2 283.86 120.71 292.36 112.4 288.04 104.06 281.61 102.2 272.17 111.65 268.3 118.01 250.66 129.7 234.61 136.48 230.72 146.37 227.38 152.72 219.1 156.69 208.39 159.56 197.72 Z M 781.41 363.29 772.23 364.48 762.75 367.25 745.83 375.49 739.17 380.9 734 387.44 726.45 401.2 720.26 421.83 725.72 426.48 741.33 431.08 752.19 434.28 761.68 439.19 763.34 445.34 762.05 449.46 752.44 456.21 748.6 464.21 757.02 467.26 771.52 460.46 774.96 465.08 742.81 494.41 730.37 493.47 719.15 497.09 718.64 508.39 714.44 515.45 706.95 531.8 701.89 539.44 696.36 545.14 689.37 550.48 681.84 555.03 674.26 558.37 657.7 564.43 646.16 567.86 634.46 569.46 622.17 574.65 613.81 581.33 611.06 586.16 591.92 591.45 578.22 606.61 570.6 614.04 561.4 615.15 563.43 579.98 574.95 568.87 592.87 557.25 599.17 552 608.68 517.29 603.6 508.17 615.3 487.51 619.25 470.16 621.99 443.52 621.19 433.42 615.26 418.49 609.01 402.89 598.64 385.53 578.51 373.23 573.35 359.39 578.81 336.43 574.24 327.47 547.56 322.87 539.59 318.21 535 317.2 529.93 313.5 526.46 306.9 536.68 292.93 547.47 287.19 558.57 289.53 570.13 288.51 580.98 291.01 585.95 299.99 584.77 314.11 586.38 317.94 592.47 319.94 598.37 319.72 602.69 317.49 610.6 308.82 620.58 291.8 625.36 270.94 622.42 251.75 609.47 239.76 592.1 241.02 568.45 232.33 549.86 238.33 535.75 255.7 534.5 261.04 532.93 274.67 531.19 279.14 519.05 293.61 515.81 299.24 511.9 317.53 504.74 330.65 499.01 345.82 494.29 367.53 493.54 377.65 495.69 388.68 509.72 418.84 515.57 440.35 520.64 450.76 527.8 455.1 534.09 457.25 543.75 471.06 560.46 473.05 561.3 479.83 556.17 498.4 554.75 507.3 551.8 518.19 544.33 522.33 535.46 525.91 527.73 534.99 521.78 528.71 516.75 529.04 511.45 531.51 505.07 531.73 498.17 528.38 495.9 524.83 495.46 517.38 490.96 505.11 485.49 497.53 465.47 486.06 395.49 484.64 385.35 485.14 373.45 489.98 361.34 488.96 356.64 481.3 355.02 471.56 352.38 463.89 347.64 452.64 341.4 446.02 346.56 446.49 353.79 447.45 354.26 441.2 349.05 431.94 336.98 419.98 323.41 409.2 313.52 403.48 325.28 397.3 328.93 396.1 333.14 396.23 339.12 398.62 343.04 399.23 348.46 401.3 357.3 412.33 363.31 417.43 370.71 404.87 392.44 383.51 397.45 366.53 402.93 357.76 407.87 338.65 410.39 320.94 405.69 308.11 411.53 296.83 410.75 287.16 405.78 278.79 392.89 264.16 375.33 237.42 369.38 232.83 348.17 220.31 341.08 217.76 339.99 212.71 335.17 201.17 339.28 181.61 343.45 177.26 358.21 182.74 363.8 185.28 351.33 172.62 346.34 164.84 354.19 150.38 356.5 127.05 353.44 116.19 349.34 104.84 344.31 100.01 342.41 97.31 335.18 90.65 334.57 80.75 340.52 75.74 348.4 64.27 348.26 51.4 337.23 40.46 349.21 25.91 367.84 18.78 381.72 36.2 390.64 33.27 400.06 26.61 405.53 21.04 406.95 17.53 411.06 3.4 411.15 3.44 411.39 3.69 416.19 7.97 428.41 21.89 433.28 26.11 439.88 28.49 447.31 28.56 458.74 25.53 468.62 20.95 492.7 13.93 498.61 10.51 504.87 8.39 509.73 6.18 514.56 2.58 521.48 1 531.03 4.27 560.06 27.56 577.31 38.59 571.99 51.32 577.03 60.46 581.71 64.93 610.74 110.15 619.46 120.49 629.07 128.52 639.67 133.68 651.8 145.11 655.46 154.23 653.7 178.52 656.02 190.72 659.77 196.55 663.4 199.65 694.6 211.59 699.5 218.64 711.66 230.97 714.14 236.16 715.38 240.22 715.79 245.45 716.65 250.6 718.58 256.07 727.59 272.1 732.82 276.29 743.67 278.01 757.26 285.28 760.09 286.04 764.1 286.58 768.88 286.36 782.36 288.33 791 294.77 796.34 301.79 799 308.18 798.97 313.77 797.32 326.09 797.18 334.54 794.93 341.59 783.48 359.5 782.41 361.92 781.41 363.29 Z M 135.89 1333.89 150.24 1330.35 153.9 1338.6 149.39 1350.86 138.9 1359.48 135.07 1347.25 134.34 1340.25 135.89 1333.89 Z M 217.61 1216.71 219.5 1231.43 233.36 1242.46 231 1243.93 230.23 1245.78 203.89 1243.36 198.73 1235.65 193.08 1230.14 189.57 1217.8 197.91 1210.51 209.18 1214.88 211.13 1214.43 213.2 1214.55 215.34 1215.26 217.61 1216.71 Z M 574.05 947.97 571.97 966.5 562.1 992.68 542.45 1013.11 530.4 1022.05 516.44 1024.62 503.08 1026.88 488.5 1027.98 466.22 1021.28 461.25 1012.57 453.43 993.59 441.92 968.28 438.42 954.41 436.97 939.3 441.65 937.28 458.56 936.63 466.58 924.17 475.63 914.08 478.25 905.52 487.98 905.5 492.77 899.64 504.25 909.19 524.59 916.17 539.34 928.41 557.35 933.34 574.05 947.97 Z M 742.83 698.46 747.18 698.2 747.73 706.7 753.09 719.82 759.81 728.69 752.3 735.88 752.5 752.81 756.52 773.01 745.36 792.93 747.4 803.24 747.62 819.7 744.87 827.26 738.78 831.57 738.87 840.51 738.03 848.52 730 851.91 723.35 851.98 719.23 861.91 714.13 869.03 713.35 880.81 707.32 890.29 707.89 898.29 706.52 902.53 710.34 906.26 712.78 912.35 710.01 918.49 709.13 924.15 713.02 932.11 706.49 939.72 706.1 946.79 697.58 945.94 688.64 948.82 680.61 950.82 673.58 956.55 671.3 962.72 664.21 962.81 662.73 957.65 657.92 951.11 659.26 944.02 661.51 934.57 659.92 920.47 655.57 911.6 653.55 900.81 654.44 896.09 659.19 898.39 662.99 899.28 665.72 890.31 676.91 877.94 689.91 858.03 695.11 842.6 698.91 829.17 698.92 821.23 697.31 804.79 694.87 797.76 695.75 792.57 692.87 788.36 698.93 781.24 704.98 772.69 713.31 757.53 713.25 751.39 719.82 748.98 723.47 737.16 722.41 725.85 731.68 709.72 737.08 703.23 739.78 700.31 742.83 698.46 Z M 364.85 899.27 375.35 903.37 384.29 912.06 384.37 918.42 374.5 918.57 370.53 924.65 361.66 926.25 352.66 916.36 353.18 909.68 351.3 904.86 343.42 908.58 338.75 901.06 333.5 896.27 328.85 890.26 339.52 889.84 351.5 896.98 356.65 893.89 364.85 899.27 Z M 79.44 1442.44 77.49 1438.14 79.28 1432.99 82.43 1430.64 83.79 1431.17 84.93 1432.12 87.04 1432.28 88.25 1434.21 90.47 1439.67 89.07 1445.97 83.19 1446 79.44 1442.44 Z M 48.75 1203.15 49.15 1199.65 52.3 1199.14 55.94 1200.03 59.11 1202.28 61.11 1205.63 59.77 1207.7 54.41 1209.71 51.25 1207.81 48.75 1203.15 Z M 240.34 1168.59 241.11 1170.52 242.35 1171.65 242.36 1172.12 239.12 1174.99 231.21 1172.56 226.36 1171.02 221.6 1165.78 220.47 1164.89 220.04 1163.25 220.66 1160.58 221.77 1158.63 225.79 1154.61 224.22 1150.68 226.24 1150.15 230.17 1147.78 232.59 1153.75 235.87 1159.71 240.34 1168.59 Z M 1 703.42 2.22 702.47 3.57 704.41 1.57 706.35 1 703.42 Z M 237.65 702.87 243.15 706.92 243.89 711.31 239.62 716.3 234.66 719.47 229.31 719.52 222.07 716.21 221.35 715.06 221.08 712.99 218.36 708.49 220.28 706.34 223.76 704.45 228.15 700.37 231.15 699.2 234.73 700.66 237.65 702.87 Z M 227.14 161.06 224.96 163.15 224.65 165.48 225.56 168.7 224.85 172.37 225.06 175.61 226.29 177.73 226.46 179.26 225.46 182.84 222.32 186.53 218.06 186.74 213.79 187.53 207.76 191.46 201.46 191.23 198.12 187.47 195.68 186.19 193.76 184.72 193 182.14 191.32 178.66 188.41 174.31 187.98 170.35 191.12 168.06 189.72 166.89 184.8 168.91 181.35 174.19 177.93 174.99 176.27 173.28 176.13 169.92 177.34 164.01 181.23 158.42 187.16 154.62 196 157.22 213.07 171.61 216.65 172.87 217.91 169.59 215.92 164.35 218.14 161.18 224.97 160.09 227.14 161.06 Z" fill-rule="evenodd"/>
</g>
</svg>