<?xml version="1.0"?>
<svg xmlns="http://www.w3.org/2000/svg" version="1.2" baseProfile="tiny" width="800" height="436" viewBox="0 0 800 436" stroke-linecap="round" stroke-linejoin="round">
<g id="ne_10m_admin_1_states_provinces">
<path d="M 84.6 420.8 86.53 420.48 90.08 421.18 93.71 422.42 95.95 423.76 96.01 426.48 93.91 430.02 89.66 434.95 87.57 435 77.57 432.09 71.61 431.44 70.2 430.2 71.8 427.45 72.16 427.78 72.46 427.97 73.13 428.29 74.05 427 75.03 427.56 76.12 428.43 77.39 428.06 77.97 427.05 78.6 423.43 79.91 419.65 80.09 418.78 80.41 417.86 81.09 417.74 81.84 418.15 82.42 418.85 84.6 420.8 Z M 7.26 409.03 8.55 409.56 8.69 410.67 7.95 411.85 6.7 412.65 5.7 412.21 1.83 412.44 1 411.91 1 410.8 1.67 409.63 2.75 408.96 3.93 409.22 7.26 409.03 Z M 134.47 402.54 134.72 403.85 134.18 404.86 133.39 405.69 132.38 407.55 128.86 412.33 127.42 416.75 126.63 421.26 125.35 425.19 122.39 427.87 119.03 428.19 115.55 427.12 113.89 425.12 115.97 422.65 115 421.88 114.67 420.66 114.14 419.52 112.53 418.96 110.91 418.6 109.9 417.89 109.98 417.16 111.6 416.79 112.25 416.08 113.32 414.36 113.71 413.95 114.95 413.79 115.3 414.36 115.41 415.12 115.92 415.52 116.67 416.26 117.47 416.78 118.54 417.04 120.78 417.06 121.83 416.87 122.78 416.41 123.84 414.98 124.66 413.11 125.66 411.5 127.25 410.85 128.41 409.97 131.7 403.87 133.08 402.1 133.74 401.81 134.47 402.54 Z M 235.97 384.87 237.62 385.31 239.65 386.35 241.38 387.67 242.1 388.91 241.25 389.7 239.29 390.17 235.49 390.62 227.47 390.54 223.6 389.63 223.47 387.71 223.94 386.46 225.29 380.63 225.47 376.84 225.15 375.64 224.17 373.8 224.38 373.9 225.51 374.15 226.52 374.69 226.99 375.06 227.38 375.52 228.09 376.79 229.15 379.71 229.82 381.08 230.28 381.74 233.21 384.75 233.9 385.05 235.97 384.87 Z M 792.25 273.79 794.36 275.49 793.74 275.99 793.16 276.76 792.71 277.72 792.55 278.78 792.1 279.63 791.07 279.67 790.05 279.38 788.28 278.65 788.32 277.35 789.09 275.86 790.46 274.13 790.93 273.74 791.49 273.61 792.25 273.79 Z M 374.09 224.21 374.1 225.18 373.81 226.21 373.29 227.15 372.69 227.81 372.49 228.24 372.61 228.66 372.61 229.01 372.02 229.22 371.41 229.1 370.76 228.67 370.26 228.07 370.07 227.41 369.35 225.95 367.63 225.16 365.62 224.57 364.1 223.68 363.58 222.24 364.44 221.2 366.04 220.52 367.74 220.16 368.72 220.07 370.38 220.38 371.99 221.23 373.31 222.55 374.09 224.21 Z M 517.75 179.44 517.34 179.84 517.05 180.44 517.01 181.16 517.42 181.93 517.73 182.84 517.32 183.63 516.71 184.27 516.39 184.73 515.1 187.31 515.01 187.67 515.09 189.03 514.93 189.43 514.57 189.38 514.17 189.25 513.86 189.38 510.81 194.45 508.83 196.43 506.37 197.22 502.16 197.41 500.91 197.89 500.23 198.55 499.39 199.66 498.68 200.87 498.37 201.79 498.65 202.13 499.19 202.26 499.65 202.61 499.59 203.58 499.26 204.36 498.94 204.63 498.45 204.71 496.16 205.53 494.43 205.78 492.68 205.63 491.21 204.94 489.37 207.34 484.43 212.39 483.29 213.07 482.16 213.17 481.3 213.59 480.95 215.21 480.29 215.56 473.75 215.54 472.74 215.72 471.98 216.17 470.76 217.82 471.14 218.63 472.23 219.11 473.17 219.8 473.63 221.16 473.94 224.14 474.38 225.5 475.37 226.83 477.35 228.52 478.26 229.93 476.56 230.4 474.71 229.78 472.78 228.86 470.84 228.38 469.66 229.17 464.81 237.76 464.18 239.5 463.92 241.46 464.56 242.78 466.08 242.75 467.81 242.38 469.09 242.65 468.2 244.81 466.54 247.52 464.53 249.38 462.58 248.99 461.33 249.98 459.76 252.68 458.32 253.21 452.83 253.15 453.37 249.27 451.46 242 451.7 239.56 453.6 239.83 455.43 237.95 456.86 235.29 457.59 233.23 459.28 233.46 460.52 231.88 461.28 229.82 461.55 228.64 461.26 226.46 459.97 221.86 459.65 219.67 459.84 217.23 460.68 216.2 462.22 216.01 465.35 216.11 466.54 215.96 467.62 215.47 468.08 214.38 468.43 214.39 469.86 211.79 470.04 211.23 473.21 209.46 476.82 208.38 480.1 206.77 482.26 203.45 482.48 201.59 481.88 200.25 480.45 199.44 476.12 198.7 475.32 197.55 475.25 195.94 475.36 194.08 474.66 190.63 474.7 189.8 475.37 189.64 478.6 189.84 482.78 189.6 484.9 190.05 486.19 191.39 486.03 192.26 485.37 193.15 484.98 194.22 485.64 195.66 486.45 196.13 487.44 196.13 491.42 195.12 496.47 192.11 495.76 190.31 496.52 189.05 500.38 186.15 500.81 185.57 501.29 183.49 501.97 183.07 502.62 182.93 502.93 182.59 503.74 181.07 507.3 178.96 508.13 177.61 508.5 175.69 510.01 172.37 510.08 170.09 517.17 177.72 517.75 179.44 Z M 551.86 111.04 552.02 111.38 552.05 111.47 552.11 111.5 552.43 111.69 551.57 113.03 548.97 114.55 547.67 115.68 546.24 118.33 545.33 119.27 544.16 118.84 543.69 120.45 542.91 120.71 542.05 120.48 541.3 120.68 540.09 121.58 538.73 121.84 537.39 121.53 536.18 120.66 535.67 119.63 535.51 118.3 535.61 117 535.86 116.03 536.33 115.11 536.76 114.87 537.52 114.85 538.91 114.59 542.51 115.13 544.24 115.11 545.77 114.26 547.18 113.12 551.86 111.04 Z M 578.64 73.96 579.64 74.83 580.9 75.62 581.97 76.57 582.43 77.9 581.93 79.64 579.7 82.65 578.71 84.76 577.49 86 576.04 87.02 574.77 87.47 573.14 86.92 572.44 85.44 572.2 83.91 571.92 83.2 569.9 82.59 569.56 81.17 570.34 78.29 568.46 72.53 568.96 71.27 569.36 69.58 569.92 65.6 570.41 65.13 571.83 64.66 574.78 63.23 576.49 65.29 577.58 71.3 578.64 73.96 Z M 607.09 41.8 609.76 41.38 611.78 43.1 612.07 45.23 609.63 46.06 608 44.44 607.73 44.25 607.48 43.78 606.96 43.93 606.53 44.34 606.52 44.57 606.55 45 606.06 45.77 605.48 46.22 605.2 45.71 604.97 45.58 604.07 44.22 603.99 43.93 602.95 43.84 601 44.2 600.15 43.94 599.84 43.21 599.64 40.64 599.46 39.68 596.95 36.04 596.38 34.45 597.76 33.91 600.71 33.92 600.14 35.93 601.16 36.48 604.55 36.04 604.06 36.82 603.33 37.68 602.82 38.53 602.94 39.28 604.09 40.23 606.27 41.21 607.09 41.8 Z M 674.65 14.97 674.73 16.74 673.88 19.38 672.62 21.96 671.51 23.6 669.93 24.36 667.93 24.27 663.95 23.02 669.63 18.16 673.56 15.9 674.65 14.97 Z M 644.84 5.95 645.21 6.63 645.75 7.18 646.16 7.83 646.11 8.78 645.64 9.38 644.95 9.43 644.22 9.3 643.61 9.44 642.49 10.24 638.6 11.9 637.3 12.18 636.75 12.39 636.53 12.84 636.38 13.55 636.01 14.23 635.16 14.53 633.29 15.54 630.76 19.95 628.88 20.96 628.56 21.39 625.7 24.24 624.64 24.76 622.22 23.82 620.96 23.9 621.64 25.32 621 26.47 620.25 27.23 619.4 27.74 618.46 28.18 619.52 29.11 621.85 30.69 622.88 31.72 618.02 34.87 617.22 35.01 616.77 37.21 615.58 37.27 613.95 36.81 612.17 37.51 613.34 38.19 614.28 39.64 614.73 41.11 614.42 41.78 613.47 41.4 610.86 38.87 606.15 35.72 605.56 34.41 605.66 32.92 605.6 31.49 604.54 30.36 603.35 31.9 602.06 31.94 598.87 30.37 595.7 29.68 594.35 29.21 593.13 28.24 593.13 27.59 593.93 27.16 594.71 26.92 595.5 27.02 596.34 27.59 598.95 26.74 601.95 27.56 604.67 27.66 606.47 24.66 603.08 24.62 601.78 24.02 600.68 22.54 601.95 21.7 602.96 20.77 604.02 20 606.26 19.56 606.94 19.21 608.84 17.77 610.15 16.35 610.22 16.11 612.61 15.86 614.77 16.02 616.51 15.5 617.77 13.25 619.52 13.91 621.24 13.37 622.64 12.03 623.48 10.31 624.13 11.38 625.08 12.02 626.16 12.53 627.27 13.21 628.83 9.33 631.34 7.17 637.35 3.85 636.23 7.47 636.47 8.45 637.95 8.83 639.01 8.31 639.95 7.02 641.68 3.82 641.61 3.31 641.26 2.54 641.11 1.71 641.65 1 643 1.08 643.95 2.55 644.84 5.95 Z M 468.33 185.49 468.43 188.45 466.04 188.89 463.51 187.79 463.16 186.15 464.49 185.59 467.01 185.88 468.33 185.49 Z M 485.99 148.52 486.51 148.52 485.76 151.12 484.11 153.92 481.89 156.14 479.42 157.01 480.36 155.42 485.2 149.88 485.99 148.52 Z M 795.38 265.78 796.54 265.57 798.36 266.11 799 267.2 798.49 268.25 797.96 268.68 797.3 268.73 796.53 268.32 795.51 267.1 795.38 265.78 Z M 413.15 199.06 414.14 198.89 415.03 199.32 415.19 200.4 414.49 201.14 413.57 201.09 412.43 201.29 411.87 200.81 412.45 199.68 413.15 199.06 Z M 528.77 153.39 528.81 155.34 528.22 156.18 526.62 156.07 524.71 155.14 524.26 154.66 523.84 154.47 523.35 154.07 523.35 153.21 523.86 153.03 524.52 153.02 525.17 152.1 526.41 151.4 527.85 151.82 528.53 152.7 528.77 153.39 Z M 508.98 67.97 509.16 68.56 509.61 68.94 509.43 70.18 508.57 69.39 508.36 67.71 508.98 67.97 Z M 218.6 377.71 219.33 378.7 219.86 380.84 218.71 382.02 215.16 382.34 213.5 381.94 212.54 380.66 212.67 379.39 213.49 379.06 214.25 378.89 214.48 377.79 214.88 376.73 216.17 376.59 217.82 377.27 218.6 377.71 Z M 426.45 239.29 426.55 239.76 426.55 240.48 426.26 241.78 425.84 243.14 425.58 244.55 424.86 245.58 424.1 245.13 423.87 243.88 423.84 242.86 423.88 242.26 424.24 240.12 425.01 238.82 425.94 238.58 426.45 239.29 Z M 70.29 279.35 70.13 279.37 69.74 279.29 69.99 278.66 70.29 279.35 Z M 69.21 277.86 69.06 278.74 68.67 277.97 69.21 277.86 Z M 65.98 277.31 65.8 277.56 65.57 277.21 65.98 277.31 Z M 64.62 276.73 63.06 276.67 61.4 276.99 61.68 275.84 63.35 275.47 63.92 275.5 64.62 276.73 Z M 71.78 275.7 71.78 275.79 71.55 275.69 71.78 275.7 Z M 69.52 272.74 69.51 273.22 69.22 273.19 69.52 272.74 Z M 161.87 266.34 161.76 266.53 161.54 266.38 161.69 266.11 161.87 266.34 Z M 77.41 259.8 77.31 259.92 77.29 259.68 77.41 259.8 Z M 77.63 260.91 77.37 259.99 78 259.61 78.48 260.27 78.59 260.46 78.32 260.74 77.63 260.91 Z" fill-rule="evenodd"/>
</g>
</svg>